<svg width="59" height="58" viewBox="0 0 59 58" fill="none" xmlns="http://www.w3.org/2000/svg">
<circle cx="33" cy="33" r="33" fill="#F26957"/>
<path d="M35.4427 42.6617C35.1736 42.6617 34.9044 42.5625 34.6919 42.35C34.2811 41.9392 34.2811 41.2592 34.6919 40.8483L42.5402 33L34.6919 25.1517C34.2811 24.7408 34.2811 24.0608 34.6919 23.65C35.1027 23.2392 35.7827 23.2392 36.1936 23.65L44.7927 32.2492C45.2036 32.66 45.2036 33.34 44.7927 33.7508L36.1936 42.35C35.9811 42.5625 35.7119 42.6617 35.4427 42.6617Z" fill="white"/>
<path d="M43.8005 34.0625H19.958C19.3772 34.0625 18.8955 33.5808 18.8955 33C18.8955 32.4192 19.3772 31.9375 19.958 31.9375H43.8005C44.3813 31.9375 44.863 32.4192 44.863 33C44.863 33.5808 44.3813 34.0625 43.8005 34.0625Z" fill="white"/>
</svg>
