<?xml version="1.0" standalone="no"?>
<!DOCTYPE svg PUBLIC "-//W3C//DTD SVG 20010904//EN"
 "http://www.w3.org/TR/2001/REC-SVG-20010904/DTD/svg10.dtd">
<svg version="1.0" xmlns="http://www.w3.org/2000/svg"
 width="813.000000pt" height="353.000000pt" viewBox="0 0 813.000000 353.000000"
 preserveAspectRatio="xMidYMid meet">

<g transform="translate(0.000000,353.000000) scale(0.100000,-0.100000)"
fill="#000000" stroke="none">
<path d="M7275 2576 c-41 -18 -90 -71 -114 -122 -32 -67 -40 -149 -34 -346 6
-182 -5 -290 -36 -370 -15 -40 -66 -59 -110 -42 -18 8 -38 14 -42 14 -5 0 -28
-38 -50 -84 -40 -82 -43 -85 -104 -115 -34 -17 -69 -31 -78 -31 -26 0 -43 -29
-29 -51 11 -17 9 -19 -13 -19 -21 0 -25 -5 -25 -30 l0 -30 458 1 c288 0 449 4
434 9 -12 5 -44 9 -71 9 -30 -1 -58 5 -74 16 -26 16 -40 17 -79 0 -13 -5 -18
-2 -18 9 0 9 -7 16 -15 16 -10 0 -15 10 -15 34 0 32 3 35 33 38 l32 4 -28 12
c-16 7 -45 12 -66 12 -33 0 -40 4 -51 30 -10 25 -10 37 4 71 9 23 14 44 11 47
-3 3 -5 1 -5 -4 0 -5 -9 -20 -19 -33 l-19 -25 -22 43 -22 43 24 47 c36 69 75
91 163 91 104 0 135 8 135 34 0 17 -9 24 -43 33 -66 18 -130 91 -156 181 -29
97 -32 145 -7 150 13 3 16 0 11 -9 -6 -9 -3 -11 9 -6 10 4 23 7 29 7 8 0 8 3
0 11 -9 9 -2 19 27 40 21 15 46 42 56 58 22 38 26 38 42 3 17 -38 65 -86 107
-106 28 -13 35 -23 35 -45 0 -15 7 -36 15 -47 14 -18 14 -18 15 7 0 64 74 103
104 57 29 -47 -8 -128 -59 -128 -31 0 -36 -28 -27 -145 l7 -90 82 -3 82 -3 8
28 c13 47 9 412 -6 478 -40 181 -143 284 -261 260 -37 -8 -54 -8 -140 0 -35 3
-66 0 -85 -9z"/>
<path d="M5754 2562 c-43 -21 -84 -64 -84 -91 -1 -9 -19 -25 -42 -36 -26 -13
-48 -33 -60 -55 -25 -48 -24 -151 2 -208 18 -40 22 -43 48 -38 32 8 68 -20 78
-59 3 -14 9 -25 13 -25 10 0 31 46 31 66 0 8 11 30 24 47 29 39 46 89 46 133
l0 34 129 0 c146 0 142 3 140 -83 -1 -29 -3 -44 -6 -34 -2 9 -11 17 -19 17
-21 0 -17 -13 10 -39 l25 -23 11 42 c8 29 8 56 2 87 -9 40 -7 49 14 80 13 20
24 46 24 59 0 20 -5 24 -28 24 -17 0 -51 16 -83 39 -80 57 -112 71 -176 77
-45 4 -68 0 -99 -14z"/>
<path d="M5838 2205 c-26 -35 -23 -36 27 -8 25 13 45 27 45 29 0 2 -12 4 -27
4 -18 -1 -34 -10 -45 -25z"/>
<path d="M7390 2220 c-12 -8 -10 -10 10 -10 14 0 36 -3 50 -6 24 -5 24 -5 6
10 -23 18 -44 20 -66 6z"/>
<path d="M7410 2160 c0 -11 5 -20 10 -20 6 0 10 9 10 20 0 11 -4 20 -10 20 -5
0 -10 -9 -10 -20z"/>
<path d="M5888 2158 c-7 -19 2 -38 18 -38 8 0 14 10 14 25 0 26 -24 35 -32 13z"/>
<path d="M6035 2157 c-4 -10 -5 -21 -1 -24 10 -10 18 4 13 24 -4 17 -4 17 -12
0z"/>
<path d="M7250 2155 c0 -8 5 -15 10 -15 6 0 10 7 10 15 0 8 -4 15 -10 15 -5 0
-10 -7 -10 -15z"/>
<path d="M5555 1756 c-56 -26 -94 -66 -129 -135 -42 -82 -110 -270 -121 -330
-3 -16 -9 -41 -15 -55 -41 -108 -100 -646 -71 -646 8 0 17 -188 24 -472 l2
-98 201 0 201 0 6 53 c4 28 9 94 13 146 4 51 10 87 14 80 4 -8 13 -74 20 -146
l13 -133 174 0 c132 0 173 3 173 13 0 6 -13 128 -29 269 l-30 258 -128 143
c-159 178 -217 246 -231 272 -22 43 -52 139 -44 145 16 14 180 120 185 120 3
0 13 -35 22 -77 23 -107 28 -119 101 -224 l64 -93 1 182 c1 100 2 187 3 194 1
13 26 24 26 11 0 -5 16 -26 35 -47 19 -21 35 -35 35 -30 0 4 13 -5 29 -20 l29
-28 51 100 c27 55 49 111 48 124 0 12 -41 89 -89 169 -48 81 -92 157 -97 170
-10 28 -79 99 -95 99 -6 0 -22 3 -36 6 -21 6 -23 4 -12 -7 17 -19 15 -66 -4
-73 -37 -14 -73 -5 -115 30 -24 20 -54 40 -67 45 -41 16 -105 10 -157 -15z"/>
<path d="M7588 1451 c-14 -43 -22 -84 -18 -91 4 -7 -1 -42 -12 -79 -11 -36
-24 -85 -30 -108 -8 -35 -17 -46 -54 -68 -46 -27 -66 -26 -63 3 1 10 1 36 0
60 -1 41 -2 42 -34 42 -32 0 -33 1 -29 35 l4 35 -383 -3 -384 -2 0 -25 0 -25
250 -6 c138 -3 250 -7 250 -7 0 -1 0 -88 0 -193 l0 -192 40 -13 c22 -8 52 -21
67 -29 14 -8 28 -15 31 -15 3 0 46 46 95 103 50 56 113 127 142 157 74 78 79
88 105 199 12 54 26 104 29 109 4 7 41 -9 93 -39 89 -51 117 -56 111 -17 -2
18 -19 27 -98 53 -52 17 -101 33 -107 35 -10 4 -8 22 8 78 11 41 19 75 17 78
-2 2 -16 -32 -30 -75z m-965 -198 c-7 -2 -19 -2 -25 0 -7 3 -2 5 12 5 14 0 19
-2 13 -5z m777 -127 c0 -11 -19 -15 -25 -6 -3 5 1 10 9 10 9 0 16 -2 16 -4z
m10 -91 c0 -19 -4 -35 -8 -35 -4 0 -6 16 -4 35 2 19 6 35 8 35 2 0 4 -16 4
-35z m-263 -7 c-3 -8 -6 -5 -6 6 -1 11 2 17 5 13 3 -3 4 -12 1 -19z m30 -83
c6 -14 8 -25 4 -25 -4 0 -13 11 -19 25 -6 14 -8 25 -4 25 4 0 12 -11 19 -25z
m133 1 c0 -3 -4 -8 -10 -11 -5 -3 -10 -1 -10 4 0 6 5 11 10 11 6 0 10 -2 10
-4z m20 -31 c0 -9 -9 -15 -22 -14 -17 1 -19 2 -5 6 9 2 17 9 17 14 0 5 2 9 5
9 3 0 5 -7 5 -15z m-16 -33 c-5 -4 -12 -11 -15 -15 -3 -5 -9 -2 -12 5 -3 9 3
14 15 15 11 1 16 -1 12 -5z m-44 -22 c0 -5 -4 -10 -10 -10 -5 0 -10 5 -10 10
0 6 5 10 10 10 6 0 10 -4 10 -10z"/>
<path d="M7760 1130 c0 -35 -41 -130 -68 -158 -32 -33 -107 -94 -179 -144 -85
-61 -206 -165 -247 -214 -21 -25 -54 -53 -72 -62 -19 -9 -37 -25 -39 -37 -2
-11 -14 -81 -25 -155 -12 -74 -28 -171 -36 -216 -24 -137 -39 -124 144 -124
l157 0 70 244 c38 135 73 242 77 240 4 -3 8 -26 9 -52 0 -26 10 -132 22 -237
l22 -190 118 -3 c132 -3 196 9 195 36 0 9 12 143 27 297 23 242 25 291 15 360
-6 44 -13 88 -16 97 -5 16 -25 18 -186 20 l-180 3 71 48 c73 51 109 95 115
144 2 15 7 49 11 76 4 26 5 47 1 47 -3 0 -6 -9 -6 -20z"/>
<path d="M7082 715 l1 -46 29 28 29 28 -22 17 c-32 27 -39 22 -37 -27z"/>
</g>
</svg>
