<svg width="32" height="32" viewBox="0 0 32 32" fill="none" xmlns="http://www.w3.org/2000/svg">
<path d="M30.5773 17.0767C30.2878 13.8686 28.9011 10.8584 26.6508 8.55349C26.3939 8.30666 26.0515 8.16881 25.6952 8.16881C25.3389 8.16881 24.9964 8.30666 24.7395 8.55349C24.4964 8.78981 24.3519 9.10945 24.335 9.44806C24.3182 9.78666 24.4303 10.1191 24.6487 10.3784C25.2118 11.0485 25.7072 11.7727 26.1276 12.5405C27.1392 14.3404 27.5582 16.4132 27.3254 18.4647C27.0925 20.5162 26.2195 22.4423 24.8303 23.9697C24.2384 24.6041 23.5719 25.1645 22.8454 25.6389V21.1892C22.8325 16.3286 18.413 14.2702 18.2314 14.2011C15.2562 12.8216 13.7946 9.40106 13.639 9.01187C12.9168 4.86052 10.4606 3.53295 9.56976 3.17836C9.24544 2.16214 8.41084 0.990248 6.33517 0.864843C6.25375 0.860604 6.1728 0.879466 6.10164 0.919252C6.03049 0.959039 5.97203 1.01813 5.93301 1.08971C5.89298 1.16135 5.87417 1.2429 5.87876 1.32483C5.88336 1.40676 5.91117 1.48569 5.95895 1.55241C6.2158 1.95489 6.34818 2.42422 6.33949 2.9016C5.50922 3.11349 3.48111 3.84863 3.2303 6.01511C3.2303 6.04106 3.18274 6.65079 2.21841 7.23025C2.04733 7.30609 1.89329 7.41563 1.76549 7.55234C1.6377 7.68905 1.53877 7.85012 1.47463 8.02592C1.28003 8.55782 1.40544 9.20646 1.87246 9.97619C1.92868 10.054 3.16976 11.7665 5.28868 11.4984C5.27999 11.9546 5.18115 12.4045 4.99784 12.8224C4.81452 13.2402 4.55037 13.6176 4.22057 13.933C4.18694 13.9687 4.1592 14.0096 4.13841 14.054C3.73869 15.1391 3.59207 16.3012 3.70973 17.4515C3.82739 18.6019 4.20622 19.7102 4.81733 20.6919C4.83879 20.7295 4.86658 20.7632 4.89949 20.7913C4.92544 20.813 7.20868 22.8324 6.54274 24.8908L5.75571 27.1784C5.7316 27.2515 5.69211 27.3187 5.6399 27.3754C5.5877 27.4321 5.52397 27.477 5.45301 27.507L4.26814 28.0086C3.93556 28.1525 3.66261 28.4064 3.49511 28.7277C3.32762 29.049 3.27578 29.4182 3.34831 29.7732C3.42083 30.1282 3.6133 30.4475 3.8934 30.6774C4.1735 30.9073 4.52417 31.0338 4.88652 31.0357H7.12652C7.42666 31.0346 7.71945 30.9427 7.96642 30.7721C8.21339 30.6016 8.40299 30.3603 8.5103 30.08L10.093 25.8681C10.5967 26.6528 11.3117 27.2794 12.1557 27.6757L11.4335 27.7665C11.212 27.7939 10.9982 27.8656 10.8049 27.9774C10.6116 28.0891 10.4427 28.2386 10.3084 28.4169C10.1741 28.5952 10.0769 28.7988 10.0229 29.0154C9.96877 29.232 9.9588 29.4573 9.99355 29.6778C10.0619 30.0741 10.2683 30.4335 10.5762 30.6923C10.884 30.9511 11.2735 31.0926 11.6757 31.0919H18.3006C18.6119 31.1221 18.9103 31.1351 19.1654 31.1351C20.0911 31.1537 21.0117 30.9936 21.8768 30.6638C23.8689 29.8814 25.6209 28.5902 26.9579 26.9189C28.0142 25.636 28.8874 24.2127 29.5525 22.6897C30.343 20.9291 30.6947 19.0031 30.5773 17.0767ZM5.92868 6.79349H5.59138C5.43352 6.78039 5.28635 6.70843 5.17907 6.59188C5.07179 6.47533 5.01224 6.32271 5.01224 6.1643C5.01224 6.0059 5.07179 5.85328 5.17907 5.73673C5.28635 5.62018 5.43352 5.54821 5.59138 5.53511H5.92868C6.01569 5.52789 6.10325 5.5388 6.18584 5.56714C6.26842 5.59549 6.34422 5.64065 6.40846 5.69978C6.4727 5.75891 6.52398 5.83072 6.55905 5.91068C6.59413 5.99063 6.61224 6.07699 6.61224 6.1643C6.61224 6.25161 6.59413 6.33797 6.55905 6.41793C6.52398 6.49789 6.4727 6.5697 6.40846 6.62883C6.34422 6.68796 6.26842 6.73312 6.18584 6.76146C6.10325 6.78981 6.01569 6.80071 5.92868 6.79349Z" fill="white"/>
</svg>
