<svg width="24" height="24" viewBox="0 0 24 24" fill="none" xmlns="http://www.w3.org/2000/svg">
<g clip-path="url(#clip0_283_3352)">
<path d="M20.4844 0H3.51562C1.5772 0 0 1.62408 0 3.5625V20.4844C0 22.4228 1.5772 24 3.51562 24C9.23864 24 14.2489 24 20.4375 24C22.3759 24 24 22.4228 24 20.4844V3.5625C24 1.62408 22.4228 0 20.4844 0ZM19.5159 12.1705L19.1644 13.5768C19.0861 13.8898 18.8049 14.1094 18.4823 14.1094H14.8125V20.4844C14.8125 20.8727 14.4977 21.1875 14.1094 21.1875H12.7031C12.3148 21.1875 12 20.8727 12 20.4844V14.1094H9.1875C8.79919 14.1094 8.48438 13.7946 8.48438 13.4062V12C8.48438 11.6116 8.79919 11.2969 9.1875 11.2969H12V8.48438C12 6.15441 13.8888 4.26562 16.2188 4.26562H18.3281C18.7164 4.26562 19.0312 4.58034 19.0312 4.96875V6.375C19.0312 6.76331 18.7164 7.07812 18.3281 7.07812H16.2188C15.4421 7.07812 14.8125 7.7077 14.8125 8.48438V11.2969H18.8338C19.2912 11.2969 19.6269 11.7267 19.5159 12.1705Z" fill="white"/>
</g>
<defs>
<clipPath id="clip0_283_3352">
<rect width="24" height="24" fill="white"/>
</clipPath>
</defs>
</svg>
