<svg width="20" height="20" viewBox="0 0 20 20" fill="none" xmlns="http://www.w3.org/2000/svg">
<path d="M9.99996 18.0417C9.74163 18.0417 9.49163 18.0084 9.28329 17.9334C6.09996 16.8417 1.04163 12.9667 1.04163 7.24171C1.04163 4.32504 3.39996 1.95837 6.29996 1.95837C7.70829 1.95837 9.02496 2.50837 9.99996 3.49171C10.975 2.50837 12.2916 1.95837 13.7 1.95837C16.6 1.95837 18.9583 4.33337 18.9583 7.24171C18.9583 12.975 13.9 16.8417 10.7166 17.9334C10.5083 18.0084 10.2583 18.0417 9.99996 18.0417ZM6.29996 3.20837C4.09163 3.20837 2.29163 5.01671 2.29163 7.24171C2.29163 12.9334 7.76663 16.1 9.69163 16.7584C9.84163 16.8084 10.1666 16.8084 10.3166 16.7584C12.2333 16.1 17.7166 12.9417 17.7166 7.24171C17.7166 5.01671 15.9166 3.20837 13.7083 3.20837C12.4416 3.20837 11.2666 3.80004 10.5083 4.82504C10.275 5.14171 9.74163 5.14171 9.50829 4.82504C8.73329 3.79171 7.56663 3.20837 6.29996 3.20837Z" fill="#232323"/>
</svg>
