<svg width="32" height="32" viewBox="0 0 32 32" fill="none" xmlns="http://www.w3.org/2000/svg">
<path d="M22.5454 0.96969V6.30302C22.5454 6.54545 22.4 6.73939 22.1575 6.78787L16.8242 8.09696C16.7757 8.09696 16.7272 8.09696 16.7272 8.09696H16.6303L11.2969 6.78787C11.103 6.73939 10.9091 6.54545 10.9091 6.30302V0.96969C10.9091 0.824235 10.9575 0.678781 11.103 0.581811C11.2 0.484841 11.3454 0.484841 11.4909 0.484841L16.7272 1.79393L21.9636 0.484841C22.1091 0.436356 22.2545 0.484841 22.4 0.581811C22.4969 0.678781 22.5454 0.824235 22.5454 0.96969Z" fill="white"/>
<path d="M7.90302 16.7274C7.90302 17.4062 7.27272 17.988 6.49696 17.988C5.7212 17.988 5.0909 17.4062 5.0909 16.7274C5.0909 16.0001 5.7212 15.4668 6.49696 15.4668C6.64242 15.4668 6.78787 15.5153 6.93332 15.5153V13.188L4.1212 14.0608V17.5517V17.6486V17.7941C4.1212 18.4729 3.4909 19.0547 2.71514 19.0547C1.93938 19.0547 1.30908 18.4729 1.30908 17.7941C1.30908 17.0668 1.93938 16.5335 2.71514 16.5335C2.8606 16.5335 3.00605 16.582 3.15151 16.582V13.6729C3.15151 13.4789 3.29696 13.285 3.4909 13.2365L7.27272 12.0244C7.41817 11.9759 7.56363 12.0244 7.70908 12.1214C7.85454 12.2183 7.90302 12.3638 7.90302 12.5092V16.388V16.485V16.7274Z" fill="white"/>
<path d="M30.2061 12.606H24.9697C24.6788 12.606 24.4849 12.7999 24.4849 13.0908V18.1332C24.4849 18.3757 24.6788 18.6181 24.9697 18.6181H30.2061C30.497 18.6181 30.6909 18.3757 30.6909 18.1332V13.0908C30.6909 12.7999 30.4485 12.606 30.2061 12.606ZM28.9455 15.9999L26.9091 17.0666C26.8606 17.115 26.7637 17.115 26.6667 17.115C26.5697 17.115 26.4727 17.115 26.4243 17.0181C26.2788 16.9211 26.1818 16.7757 26.1818 16.6302V14.5454C26.1818 14.3514 26.2788 14.206 26.4243 14.109C26.5697 14.012 26.7637 14.012 26.9091 14.109L28.9455 15.1757C29.0909 15.2726 29.1879 15.4181 29.1879 15.612C29.2364 15.7575 29.1394 15.9514 28.9455 15.9999Z" fill="white"/>
<path d="M4.60601 11.7816H4.75146C4.9454 11.7816 5.13934 11.6362 5.23631 11.4422C5.9151 9.01797 7.46661 6.88464 9.50298 5.43009C9.69692 5.28464 9.79389 4.99373 9.59995 4.75131C9.45449 4.50888 9.16358 4.4604 8.92116 4.65434C6.69086 6.25434 5.04237 8.58161 4.26661 11.1998C4.21813 11.4422 4.36358 11.7331 4.60601 11.7816Z" fill="white"/>
<path d="M26.8606 20.1213C26.9576 19.8789 26.9091 19.588 26.6667 19.4426C26.4242 19.3456 26.1333 19.4426 25.9879 19.6365C25.1152 21.3335 23.8546 22.788 22.303 23.8547C21.9636 23.7092 21.6243 23.5638 21.2849 23.4668C21.2364 23.4668 21.1879 23.4668 21.1879 23.4668C20.6061 23.4668 20.0727 23.1759 19.7818 22.7395C19.5879 22.4486 19.4909 22.1092 19.4909 21.7698V20.4122C20.5576 19.588 21.2849 18.2789 21.2849 16.7759L21.2364 15.2244C21.2364 15.1759 21.2849 15.1274 21.2849 15.0789C21.2849 12.6062 19.2485 10.5698 16.7758 10.5698C14.303 10.5698 12.2667 12.6062 12.2667 15.0789V16.7759C12.2667 18.2304 12.9939 19.5395 14.0606 20.3638V21.7213C14.0606 22.0607 13.9636 22.4001 13.7697 22.691C13.4303 23.1759 12.897 23.4668 12.3636 23.4668C12.3152 23.4668 12.2667 23.4668 12.2667 23.4668C11.6364 23.6122 11.0061 23.9032 10.5212 24.3395C8.48486 23.1759 6.83637 21.3819 5.86667 19.2486C5.7697 19.0062 5.47879 18.9092 5.23637 19.0062C4.99395 19.1032 4.89698 19.3941 4.99395 19.6365C6.01213 21.8668 7.7091 23.7577 9.79395 25.0183C9.74546 25.0668 9.69698 25.1638 9.60001 25.2122C8.92122 26.085 8.58183 27.1516 8.58183 28.2183V28.8971C8.58183 30.3032 9.74546 31.4668 11.1515 31.4668H22.4485C23.8546 31.4668 25.0182 30.3032 25.0182 28.8971V28.2183C25.0182 27.1516 24.6303 26.085 24 25.2122C23.7576 24.9213 23.5152 24.6789 23.2243 24.4365C24.7273 23.3213 25.9879 21.8668 26.8606 20.1213ZM17.4546 23.7577C17.0182 24.0971 16.3879 24.0971 15.9515 23.7577L14.6909 22.885C14.8364 22.5456 14.9333 22.1577 14.9333 21.8183V20.9941C15.4667 21.2365 16.0485 21.3335 16.6788 21.3335C17.3091 21.3335 17.8909 21.188 18.4242 20.9941V21.8183C18.4242 22.2062 18.5212 22.5456 18.6667 22.885L17.4546 23.7577ZM16.7273 20.3638C14.7394 20.3638 13.1879 18.7638 13.1879 16.8244V15.9032C13.6727 16.0971 14.1576 16.1456 14.5939 16.1456C15.8061 16.1456 16.8727 15.6607 17.5515 15.3213C17.7455 15.2244 18.0364 15.0789 18.0849 15.0789L20.2182 15.5153L20.2667 16.8244C20.2667 18.7638 18.6667 20.3638 16.7273 20.3638Z" fill="white"/>
<path d="M26.7151 11.2485C26.7636 11.4425 26.9575 11.5879 27.1999 11.5879H27.3454C27.5878 11.4909 27.7333 11.2485 27.6848 10.9576C27.103 9.11518 26.0363 7.36973 24.6787 6.01215C24.4848 5.81821 24.1939 5.81821 23.9999 6.01215C23.806 6.20609 23.806 6.497 23.9999 6.69094C25.2121 7.95155 26.1818 9.50306 26.7151 11.2485Z" fill="white"/>
</svg>
