<svg width="32" height="32" viewBox="0 0 32 32" fill="none" xmlns="http://www.w3.org/2000/svg">
<g clip-path="url(#clip0_94_24577)">
<path d="M27.8178 8.25712C30.0931 8.25712 31.9376 6.4087 31.9376 4.12856C31.9376 1.84842 30.0931 0 27.8178 0C25.5424 0 23.6979 1.84842 23.6979 4.12856C23.6979 6.4087 25.5424 8.25712 27.8178 8.25712Z" fill="white"/>
<path d="M22.4623 23.1475H25.1126V25.8033H22.4623V23.1475Z" fill="white"/>
<path d="M17.638 8.70253C18.152 8.24553 18.8136 7.9939 19.5007 7.9939C20.1878 7.9939 20.8494 8.24559 21.3635 8.70253L22.1022 9.35915V7.01309C22.1022 3.15115 18.9669 0.00927734 15.113 0.00927734C11.7372 0.00927734 8.91285 2.42009 8.26404 5.61384C9.32523 7.22903 11.185 10.3862 11.9804 13.7319L17.638 8.70253Z" fill="white"/>
<path d="M31.0643 30.1128H29.772V21.1912L30.381 21.7326C30.5591 21.891 30.7808 21.9688 31.0016 21.9688C31.2599 21.9688 31.517 21.8622 31.7019 21.6533C32.0448 21.266 32.0094 20.6733 31.6228 20.3297L28.8799 17.8914V13.032C28.8799 12.5142 28.4609 12.0944 27.9442 12.0944C27.4274 12.0944 27.0085 12.5142 27.0085 13.032V16.2278L20.1215 10.1056C19.7672 9.79066 19.2339 9.79066 18.8797 10.1056L7.37844 20.3297C6.99188 20.6733 6.9565 21.2659 7.29938 21.6533C7.64231 22.0407 8.23375 22.0761 8.62025 21.7325L9.22925 21.1911V30.1127H6.2095V26.0221C6.60919 25.8997 6.99381 25.6987 7.358 25.4231V23.7695C6.79869 23.6378 6.28731 23.3358 5.89956 22.8978C4.8725 21.7376 4.97881 19.9562 6.13656 18.9269L10.3598 15.1727C9.64894 10.628 6.18981 5.88966 6.02644 5.66804C5.85 5.42879 5.57075 5.2876 5.27388 5.2876C4.977 5.2876 4.69775 5.42879 4.52131 5.66804C4.33913 5.9151 0.0601875 11.7757 0.0601875 16.7233C0.0601875 19.1381 0.54075 21.4231 1.41338 23.1573C2.18313 24.6872 3.19956 25.674 4.33819 26.0222V30.1128H0.935687C0.418938 30.1128 0 30.5327 0 31.0505C0 31.5683 0.418938 31.9881 0.935687 32.0001H29.7721H31.0644C31.5811 31.9881 32.0001 31.5683 32.0001 31.0505C32.0001 30.5327 31.5811 30.1128 31.0643 30.1128ZM20.5909 22.2101C20.5909 21.6923 21.0098 21.2725 21.5266 21.2725H26.0483C26.565 21.2725 26.9839 21.6923 26.9839 22.2101V26.7413C26.9839 27.2591 26.565 27.6789 26.0483 27.6789H21.5266C21.0098 27.6789 20.5909 27.2591 20.5909 26.7413V22.2101ZM15.4672 30.1128V23.1477H13.5958V30.1128H11.7245V22.2101C11.7245 21.6922 12.1434 21.2725 12.6602 21.2725H16.4029C16.9196 21.2725 17.3386 21.6923 17.3386 22.2101V30.1128H15.4672Z" fill="white"/>
</g>
<defs>
<clipPath id="clip0_94_24577">
<rect width="32" height="32" fill="white"/>
</clipPath>
</defs>
</svg>
