<svg width="70" height="70" viewBox="0 0 70 70" fill="none" xmlns="http://www.w3.org/2000/svg">
<g filter="url(#filter0_b_6_15732)">
<circle cx="35" cy="35" r="35" fill="black" fill-opacity="0.2"/>
</g>
<g clip-path="url(#clip0_6_15732)">
<path d="M50.9992 31.9911C50.999 31.6797 50.9883 31.3699 50.9679 31.0621C49.5507 31.0621 25.4553 31.0621 24.6925 31.0621L23.4844 27.1356C23.0181 25.6205 21.5597 24.5623 19.9377 24.5623C19.42 24.5623 19.0002 24.9821 19.0002 25.4998C19.0002 26.0175 19.42 26.4373 19.9377 26.4373C20.7316 26.4373 21.4695 26.9629 21.6923 27.687C23.2446 32.732 23.0939 32.2443 23.1135 32.302C23.1437 32.3901 23.3011 32.8296 24.8768 37.2416C25.4525 38.8537 27.2638 39.9369 29.3838 39.9369H32.615L31.7398 42.1247C29.0129 41.6648 26.5625 43.7779 26.5625 46.4992C26.5625 48.9606 28.5557 50.999 30.9999 50.999C33.1481 50.999 34.9157 49.4341 35.3385 47.4366H38.661C38.8369 48.2676 39.2448 49.0359 39.8539 49.66C41.5972 51.4464 44.4015 51.4469 46.1453 49.66C46.9782 48.8065 47.437 47.684 47.437 46.4992C47.437 43.7774 44.9861 41.6649 42.2597 42.1247L41.3843 39.9369H44.6156C46.7334 39.9369 48.5429 38.856 49.1207 37.2468C51.0569 32.0115 50.9992 32.2338 50.9992 31.9911ZM38.6627 45.5617H35.3367C35.0916 44.4269 34.412 43.452 33.4804 42.8216L34.6345 39.9369H39.365L40.519 42.8216C39.5875 43.452 38.9078 44.4269 38.6627 45.5617Z" fill="white"/>
<path d="M50.7156 29.1872C49.5591 23.5409 44.8535 19 38.9997 19H37.4998C37.0957 19 36.7371 19.2589 36.61 19.6424L33.4448 29.1872H50.7156Z" fill="white"/>
</g>
<defs>
<filter id="filter0_b_6_15732" x="-3" y="-3" width="76" height="76" filterUnits="userSpaceOnUse" color-interpolation-filters="sRGB">
<feFlood flood-opacity="0" result="BackgroundImageFix"/>
<feGaussianBlur in="BackgroundImageFix" stdDeviation="1.5"/>
<feComposite in2="SourceAlpha" operator="in" result="effect1_backgroundBlur_6_15732"/>
<feBlend mode="normal" in="SourceGraphic" in2="effect1_backgroundBlur_6_15732" result="shape"/>
</filter>
<clipPath id="clip0_6_15732">
<rect width="32" height="32" fill="white" transform="translate(19 19)"/>
</clipPath>
</defs>
</svg>
