<svg width="70" height="70" viewBox="0 0 70 70" fill="none" xmlns="http://www.w3.org/2000/svg">
<g filter="url(#filter0_b_6_15736)">
<circle cx="35" cy="35" r="35" fill="black" fill-opacity="0.2"/>
</g>
<g clip-path="url(#clip0_6_15736)">
<path d="M53.8309 29.26C53.6399 29.027 53.3549 28.891 53.0559 28.891H49.2549C48.3169 26.417 47.0949 23.993 45.7059 23.078C40.9009 19.917 28.1559 19.917 23.3509 23.078C21.9609 23.994 20.7439 26.421 19.8009 28.891H15.9999C15.6979 28.891 15.4139 29.027 15.2249 29.26C15.0349 29.492 14.9589 29.799 15.0209 30.094L15.5839 32.822C15.6799 33.287 16.0899 33.619 16.5629 33.619H17.6889C16.6019 34.873 16.0749 36.452 16.0679 38.032C16.0609 39.984 16.8019 41.748 18.1569 42.996C18.1719 43.009 18.1869 43.018 18.2009 43.031V46.848C18.2009 47.675 18.8729 48.348 19.7009 48.348H23.2069C24.0349 48.348 24.7069 47.675 24.7069 46.848V45.314H44.3479V46.848C44.3479 47.675 45.0199 48.348 45.8479 48.348H49.3539C50.1799 48.348 50.8539 47.675 50.8539 46.848V43.106C52.2919 41.789 52.9789 39.977 52.9879 38.168C52.9939 36.534 52.4429 34.897 51.2919 33.617H52.4929C52.9679 33.617 53.3779 33.285 53.4719 32.819L54.0359 30.092C54.0939 29.799 54.0209 29.494 53.8309 29.26ZM24.9979 25.583C28.8279 23.062 40.2269 23.062 44.0549 25.583C44.7989 26.071 45.7559 28.044 46.6329 30.46H22.4219C23.2969 28.045 24.2539 26.073 24.9979 25.583ZM20.5119 38.408C20.5119 36.778 21.8339 35.458 23.4629 35.458C25.0939 35.458 26.4139 36.778 26.4139 38.408C26.4139 40.038 25.0939 41.359 23.4629 41.359C21.8339 41.359 20.5119 40.038 20.5119 38.408ZM45.6309 41.359C44.0019 41.359 42.6799 40.038 42.6799 38.408C42.6799 36.778 44.0019 35.458 45.6309 35.458C47.2619 35.458 48.5819 36.778 48.5819 38.408C48.5819 40.038 47.2599 41.359 45.6309 41.359Z" fill="white"/>
</g>
<defs>
<filter id="filter0_b_6_15736" x="-3" y="-3" width="76" height="76" filterUnits="userSpaceOnUse" color-interpolation-filters="sRGB">
<feFlood flood-opacity="0" result="BackgroundImageFix"/>
<feGaussianBlur in="BackgroundImageFix" stdDeviation="1.5"/>
<feComposite in2="SourceAlpha" operator="in" result="effect1_backgroundBlur_6_15736"/>
<feBlend mode="normal" in="SourceGraphic" in2="effect1_backgroundBlur_6_15736" result="shape"/>
</filter>
<clipPath id="clip0_6_15736">
<rect width="39.055" height="39.054" fill="white" transform="translate(15 15)"/>
</clipPath>
</defs>
</svg>
