<svg width="70" height="70" viewBox="0 0 70 70" fill="none" xmlns="http://www.w3.org/2000/svg">
<g filter="url(#filter0_b_6_15794)">
<circle cx="35" cy="35" r="35" fill="black" fill-opacity="0.2"/>
</g>
<path d="M49.5773 36.0767C49.2878 32.8686 47.9011 29.8584 45.6508 27.5535C45.3939 27.3067 45.0515 27.1688 44.6952 27.1688C44.3389 27.1688 43.9964 27.3067 43.7395 27.5535C43.4964 27.7898 43.3519 28.1095 43.335 28.4481C43.3182 28.7867 43.4303 29.1191 43.6487 29.3784C44.2118 30.0485 44.7072 30.7727 45.1276 31.5405C46.1392 33.3404 46.5582 35.4132 46.3254 37.4647C46.0925 39.5162 45.2195 41.4423 43.8303 42.9697C43.2384 43.6041 42.5719 44.1645 41.8454 44.6389V40.1892C41.8325 35.3286 37.413 33.2702 37.2314 33.2011C34.2562 31.8216 32.7946 28.4011 32.639 28.0119C31.9168 23.8605 29.4606 22.533 28.5698 22.1784C28.2454 21.1621 27.4108 19.9902 25.3352 19.8648C25.2538 19.8606 25.1728 19.8795 25.1016 19.9193C25.0305 19.959 24.972 20.0181 24.933 20.0897C24.893 20.1613 24.8742 20.2429 24.8788 20.3248C24.8834 20.4068 24.9112 20.4857 24.959 20.5524C25.2158 20.9549 25.3482 21.4242 25.3395 21.9016C24.5092 22.1135 22.4811 22.8486 22.2303 25.0151C22.2303 25.0411 22.1827 25.6508 21.2184 26.2302C21.0473 26.3061 20.8933 26.4156 20.7655 26.5523C20.6377 26.6891 20.5388 26.8501 20.4746 27.0259C20.28 27.5578 20.4054 28.2065 20.8725 28.9762C20.9287 29.054 22.1698 30.7665 24.2887 30.4984C24.28 30.9546 24.1811 31.4045 23.9978 31.8224C23.8145 32.2402 23.5504 32.6176 23.2206 32.933C23.1869 32.9687 23.1592 33.0096 23.1384 33.054C22.7387 34.1391 22.5921 35.3012 22.7097 36.4515C22.8274 37.6019 23.2062 38.7102 23.8173 39.6919C23.8388 39.7295 23.8666 39.7632 23.8995 39.7913C23.9254 39.813 26.2087 41.8324 25.5427 43.8908L24.7557 46.1784C24.7316 46.2515 24.6921 46.3187 24.6399 46.3754C24.5877 46.4321 24.524 46.477 24.453 46.507L23.2681 47.0086C22.9356 47.1525 22.6626 47.4064 22.4951 47.7277C22.3276 48.049 22.2758 48.4182 22.3483 48.7732C22.4208 49.1282 22.6133 49.4475 22.8934 49.6774C23.1735 49.9073 23.5242 50.0338 23.8865 50.0357H26.1265C26.4267 50.0346 26.7194 49.9427 26.9664 49.7721C27.2134 49.6016 27.403 49.3603 27.5103 49.08L29.093 44.8681C29.5967 45.6528 30.3117 46.2794 31.1557 46.6757L30.4335 46.7665C30.212 46.7939 29.9982 46.8656 29.8049 46.9774C29.6116 47.0891 29.4427 47.2386 29.3084 47.4169C29.1741 47.5952 29.0769 47.7988 29.0229 48.0154C28.9688 48.232 28.9588 48.4573 28.9935 48.6778C29.0619 49.0741 29.2683 49.4335 29.5762 49.6923C29.884 49.9511 30.2735 50.0926 30.6757 50.0919H37.3006C37.6119 50.1221 37.9103 50.1351 38.1654 50.1351C39.0911 50.1537 40.0117 49.9936 40.8768 49.6638C42.8689 48.8814 44.6209 47.5902 45.9579 45.9189C47.0142 44.636 47.8874 43.2127 48.5525 41.6897C49.343 39.9291 49.6947 38.0031 49.5773 36.0767ZM24.9287 25.7935H24.5914C24.4335 25.7804 24.2863 25.7084 24.1791 25.5919C24.0718 25.4753 24.0122 25.3227 24.0122 25.1643C24.0122 25.0059 24.0718 24.8533 24.1791 24.7367C24.2863 24.6202 24.4335 24.5482 24.5914 24.5351H24.9287C25.0157 24.5279 25.1033 24.5388 25.1858 24.5671C25.2684 24.5955 25.3442 24.6406 25.4085 24.6998C25.4727 24.7589 25.524 24.8307 25.5591 24.9107C25.5941 24.9906 25.6122 25.077 25.6122 25.1643C25.6122 25.2516 25.5941 25.338 25.5591 25.4179C25.524 25.4979 25.4727 25.5697 25.4085 25.6288C25.3442 25.688 25.2684 25.7331 25.1858 25.7615C25.1033 25.7898 25.0157 25.8007 24.9287 25.7935Z" fill="white"/>
<defs>
<filter id="filter0_b_6_15794" x="-3" y="-3" width="76" height="76" filterUnits="userSpaceOnUse" color-interpolation-filters="sRGB">
<feFlood flood-opacity="0" result="BackgroundImageFix"/>
<feGaussianBlur in="BackgroundImageFix" stdDeviation="1.5"/>
<feComposite in2="SourceAlpha" operator="in" result="effect1_backgroundBlur_6_15794"/>
<feBlend mode="normal" in="SourceGraphic" in2="effect1_backgroundBlur_6_15794" result="shape"/>
</filter>
</defs>
</svg>
