<svg width="24" height="24" viewBox="0 0 24 24" fill="none" xmlns="http://www.w3.org/2000/svg">
<g clip-path="url(#clip0_283_3361)">
<path d="M12.0037 5.83789C8.6007 5.83789 5.8457 8.59589 5.8457 11.9959C5.8457 15.3989 8.6037 18.1539 12.0037 18.1539C15.4067 18.1539 18.1617 15.3959 18.1617 11.9959C18.1617 8.59289 15.4037 5.83789 12.0037 5.83789ZM12.0037 15.9929C9.7947 15.9929 8.0067 14.2039 8.0067 11.9959C8.0067 9.78789 9.7957 7.99889 12.0037 7.99889C14.2117 7.99889 16.0007 9.78789 16.0007 11.9959C16.0017 14.2039 14.2127 15.9929 12.0037 15.9929Z" fill="white"/>
<path d="M16.948 0.0761191C14.74 -0.0268809 9.27098 -0.0218809 7.06098 0.0761191C5.11898 0.167119 3.40598 0.636119 2.02498 2.01712C-0.283017 4.32512 0.0119831 7.43512 0.0119831 11.9961C0.0119831 16.6641 -0.248017 19.7021 2.02498 21.9751C4.34198 24.2911 7.49698 23.9881 12.004 23.9881C16.628 23.9881 18.224 23.9911 19.859 23.3581C22.082 22.4951 23.76 20.5081 23.924 16.9391C24.028 14.7301 24.022 9.26212 23.924 7.05212C23.726 2.83912 21.465 0.284119 16.948 0.0761191ZM20.443 20.4481C18.93 21.9611 16.831 21.8261 11.975 21.8261C6.97498 21.8261 4.96998 21.9001 3.50698 20.4331C1.82198 18.7561 2.12698 16.0631 2.12698 11.9801C2.12698 6.45512 1.55998 2.47612 7.10498 2.19212C8.37898 2.14712 8.75398 2.13212 11.961 2.13212L12.006 2.16212C17.335 2.16212 21.516 1.60412 21.767 7.14812C21.824 8.41312 21.837 8.79312 21.837 11.9951C21.836 16.9371 21.93 18.9541 20.443 20.4481Z" fill="white"/>
<path d="M18.406 7.03401C19.2008 7.03401 19.845 6.38974 19.845 5.59501C19.845 4.80027 19.2008 4.15601 18.406 4.15601C17.6113 4.15601 16.967 4.80027 16.967 5.59501C16.967 6.38974 17.6113 7.03401 18.406 7.03401Z" fill="white"/>
</g>
<defs>
<clipPath id="clip0_283_3361">
<rect width="24" height="24" fill="white"/>
</clipPath>
</defs>
</svg>
