<svg width="112" height="56" viewBox="0 0 112 56" fill="none" xmlns="http://www.w3.org/2000/svg">
<g clip-path="url(#clip0_283_15222)">
<path d="M19.062 23.7901C22.3997 23.7901 25.1054 20.9828 25.1054 17.5197C25.1054 14.0566 22.3997 11.2493 19.062 11.2493C15.7243 11.2493 13.0186 14.0566 13.0186 17.5197C13.0186 20.9828 15.7243 23.7901 19.062 23.7901Z" fill="#FFA00E"/>
<path d="M39.5488 29.7648C39.5488 26.3042 36.8406 23.4944 33.5054 23.4944C30.1701 23.4944 27.4619 26.3042 27.4619 29.7648C27.4619 33.2254 30.1701 36.0352 33.5054 36.0352C36.8406 36.0352 39.5488 33.2254 39.5488 29.7648Z" fill="#5BC4BD"/>
<path d="M9.86328 36.7056C9.86328 40.1662 12.5714 42.976 15.9067 42.976C19.242 42.976 21.9502 40.1662 21.9502 36.7056C21.9502 33.245 19.242 30.4352 15.9067 30.4352C12.5714 30.4352 9.86328 33.245 9.86328 36.7056Z" fill="#F26957"/>
<path d="M11.4499 19.7577C11.3169 19.2746 11.2313 18.7817 11.1838 18.269C11.1648 18.0225 11.1553 17.776 11.1553 17.5295C11.1553 12.9943 14.6997 9.32673 19.0612 9.32673C21.4748 9.32673 23.6318 10.4408 25.0761 12.2056C25.4847 12.7084 25.8458 13.2605 26.1309 13.8521C33.2671 14.7098 32.1933 11.9788 35.5571 8.43941C32.1648 6.04363 28.1168 4.58448 23.7458 4.39715C23.4227 4.3873 23.0997 4.37744 22.7766 4.37744C16.7997 4.37744 11.3549 6.76335 7.2974 10.6774C4.21866 13.6352 1.92862 17.4704 0.797852 21.7986C5.41595 22.4887 6.20464 25.2296 11.4499 19.7577Z" fill="#FFA00E"/>
<path d="M21.5986 42.4042C21.3231 42.7098 21.019 42.9859 20.6959 43.2422C19.3656 44.2873 17.7122 44.9084 15.9163 44.9084C11.5452 44.9084 8.0009 41.2309 8.0009 36.7056C8.0009 35.8183 8.13393 34.9704 8.38099 34.1718C8.59955 33.4619 8.91312 32.7915 9.30271 32.1901C6.42353 25.4661 4.68462 27.8126 0.0380085 26.5901C0.00950168 27.0633 0 27.5267 0 28.0098C0 32.0619 0.978733 35.8675 2.70814 39.1999C5.54932 44.6816 10.424 48.8718 16.2869 50.676C18.3489 51.307 20.5249 51.6521 22.7769 51.6521C24.8294 51.6521 26.8249 51.3661 28.7253 50.8337C27.0434 46.3873 28.8584 44.3168 21.5986 42.4042Z" fill="#F26957"/>
<path d="M44.9931 22.7352C44.0334 18.338 41.8859 14.414 38.9307 11.3281C36.0515 15.114 33.3814 14.4831 35.2533 21.7591C35.909 21.907 36.5361 22.1535 37.1253 22.4591C39.6814 23.8197 41.4203 26.5802 41.4203 29.7647C41.4203 33.9056 38.4651 37.3366 34.6167 37.8887C34.2556 37.938 33.8945 37.9676 33.5144 37.9676C33.3434 37.9676 33.1723 37.9577 33.0013 37.9478C28.5827 44.0704 31.4429 44.4352 32.7257 49.2661C36.5361 47.3436 39.7574 44.3464 42.0189 40.669C44.2615 37.0112 45.5633 32.6633 45.5633 28C45.5633 26.1957 45.3637 24.4309 44.9931 22.7352Z" fill="#5BC4BD"/>
<path d="M50.2295 14.7887C50.2295 14.5619 50.334 14.4436 50.5526 14.4436H58.6295C58.848 14.4436 58.9526 14.5619 58.9526 14.7887V16.7408C58.9526 16.9675 58.848 17.0859 58.6295 17.0859H55.9879V25.5746C55.9879 25.8014 55.8738 25.9098 55.6553 25.9098H53.5078C53.2892 25.9098 53.1847 25.8014 53.1847 25.5746V17.0859H50.5526C50.334 17.0859 50.2295 16.9675 50.2295 16.7408V14.7887Z" fill="#F26957"/>
<path d="M65.9557 22.676C66.0412 22.676 66.1172 22.7155 66.1647 22.7845L67.115 24.1549C67.191 24.2634 67.229 24.3619 67.229 24.4408C67.229 24.5197 67.1815 24.5986 67.096 24.6774C66.7824 24.9634 66.4783 25.2 66.1742 25.3774C65.8702 25.5648 65.5661 25.7028 65.2715 25.8014C64.977 25.9 64.6824 25.969 64.3973 26.0084C64.1123 26.0479 63.8177 26.0676 63.5326 26.0676C62.896 26.0676 62.2783 25.9394 61.6892 25.6732C61.1 25.407 60.5774 25.0521 60.1308 24.5887C59.6842 24.1352 59.3231 23.6028 59.057 22.9817C58.791 22.3704 58.658 21.7098 58.658 21.0197C58.658 20.3197 58.772 19.669 59.0095 19.0577C59.2376 18.4464 59.5702 17.9141 59.9883 17.4507C60.4064 16.9873 60.91 16.6324 61.5086 16.3662C62.0978 16.1 62.7439 15.9718 63.4566 15.9718C63.7512 15.9718 64.0647 16.0112 64.3973 16.0901C64.7299 16.169 65.0625 16.2972 65.3856 16.4648C65.7086 16.6324 66.0222 16.8591 66.3263 17.1253C66.6304 17.3915 66.8869 17.707 67.115 18.0817C67.343 18.4563 67.5236 18.8803 67.6661 19.3535C67.7991 19.8267 67.8752 20.369 67.8752 20.9605C67.8752 21.1676 67.8562 21.3352 67.8181 21.4634C67.7801 21.5915 67.7136 21.6901 67.6281 21.7591C67.5331 21.8281 67.4191 21.8676 67.286 21.8972C67.1435 21.9169 66.9724 21.9366 66.7729 21.9366H61.4041C61.4801 22.2028 61.5751 22.4394 61.7177 22.6465C61.8507 22.8535 62.0123 23.031 62.2023 23.1788C62.3924 23.3267 62.5919 23.445 62.82 23.5239C63.048 23.6028 63.2856 23.6422 63.5326 23.6422C63.8937 23.6422 64.1883 23.6126 64.4163 23.5535C64.6444 23.4943 64.8439 23.4253 65.0055 23.3366C65.167 23.2479 65.3095 23.1493 65.4236 23.0507C65.5376 22.9521 65.6516 22.8535 65.7657 22.7648C65.8227 22.7056 65.8892 22.676 65.9557 22.676ZM62.7819 18.4169C62.5919 18.4957 62.4209 18.5943 62.2688 18.7225C62.1168 18.8507 61.9742 18.9986 61.8602 19.176C61.7367 19.3436 61.6417 19.531 61.5466 19.7281H65.3095C65.11 19.2746 64.8534 18.9197 64.5209 18.6732C64.1883 18.4267 63.8082 18.2986 63.3806 18.2986C63.162 18.2986 62.9625 18.338 62.7819 18.4169Z" fill="#F26957"/>
<path d="M74.9733 20.0535L78.8788 25.3183C78.9358 25.3972 78.9643 25.4662 78.9738 25.5352C78.9833 25.6042 78.9738 25.6634 78.9453 25.7225C78.9168 25.7817 78.8788 25.8211 78.8313 25.8507C78.7837 25.8803 78.7172 25.9 78.6412 25.9H76.1801C76.0756 25.9 75.9806 25.8704 75.9235 25.8211C75.857 25.7718 75.781 25.6831 75.705 25.5549L73.2059 21.9465L72.3412 22.8831V25.5746C72.3412 25.7915 72.2367 25.9 72.0276 25.9H69.8231C69.6141 25.9 69.5095 25.7915 69.5095 25.5746V13.5169C69.5095 13.3 69.6141 13.1915 69.8231 13.1915H72.0276C72.2367 13.1915 72.3412 13.3 72.3412 13.5169V19.4324L75.0208 16.307C75.1254 16.1887 75.2204 16.1197 75.2964 16.0901C75.3819 16.0704 75.477 16.0507 75.6005 16.0507H77.805C77.9 16.0507 77.976 16.0704 78.0331 16.1098C78.0996 16.1493 78.1376 16.1986 78.1661 16.2577C78.1946 16.3169 78.2041 16.376 78.1946 16.4352C78.1851 16.4943 78.1566 16.5535 78.1091 16.6028L74.9733 20.0535Z" fill="#F26957"/>
<path d="M79.9997 12.8366C79.9997 12.6592 80.0472 12.5014 80.1328 12.3732C80.2183 12.2451 80.3798 12.1859 80.6174 12.1859H82.3278C82.5273 12.1859 82.6699 12.2451 82.7554 12.3634C82.8409 12.4817 82.8789 12.6394 82.8789 12.8366V14.2958C82.8789 14.5127 82.8314 14.6606 82.7364 14.7394C82.6414 14.8183 82.4988 14.8577 82.3183 14.8577H80.6079C80.4273 14.8577 80.2753 14.8183 80.1613 14.7493C80.0473 14.6704 79.9902 14.5225 79.9902 14.3056V12.8366H79.9997ZM80.0092 16.3958C80.0092 16.2873 80.0473 16.1986 80.1138 16.1394C80.1803 16.0803 80.2563 16.0507 80.3323 16.0507H82.5463C82.6414 16.0507 82.7174 16.0803 82.7744 16.1394C82.8409 16.1986 82.8694 16.2873 82.8694 16.3859V25.5648C82.8694 25.7915 82.7649 25.9 82.5463 25.9H80.3323C80.1138 25.9 80.0092 25.7915 80.0092 25.5648V16.3958Z" fill="#F26957"/>
<path d="M90.8332 20.4873C90.8332 20.231 90.7952 20.0042 90.7191 19.7873C90.6431 19.5704 90.5386 19.3831 90.3961 19.2155C90.2535 19.0578 90.0825 18.9296 89.8924 18.8408C89.6929 18.7521 89.4648 18.7028 89.2178 18.7028C88.9612 18.7028 88.7332 18.7521 88.5241 18.8408C88.3151 18.9296 88.1345 19.0578 87.9825 19.2155C87.8305 19.3732 87.7164 19.5606 87.6309 19.7873C87.5454 20.0141 87.5074 20.2408 87.5074 20.4873V25.4761C87.5074 25.5352 87.4884 25.5944 87.4599 25.6437C87.4314 25.693 87.3839 25.7423 87.3363 25.7817C87.2888 25.8211 87.2318 25.8507 87.1653 25.8803C87.1083 25.9 87.0513 25.9197 86.9942 25.9197H84.9988C84.7612 25.9197 84.6377 25.8014 84.6377 25.5549V16.4254C84.6377 16.1887 84.7517 16.0606 84.9988 16.0606H86.3766C86.4906 16.0606 86.6047 16.1 86.7092 16.1887C86.8137 16.2775 86.8802 16.3761 86.9087 16.4944L87.1178 17.3817C87.3078 17.1254 87.5169 16.9085 87.7449 16.7211C87.973 16.5437 88.22 16.3859 88.4671 16.2775C88.7237 16.1592 88.9802 16.0803 89.2463 16.0211C89.5124 15.9718 89.7879 15.9423 90.054 15.9423C90.263 15.9423 90.4911 15.9718 90.7476 16.031C91.0042 16.0901 91.2703 16.1789 91.5268 16.3169C91.7834 16.4451 92.04 16.6225 92.287 16.8296C92.5341 17.0366 92.7526 17.3028 92.9522 17.6183C93.1422 17.9338 93.3038 18.2986 93.4178 18.7225C93.5318 19.1465 93.5888 19.6296 93.5888 20.1817V25.5648C93.5888 25.8014 93.4748 25.9197 93.2467 25.9197H91.1657C90.9282 25.9197 90.8047 25.8014 90.8047 25.5648V20.4873H90.8332Z" fill="#F26957"/>
<path d="M53.6214 37.0901L52.9942 43.3014C52.9847 43.4098 52.9562 43.4986 52.9087 43.5577C52.8612 43.6169 52.7852 43.6465 52.6712 43.6465H50.5522C50.4476 43.6465 50.3621 43.6169 50.2956 43.5577C50.2386 43.4986 50.2101 43.4197 50.2196 43.3014L51.3313 32.5155C51.3408 32.407 51.3693 32.3183 51.4169 32.2591C51.4644 32.2 51.5404 32.1704 51.6544 32.1704H54.258C54.3626 32.1704 54.4386 32.2 54.4766 32.2591C54.5146 32.3183 54.5526 32.407 54.5811 32.5253L56.6146 39.4563L58.6481 32.5253C58.6861 32.407 58.7241 32.3183 58.7526 32.2591C58.7906 32.2 58.8571 32.1704 58.9712 32.1704H61.5748C61.6793 32.1704 61.7648 32.2 61.8123 32.2591C61.8598 32.3183 61.8883 32.407 61.8979 32.5155L63.0096 43.3014C63.0191 43.4098 62.9906 43.4986 62.9336 43.5577C62.8766 43.6169 62.7911 43.6465 62.677 43.6465H60.558C60.4535 43.6465 60.368 43.6169 60.3205 43.5577C60.273 43.4986 60.2445 43.4197 60.235 43.3014L59.6268 37.2479L57.8879 43.2915C57.8499 43.4296 57.8024 43.5282 57.7549 43.5774C57.7074 43.6267 57.6313 43.6465 57.5268 43.6465H55.6834C55.5788 43.6465 55.4933 43.6267 55.4458 43.5774C55.3983 43.5282 55.3508 43.4394 55.3223 43.2915L53.6214 37.0901Z" fill="#F26957"/>
<path d="M74.3938 43.3015C74.3938 43.5282 74.2797 43.6466 74.0612 43.6466H72.3603C72.2843 43.6466 72.2177 43.617 72.1512 43.5677C72.0942 43.5184 72.0372 43.4494 71.9992 43.3705C71.9517 43.2916 71.9137 43.2128 71.8852 43.1339C71.8567 43.055 71.8282 42.9761 71.8092 42.917L71.7046 42.6409C71.3625 43.0156 70.9729 43.3015 70.5453 43.4987C70.1082 43.7057 69.6426 43.8043 69.139 43.8043C68.5119 43.8043 67.9132 43.686 67.3336 43.4395C66.7539 43.2029 66.2503 42.8578 65.8037 42.4142C65.3571 41.9705 65.0055 41.4381 64.749 40.817C64.4924 40.1959 64.3594 39.5057 64.3594 38.7466C64.3594 38.0466 64.4829 37.3959 64.73 36.7747C64.977 36.1536 65.3096 35.6212 65.7372 35.1578C66.1648 34.6944 66.6684 34.3395 67.2576 34.0733C67.8372 33.8071 68.4739 33.679 69.139 33.679C69.7092 33.679 70.2223 33.7973 70.6784 34.024C71.125 34.2606 71.5146 34.5761 71.8472 34.9804L72.1417 34.1325C72.1797 34.0043 72.2177 33.9254 72.2558 33.8663C72.2938 33.817 72.3603 33.7874 72.4743 33.7874H74.0517C74.2702 33.7874 74.3843 33.9057 74.3843 34.1325V43.3015H74.3938ZM71.372 37.8001C71.258 37.5043 71.0965 37.248 70.8874 37.0212C70.6879 36.7945 70.4408 36.617 70.1653 36.4888C69.8897 36.3606 69.5856 36.2916 69.272 36.2916C68.9775 36.2916 68.6924 36.3508 68.4263 36.4691C68.1603 36.5874 67.9227 36.755 67.7137 36.9719C67.5141 37.1888 67.3431 37.4452 67.2291 37.7409C67.1055 38.0367 67.0485 38.3719 67.0485 38.7367C67.0485 39.0818 67.1055 39.4071 67.2196 39.7029C67.3336 39.9987 67.4856 40.255 67.6852 40.4719C67.8847 40.6888 68.1128 40.8564 68.3883 40.9846C68.6639 41.1128 68.9585 41.1719 69.272 41.1719C69.5951 41.1719 69.8897 41.1029 70.1653 40.9747C70.4408 40.8466 70.6784 40.6691 70.8874 40.4522C71.087 40.2353 71.2485 39.9691 71.372 39.6733C71.4861 39.3776 71.5431 39.0621 71.5431 38.7367C71.5431 38.4114 71.4861 38.0959 71.372 37.8001Z" fill="#F26957"/>
<path d="M76.1511 34.1423C76.1511 33.9056 76.2652 33.7873 76.4837 33.7873H77.757C77.871 33.7873 77.9756 33.807 78.0611 33.8465C78.1561 33.8859 78.2321 33.9944 78.3176 34.1915L78.6407 35.0493C78.7928 34.8718 78.9448 34.7042 79.0968 34.5366C79.2394 34.369 79.4009 34.231 79.5814 34.1028C79.7525 33.9746 79.952 33.8761 80.1706 33.7972C80.3891 33.7183 80.6457 33.6887 80.9498 33.6887C81.2633 33.6887 81.5579 33.738 81.8525 33.8465C82.1375 33.9549 82.4036 34.0732 82.6412 34.2113C82.8787 34.3493 83.0783 34.4873 83.2493 34.6253C83.4204 34.7634 83.5344 34.8521 83.5914 34.9113C83.7244 35.0296 83.7814 35.138 83.7814 35.2268C83.7814 35.3155 83.7434 35.4239 83.6769 35.5324L82.7077 36.9521C82.6412 37.0507 82.5651 37.1 82.4796 37.1C82.4036 37.1 82.3181 37.0606 82.2421 36.9915C82.1756 36.9324 82.09 36.8634 81.995 36.7746C81.9 36.6859 81.786 36.607 81.6624 36.5282C81.5389 36.4493 81.3964 36.3803 81.2348 36.331C81.0733 36.2817 80.8928 36.2521 80.7027 36.2521C80.4747 36.2521 80.2561 36.2915 80.0566 36.3606C79.857 36.4296 79.6765 36.538 79.5244 36.6859C79.3724 36.8338 79.2489 37.0113 79.1633 37.2282C79.0778 37.4451 79.0303 37.6915 79.0303 37.9775V43.2915C79.0303 43.5183 78.9163 43.6366 78.6882 43.6366H76.5027C76.2842 43.6366 76.1701 43.5183 76.1701 43.2915V34.1423H76.1511Z" fill="#F26957"/>
<path d="M90.1865 37.7902L94.0919 43.055C94.1489 43.1338 94.1774 43.2028 94.1869 43.2719C94.1964 43.3409 94.1869 43.4 94.1584 43.4592C94.1299 43.5183 94.0919 43.5578 94.0444 43.5873C93.9969 43.6169 93.9303 43.6366 93.8543 43.6366H91.3932C91.2887 43.6366 91.1937 43.6071 91.1367 43.5578C91.0702 43.5085 90.9941 43.4197 90.9181 43.2916L88.419 39.6831L87.5543 40.6197V43.3113C87.5543 43.5282 87.4498 43.6366 87.2408 43.6366H85.0362C84.8272 43.6366 84.7227 43.5282 84.7227 43.3113V31.2437C84.7227 31.0268 84.8272 30.9183 85.0362 30.9183H87.2408C87.4498 30.9183 87.5543 31.0268 87.5543 31.2437V37.1592L90.234 34.0338C90.3385 33.9155 90.4335 33.8465 90.5095 33.8169C90.5855 33.7874 90.6901 33.7775 90.8136 33.7775H93.0181C93.1131 33.7775 93.1892 33.7972 93.2462 33.8366C93.3127 33.8761 93.3507 33.9254 93.3792 33.9845C93.4077 34.0437 93.4172 34.1028 93.4077 34.162C93.3982 34.2212 93.3697 34.2803 93.3222 34.3296L90.1865 37.7902Z" fill="#F26957"/>
<path d="M101.978 40.4127C102.064 40.4127 102.14 40.4522 102.187 40.5212L103.138 41.8916C103.214 42 103.252 42.0986 103.252 42.1775C103.252 42.2564 103.204 42.3352 103.119 42.4141C102.805 42.7 102.501 42.9367 102.197 43.1141C101.893 43.3015 101.589 43.4395 101.294 43.5381C101 43.6367 100.705 43.7057 100.42 43.7451C100.135 43.7845 99.8404 43.8043 99.5553 43.8043C98.9187 43.8043 98.301 43.6761 97.7119 43.4099C97.1227 43.1437 96.6001 42.7888 96.1535 42.3254C95.7069 41.8719 95.3458 41.3395 95.0798 40.7184C94.8137 40.1071 94.6807 39.4465 94.6807 38.7564C94.6807 38.0564 94.7947 37.4057 95.0323 36.7944C95.2603 36.1831 95.5929 35.6507 96.011 35.1874C96.4291 34.724 96.9422 34.3691 97.5313 34.1029C98.1205 33.8367 98.7666 33.7085 99.4793 33.7085C99.7739 33.7085 100.087 33.7479 100.42 33.8268C100.753 33.9057 101.085 34.0338 101.408 34.2015C101.731 34.3691 102.045 34.5958 102.349 34.862C102.653 35.1282 102.91 35.4437 103.138 35.8184C103.366 36.193 103.546 36.6169 103.689 37.0902C103.822 37.5634 103.898 38.1057 103.898 38.6972C103.898 38.9043 103.879 39.0719 103.841 39.2C103.803 39.3282 103.736 39.4268 103.651 39.4958C103.556 39.5648 103.442 39.6043 103.309 39.6338C103.166 39.6536 102.995 39.6733 102.796 39.6733H97.4268C97.5028 39.9395 97.5979 40.1761 97.7404 40.3831C97.8734 40.5902 98.035 40.7676 98.225 40.9155C98.4151 41.0634 98.6146 41.1817 98.8427 41.2606C99.0707 41.3395 99.3083 41.3789 99.5553 41.3789C99.9164 41.3789 100.211 41.3493 100.439 41.2902C100.667 41.231 100.867 41.162 101.028 41.0733C101.19 40.9845 101.332 40.886 101.446 40.7874C101.56 40.6888 101.674 40.5902 101.788 40.5015C101.845 40.4324 101.912 40.4127 101.978 40.4127ZM98.8046 36.1437C98.6146 36.2226 98.4436 36.3212 98.2915 36.4493C98.1395 36.5775 97.997 36.7254 97.8829 36.9029C97.7594 37.0705 97.6644 37.2578 97.5694 37.455H101.332C101.133 37.0015 100.876 36.6465 100.544 36.4C100.211 36.1536 99.8309 36.0254 99.4033 36.0254C99.1847 36.0353 98.9852 36.0747 98.8046 36.1437Z" fill="#F26957"/>
<path d="M108.744 36.5282V43.3014C108.744 43.5282 108.63 43.6366 108.412 43.6366H106.188C105.97 43.6366 105.865 43.5282 105.865 43.3014V36.5282H104.829C104.63 36.5282 104.525 36.4197 104.525 36.2127V34.1324C104.525 34.0437 104.554 33.9648 104.601 33.9155C104.649 33.8563 104.725 33.8268 104.829 33.8268H105.865V32.2394C105.865 32.131 105.884 32.0324 105.932 31.9634C105.979 31.8944 106.074 31.8352 106.226 31.7761L108.174 31.1056C108.231 31.0859 108.288 31.076 108.355 31.076C108.469 31.076 108.564 31.1155 108.64 31.1944C108.716 31.2732 108.754 31.3915 108.754 31.5592V33.8169H109.999C110.094 33.8169 110.17 33.8465 110.217 33.9155C110.265 33.9845 110.293 34.0535 110.293 34.1225V36.2028C110.293 36.4099 110.198 36.5183 109.999 36.5183H108.744V36.5282Z" fill="#F26957"/>
</g>
<defs>
<clipPath id="clip0_283_15222">
<rect width="112" height="56" fill="white"/>
</clipPath>
</defs>
</svg>
