<svg width="660" height="565" viewBox="0 0 660 565" fill="none" xmlns="http://www.w3.org/2000/svg">
<path d="M535.487 565H116.203C75.069 565.119 33.4093 533.778 13.6879 494.481C-6.03354 455.185 -4.31357 404.205 18.0029 366.59C34.9396 338.042 63.2888 314.987 66.9568 281.238C69.595 256.965 58.4454 233.806 52.4558 210.248C40.366 162.706 50.339 109.154 78.4811 70.4906C106.623 31.8273 152.235 9.0158 197.515 10.9591C259.99 13.6409 316.406 59.7961 378.919 58.5229C451.317 57.0484 515.519 -7.85439 587.493 0.792895C624.026 5.18241 657.986 29.9689 675.59 65.0914C693.193 100.214 693.96 144.716 677.579 180.533C668.182 201.078 653.589 218.818 646.938 240.599C632.507 287.86 658.799 337.368 664.366 386.802C668.899 427.052 658.896 469.031 636.963 501.808C615.032 534.586 572.738 565 535.487 565Z" fill="#FFE7B9"/>
<path d="M528.822 430.712C501.87 442.261 481.076 464.753 457.5 482.457C433.924 500.16 403.341 513.563 375.929 503.217C351.673 494.063 335.326 468.171 310.161 462.145C288.41 456.935 266.311 468.055 247.348 480.179C228.386 492.302 208.981 506.246 186.677 507.429C156.686 509.02 130.648 487.325 101.697 479.126C65.6387 468.914 24.639 482.359 0 511.008C23.2061 542.203 60.8625 565.1 98.1257 564.997H542.441C581.916 564.997 626.734 534.585 649.977 501.807C673.22 469.03 683.819 427.051 679.016 386.801C678.787 384.885 678.515 382.97 678.225 381.054C659.227 396.17 637.138 407.2 613.753 412.906C585.575 419.783 555.553 419.259 528.822 430.712Z" fill="#FFD596"/>
<path d="M345.01 104.382H67.5977V404.103H345.01V104.382Z" fill="#FFE296"/>
<path d="M331.737 390.467L331.737 118.016L80.8719 118.016L80.8719 390.467L331.737 390.467Z" fill="#FFA00E"/>
<path d="M331.737 118.016H321.782V390.467H331.737V118.016Z" fill="#FFCD6B"/>
<path d="M67.5981 104.382H57.6426V404.103H67.5981V104.382Z" fill="#FFCD6B"/>
<path d="M321.782 118.016H80.8711V177.245H321.782V118.016Z" fill="#FFFAD1"/>
<path d="M640.011 104.382H520.551V197.513H640.011V104.382Z" fill="#FFE296"/>
<path d="M626.737 183.877V118.017L533.824 118.017V183.877H626.737Z" fill="#FFA00E"/>
<path d="M626.737 118.016H616.782V183.877H626.737V118.016Z" fill="#FFCD6B"/>
<path d="M520.551 104.382H510.595V197.513H520.551V104.382Z" fill="#FFCD6B"/>
<path d="M640.011 227.887H520.551V321.019H640.011V227.887Z" fill="#FFE296"/>
<path d="M626.737 307.384V241.523L533.824 241.523V307.384H626.737Z" fill="#FFA00E"/>
<path d="M626.737 241.523H616.782V307.384H626.737V241.523Z" fill="#FFCD6B"/>
<path d="M520.551 227.887H510.595V321.019H520.551V227.887Z" fill="#FFCD6B"/>
<path d="M598.53 393.194H450.312L422.438 565H487.035L518.493 455.008L529.952 565H591.893L602.638 453.908C604.605 433.576 603.217 413.05 598.53 393.194Z" fill="#984058"/>
<path d="M518.494 455.007L481.727 440.918L482.547 442.964C486.37 452.501 494.718 459.333 504.623 461.03L490.171 554.036L518.494 455.007Z" fill="#472948"/>
<path opacity="0.4" d="M598.531 393.194H450.312L437.538 471.929L501.269 448.407L504.762 399.072L598.531 393.194Z" fill="#422C4F"/>
<path d="M555.191 229.999C567.739 187.226 571.083 141.631 564.912 97.4104C563.302 85.8761 561.009 74.291 556.071 63.8005C551.133 53.31 543.293 43.9102 532.95 39.1242C522.607 34.3382 507.671 33.5008 498.732 40.6735C488.235 32.7597 473.189 32.951 461.744 39.3269C450.298 45.7028 442.284 57.4221 438.091 70.0852C433.898 82.7483 433.198 96.3577 433.643 109.725C434.088 123.093 435.64 136.411 435.8 149.784C436.282 189.918 423.815 230.106 400.814 262.553C452.731 264.007 508.244 252.815 555.191 229.999Z" fill="#6A3649"/>
<path d="M542.258 130.36C531.644 137.617 519.831 143.053 507.874 147.597C491.966 142.987 478.058 134.535 465.025 124.092C467.581 171.111 458.511 218.72 439.111 261.375C469.276 258.737 499.648 252.089 527.981 241.592C538.625 205.671 543.474 167.91 542.258 130.36Z" fill="#422C4F"/>
<path d="M570.657 190.695H463.46L440.337 251.763C436.436 262.069 438.703 273.764 446.151 281.747C451.353 287.324 454.124 294.836 453.825 302.555L450.311 393.195H598.53C593.663 351.835 556.941 338.199 567.559 272.296C578.178 206.391 570.657 190.695 570.657 190.695Z" fill="#6CA8BF"/>
<path d="M522.208 287.975H455.669C460.552 287.975 464.332 283.241 468.642 280.881C473.13 278.423 478.11 275.888 483.079 277.001C487.723 278.041 491.256 282.072 495.825 283.421C500.168 284.704 504.776 283.403 509.261 282.828C513.746 282.254 519.463 284.287 522.208 287.975Z" fill="#468097"/>
<path d="M547.679 212.697L567.924 315.019L562.903 352.711C561.64 362.19 556.557 370.688 548.895 376.129L524.864 393.194H494.999V341.721L512.971 331.836L525.558 287.975L522.145 282.438L547.679 212.697Z" fill="#468097"/>
<path d="M525.031 129.187C525.113 125.413 526.062 121.595 528.162 118.498C530.262 115.4 533.588 113.095 537.245 112.714C540.901 112.332 544.799 114.07 546.674 117.317C548.505 120.488 548.251 124.471 547.553 128.088C546.925 131.341 545.962 134.583 544.162 137.335C542.362 140.088 539.637 142.322 536.465 142.933C533.588 143.488 529.287 142.295 527.237 139.965C525.008 137.432 524.962 132.347 525.031 129.187Z" fill="#F2C9AD"/>
<path d="M539.891 117.778C536.808 118.671 534.106 120.873 532.56 123.754C531.013 126.635 530.641 130.158 531.551 133.312C531.944 134.675 532.678 136.079 533.969 136.593C535.413 137.168 537.093 136.402 538.116 135.208C539.536 133.553 539.978 131.076 539.224 129.011C538.469 126.945 536.55 125.379 534.422 125.092C534.985 122.056 537.247 119.253 539.891 117.778Z" fill="#EBA58E"/>
<path d="M463.46 190.695C450.72 190.695 439.276 198.696 434.603 210.871L420.446 247.752L440.338 251.764L463.46 190.695Z" fill="#6CA8BF"/>
<path d="M440.338 251.763L455.67 211.271L432.368 250.155L440.338 251.763Z" fill="#468097"/>
<path d="M496.326 168.552V190.695H488.561L490.773 199.374C492.774 207.223 499.678 212.697 507.577 212.697C514.25 212.697 520.334 208.77 523.228 202.592L528.802 190.695L526.951 141.793L496.326 168.552Z" fill="#F2C9AD"/>
<path d="M526.949 141.793L496.326 168.552V188.495C511.424 188.495 516.687 172.236 527.401 153.723L526.949 141.793Z" fill="#EBA58E"/>
<path d="M398.324 301.497H475.752C477.95 301.497 479.734 303.329 479.734 305.588V310.929C479.734 313.187 477.95 315.019 475.752 315.019H398.324C396.125 315.019 394.342 313.187 394.342 310.929V305.588C394.342 303.328 396.125 301.497 398.324 301.497Z" fill="#495375"/>
<path d="M413.7 301.497H325.764C323.565 301.497 321.782 303.329 321.782 305.588V310.929C321.782 313.187 323.565 315.019 325.764 315.019H413.7C415.898 315.019 417.682 313.187 417.682 310.929V305.588C417.682 303.328 415.898 301.497 413.7 301.497Z" fill="#797C99"/>
<path d="M393.79 287.975H468.451C470.65 287.975 472.433 289.807 472.433 292.066V297.407C472.433 299.665 470.65 301.497 468.451 301.497H393.79C391.591 301.497 389.808 299.665 389.808 297.407V292.066C389.808 289.807 391.59 287.975 393.79 287.975Z" fill="#E8916A"/>
<path d="M409.165 287.975H331.737C329.538 287.975 327.755 289.807 327.755 292.066V297.407C327.755 299.665 329.538 301.497 331.737 301.497H409.165C411.364 301.497 413.147 299.665 413.147 297.407V292.066C413.147 289.807 411.365 287.975 409.165 287.975Z" fill="#F7DD8C"/>
<path d="M390.892 274.453H463.46C465.659 274.453 467.442 276.285 467.442 278.544V283.885C467.442 286.143 465.659 287.975 463.46 287.975H390.892C388.693 287.975 386.91 286.143 386.91 283.885V278.544C386.91 276.285 388.693 274.453 390.892 274.453Z" fill="#A34262"/>
<path d="M406.266 274.453H338.374C336.175 274.453 334.392 276.285 334.392 278.544V283.885C334.392 286.143 336.175 287.975 338.374 287.975H406.266C408.465 287.975 410.248 286.143 410.248 283.885V278.544C410.248 276.285 408.466 274.453 406.266 274.453Z" fill="#CC6164"/>
<path d="M387.477 260.932H454.42C460.033 260.932 461.816 262.764 461.816 265.023V270.364C461.816 272.623 460.033 274.454 454.42 274.454H387.477C388.693 274.454 386.91 272.623 386.91 270.364V265.023C386.91 262.763 388.693 260.932 387.477 260.932Z" fill="#56438C"/>
<path d="M402.853 260.932H345.232C343.034 260.932 341.25 262.764 341.25 265.023V270.364C341.25 272.623 343.034 274.454 345.232 274.454H402.853C405.052 274.454 406.835 272.623 406.835 270.364V265.023C406.835 262.763 405.052 260.932 402.853 260.932Z" fill="#6C6FC3"/>
<path d="M425.092 315.019H306.518V443.645H425.092V315.019Z" fill="#DE9547"/>
<path d="M425.092 443.645H494.999V315.018H425.092V443.645Z" fill="#BD704D"/>
<path opacity="0.2" d="M425.093 315.019V443.645H495V404.103L457.998 389.519C447.936 385.554 440.377 376.817 437.723 366.087L425.093 315.019Z" fill="#422C4F"/>
<path d="M413.211 333.484L313.218 340.269L315.624 377.683L415.617 370.898L413.211 333.484Z" fill="#FBEED1"/>
<path d="M320.837 368.028L319.634 349.321L330.921 348.555L331.051 350.565L322.028 351.177L322.434 357.498L330.872 356.926L331.002 358.935L322.563 359.508L322.972 365.865L332.141 365.243L332.27 367.253L320.837 368.028ZM336.206 366.986L335.003 348.278L337.268 348.125L337.804 356.455L347.776 355.779L347.241 347.448L349.506 347.294L350.708 366.002L348.443 366.155L347.906 357.788L337.933 358.465L338.471 366.832L336.206 366.986ZM364.569 350.97C364.399 350.051 363.909 349.363 363.097 348.904C362.284 348.446 361.312 348.255 360.18 348.332C359.352 348.388 358.636 348.571 358.032 348.881C357.434 349.191 356.977 349.592 356.66 350.084C356.35 350.576 356.213 351.121 356.252 351.717C356.284 352.217 356.43 352.638 356.691 352.981C356.957 353.318 357.286 353.592 357.679 353.804C358.071 354.01 358.48 354.175 358.903 354.299C359.327 354.417 359.715 354.51 360.068 354.578L362 354.96C362.495 355.055 363.049 355.195 363.66 355.38C364.277 355.564 364.872 355.833 365.445 356.185C366.024 356.531 366.512 356.994 366.91 357.572C367.308 358.151 367.535 358.878 367.592 359.755C367.657 360.766 367.45 361.698 366.973 362.55C366.502 363.401 365.777 364.102 364.797 364.651C363.823 365.201 362.618 365.524 361.181 365.621C359.842 365.712 358.668 365.575 357.66 365.209C356.658 364.843 355.852 364.292 355.243 363.556C354.639 362.821 354.268 361.944 354.129 360.926L356.467 360.767C356.573 361.469 356.848 362.038 357.292 362.473C357.741 362.901 358.293 363.206 358.946 363.388C359.606 363.563 360.307 363.626 361.05 363.575C361.914 363.517 362.682 363.324 363.351 362.997C364.021 362.664 364.541 362.231 364.91 361.699C365.279 361.16 365.441 360.55 365.397 359.868C365.358 359.246 365.152 358.753 364.779 358.387C364.407 358.02 363.93 357.735 363.349 357.529C362.767 357.324 362.141 357.153 361.472 357.015L359.128 356.513C357.64 356.192 356.445 355.671 355.542 354.949C354.64 354.227 354.148 353.236 354.067 351.976C354 350.928 354.224 349.996 354.74 349.178C355.262 348.353 355.99 347.692 356.924 347.195C357.864 346.691 358.93 346.398 360.124 346.317C361.329 346.235 362.415 346.379 363.38 346.748C364.345 347.11 365.125 347.644 365.721 348.35C366.323 349.056 366.669 349.879 366.76 350.821L364.569 350.97ZM386.821 354.157C386.948 356.13 386.701 357.859 386.081 359.345C385.461 360.83 384.556 362.005 383.364 362.869C382.172 363.732 380.778 364.218 379.183 364.327C377.588 364.435 376.145 364.141 374.852 363.446C373.56 362.751 372.512 361.709 371.707 360.32C370.902 358.931 370.437 357.25 370.31 355.277C370.183 353.304 370.43 351.575 371.049 350.09C371.669 348.604 372.575 347.43 373.767 346.566C374.959 345.702 376.353 345.216 377.948 345.108C379.543 345 380.986 345.293 382.278 345.988C383.571 346.684 384.619 347.726 385.424 349.114C386.228 350.503 386.694 352.184 386.821 354.157ZM384.629 354.306C384.525 352.686 384.166 351.337 383.553 350.26C382.945 349.182 382.164 348.388 381.208 347.877C380.257 347.367 379.216 347.15 378.084 347.227C376.951 347.304 375.944 347.66 375.061 348.294C374.185 348.929 373.512 349.822 373.042 350.973C372.577 352.124 372.397 353.509 372.502 355.129C372.606 356.749 372.961 358.097 373.569 359.176C374.182 360.253 374.964 361.047 375.914 361.558C376.87 362.068 377.915 362.284 379.047 362.208C380.179 362.131 381.184 361.775 382.06 361.141C382.943 360.506 383.616 359.613 384.08 358.462C384.55 357.311 384.733 355.926 384.629 354.306ZM404.859 343.539L406.061 362.246L403.87 362.395L392.734 348.398L392.551 348.411L393.495 363.099L391.231 363.252L390.028 344.545L392.22 344.396L403.394 358.427L403.577 358.415L402.63 343.69L404.859 343.539Z" fill="#6CA8BC"/>
<path opacity="0.6" d="M367.907 326.836H353.859V339.562H367.907V326.836Z" fill="white"/>
<path d="M374.042 255.932L391.756 217.382C393.311 213.998 397.23 212.534 400.537 214.102L411.598 219.344L421.109 214.415C424.437 212.691 428.492 214.117 430.093 217.576L448.263 256.842L429.076 260.932L374.042 255.932Z" fill="#A64F5A"/>
<path d="M411.599 219.344L395.455 227.71C394.897 219.003 399.099 217.867 411.599 219.344Z" fill="#422C4F"/>
<path d="M379.264 244.569L374.042 255.932L429.076 260.932L448.263 256.84L442.584 244.569H379.264Z" fill="#422C4F"/>
<path d="M475.531 260.932H353.859C367.945 248.164 389.406 244.004 406.838 251.196C413.86 254.093 420.501 258.66 428.056 259.078C436.166 259.526 443.765 255.094 451.825 254.069C459.487 253.095 469.452 256.044 475.531 260.932Z" fill="#A64F5A"/>
<path d="M448.262 112.212L456.157 142.83C459.303 155.029 466.522 165.704 476.553 172.99L478.243 174.217C483.964 178.373 491.075 179.98 497.966 178.677C504.399 177.459 510.151 173.796 514.071 168.415L524.943 153.5C528.298 148.895 529.567 143.031 528.424 137.4C522.856 134.277 519.082 128.603 518.275 122.14L517.291 114.256C503.834 109.985 492.952 99.74 487.638 86.3409L486.222 82.7698C476.106 102.348 457.108 111.273 448.262 112.212Z" fill="#F2C9AD"/>
<path d="M506.399 114.676L485.03 111.896C487.41 110.177 490.266 108.629 493.171 108.444C495.557 108.294 497.931 109.039 500.049 110.175C502.168 111.311 504.515 113.166 506.399 114.676Z" fill="#6A3649"/>
<path d="M496.95 122.835C496.957 125.277 495.649 127.26 494.026 127.265C492.403 127.27 491.082 125.296 491.075 122.854C491.067 120.413 492.376 118.429 493.999 118.424C495.62 118.419 496.942 120.394 496.95 122.835Z" fill="#422C4F"/>
<path d="M452.893 115.431L467.521 112.534C465.88 110.827 463.915 109.294 461.924 109.127C460.289 108.989 458.665 109.748 457.22 110.896C455.773 112.045 454.176 113.911 452.893 115.431Z" fill="#6A3649"/>
<path d="M459.434 123.442C459.434 125.883 460.335 127.862 461.446 127.862C462.558 127.862 463.459 125.883 463.459 123.442C463.459 121.001 462.557 119.021 461.446 119.021C460.335 119.022 459.434 121.001 459.434 123.442Z" fill="#422C4F"/>
<path d="M481.281 145.812C476.746 145.622 472.212 145.433 467.677 145.243C469.399 146.804 471.242 148.401 473.266 149.515C475.755 148.469 478.793 146.857 481.281 145.812Z" fill="#EBA58E"/>
<path d="M500.768 149.634C492.114 152.508 483.461 155.381 474.806 158.255C476.362 160.968 478.995 163.211 481.939 164.087C484.882 164.962 488.147 164.639 490.873 163.202C495.628 160.694 498.507 154.61 500.768 149.634Z" fill="white"/>
<path d="M472.73 122.146C472.54 122.146 472.353 122.064 472.222 121.903L468.029 116.78C467.794 116.491 467.829 116.062 468.11 115.82C468.39 115.58 468.808 115.614 469.045 115.903L473.238 121.026C473.474 121.315 473.438 121.743 473.158 121.987C473.033 122.094 472.882 122.146 472.73 122.146Z" fill="#EBA58E"/>
<path d="M467.723 145.993C467.623 145.993 467.523 145.97 467.428 145.922C467.1 145.755 466.966 145.345 467.127 145.008C469.779 139.504 474.36 127.771 474.407 127.653C474.543 127.303 474.934 127.134 475.269 127.273C475.609 127.414 475.775 127.81 475.638 128.16C475.592 128.279 470.99 140.06 468.316 145.613C468.203 145.853 467.967 145.993 467.723 145.993Z" fill="#EBA58E"/>
<path d="M531.28 284.566L519.334 335.472L455.18 407.285C444.569 400.538 433.677 396.741 427.389 394.918C424.536 394.091 421.636 396.038 421.202 399.049C420.89 401.216 421.96 403.339 423.869 404.312C428.187 406.514 435.674 410.636 438.588 414.102L411.735 442.476C409.545 444.79 409.813 448.55 412.309 450.511C414.017 451.853 416.35 451.988 418.194 450.851L425.094 446.598L439.195 450.396C444.521 451.83 450.18 450.064 453.829 445.829L471.771 425.009L542.548 369.363C550.459 363.144 556.213 354.478 558.965 344.642L571.984 298.087L531.28 284.566Z" fill="#F2C9AD"/>
<path d="M531.279 284.566L571.984 298.088L568.809 309.445L530.613 287.402L531.279 284.566Z" fill="#422C4F"/>
<path d="M578.575 300.277L526.949 283.128L549.129 207.769C552.929 194.861 566.325 187.695 578.798 191.9C590.054 195.694 596.768 207.536 594.429 219.464L578.575 300.277Z" fill="#6CA8BF"/>
<path d="M49.4575 443.645L52.9968 565H134.627L141.025 493.701L149.086 565H219.356L205.64 443.645H49.4575Z" fill="#454F6B"/>
<path d="M141.026 493.701L178.652 475.603L152.548 504.322L156.972 565H149.087L141.026 493.701Z" fill="#422C4F"/>
<path opacity="0.4" d="M211.782 497.985L205.64 443.645H170.687H49.4575L49.73 453.02H177.776L211.782 497.985Z" fill="#422C4F"/>
<path d="M219.355 230.025L253.866 287.975L219.355 330.017L194.578 298.657L205.64 230.025H219.355Z" fill="#CC6164"/>
<path d="M209.457 268.954C209.829 262.491 210.507 255.774 208.242 249.731C207.212 246.986 205.602 244.542 203.645 242.396L194.577 298.654L214.587 323.982C210.141 306.056 208.393 287.423 209.457 268.954Z" fill="#A34262"/>
<path d="M250.608 291.944L275.547 330.017L306.519 353.197V390.922L260.025 365.22C253.802 361.781 248.256 357.183 243.667 351.662L222.498 326.192L250.608 291.944Z" fill="#EBA58E"/>
<path d="M250.609 291.944L252.438 294.736L231.342 336.834L222.496 326.191L250.609 291.944Z" fill="#422C4F"/>
<path d="M142.758 198.72H136.917C118.136 198.72 100.753 209.064 91.5613 225.888C62.4014 279.257 44.5918 369.81 44.5918 443.645H205.642C195.908 349.107 200.333 270.022 219.357 230.025C204.095 198.72 194.959 200.062 181.607 200.062C168.254 200.063 142.758 198.72 142.758 198.72Z" fill="#CC6164"/>
<path d="M197.677 407.284L201.758 394.096L175.112 344.243L168.807 306.61L172.457 304.111L145.386 229.505L92.5332 244.843L107.368 333.088C111.176 355.741 120.35 377.086 134.079 395.239L170.686 443.645H205.64L197.677 407.284Z" fill="#A34262"/>
<path d="M118.92 320.473L162.28 304.11L171.13 347.289L234.177 443.645C250.437 444.668 258.069 463.416 261.719 467.507H282.412C285.808 467.507 288.788 469.829 289.704 473.189C294.298 473.189 298.344 476.29 299.653 480.812L299.88 481.596H295.235L297.005 486.823L249.783 493.583C245.596 494.182 241.411 492.463 238.781 489.063L217.363 461.372L140.137 372.719C135.191 367.04 131.457 360.36 129.178 353.108L118.92 320.473Z" fill="#EBA58E"/>
<path d="M226.545 459.667L239.348 480.19C240.855 482.605 242.923 484.596 245.367 485.984L266.863 498.187C268.9 492.007 266.501 485.202 261.082 481.798L253.257 476.882C260.558 460.179 247.284 454.383 243.468 453.02L226.545 459.667Z" fill="#EBA58E"/>
<path d="M266.863 498.868C266.752 498.868 266.641 498.84 266.542 498.783L245.047 486.579C242.516 485.144 240.352 483.061 238.79 480.558L225.987 460.034C225.789 459.717 225.878 459.296 226.188 459.093C226.495 458.888 226.905 458.981 227.104 459.299L239.907 479.823C241.351 482.136 243.35 484.061 245.688 485.387L266.467 497.185C267.98 491.492 265.695 485.497 260.735 482.381L252.911 477.464C252.626 477.284 252.515 476.916 252.652 476.603C255.015 471.197 255.381 466.473 253.741 462.564C251.527 457.293 246.217 454.725 243.25 453.665C242.904 453.54 242.721 453.151 242.841 452.797C242.962 452.44 243.341 452.256 243.685 452.376C246.86 453.511 252.546 456.273 254.959 462.024C256.696 466.162 256.404 471.067 254.097 476.61L261.427 481.217C267.149 484.812 269.643 491.881 267.491 498.406C267.428 498.597 267.285 498.751 267.102 498.823C267.026 498.853 266.944 498.868 266.863 498.868Z" fill="#E78882"/>
<path d="M292.832 482.232C292.828 482.232 292.823 482.232 292.82 482.232L271.552 481.823C271.186 481.817 270.895 481.505 270.901 481.128C270.907 480.753 271.172 480.413 271.577 480.459L292.844 480.868C293.212 480.874 293.502 481.186 293.495 481.563C293.488 481.936 293.192 482.232 292.832 482.232Z" fill="#E78882"/>
<path d="M270.568 474.778C270.215 474.778 269.922 474.493 269.906 474.129C269.888 473.752 270.172 473.433 270.538 473.417L288.019 472.587C288.386 472.531 288.696 472.86 288.712 473.235C288.729 473.613 288.445 473.931 288.079 473.947L270.599 474.777C270.589 474.778 270.579 474.778 270.568 474.778Z" fill="#E78882"/>
<path d="M162.28 304.11L118.92 320.473L123.255 334.262L163.13 308.258L162.28 304.11Z" fill="#422C4F"/>
<path d="M166.27 302.604L113.105 322.667L92.5327 244.841C88.6297 230.074 96.8982 214.801 111.17 210.419C125.752 205.941 141.099 214.501 145.386 229.504L166.27 302.604Z" fill="#CC6164"/>
<path d="M149.229 156.281C149.229 156.281 145.247 192.926 142.759 198.72C149.086 200.058 154.774 204.265 159.684 208.579C164.595 212.892 169.943 217.289 176.346 218.174C179.765 218.646 183.68 217.818 185.653 214.91C187.206 212.62 187.2 209.496 186.237 206.885C185.274 204.274 183.477 202.086 181.607 200.063C183.243 190.541 186.902 170.598 186.902 170.598L149.229 156.281Z" fill="#EBA58E"/>
<path d="M172.236 191.619C175.648 192.725 179.235 193.244 182.813 193.182C184.584 183.225 186.901 170.598 186.901 170.598L149.229 156.281C149.229 156.281 148.929 159.05 148.441 163.174C149.877 168.759 151.872 174.123 155.115 178.812C159.275 184.828 165.384 189.398 172.236 191.619Z" fill="#E78882"/>
<path d="M217.955 84.8347L222.896 124.748L225.701 115.551C228.897 105.075 227.888 93.7202 222.896 84.0126L217.955 84.8347Z" fill="#422C4F"/>
<path d="M181.999 184.233C165.537 184.233 150.681 174.095 144.3 158.506L140.269 148.657V104.978C140.269 81.5398 158.766 62.5388 181.582 62.5388C204.398 62.5388 222.895 81.5398 222.895 104.978V142.223C222.895 165.425 204.586 184.233 181.999 184.233Z" fill="#EBA58E"/>
<path d="M188.459 109.819C182.082 113.48 175.705 117.142 169.327 120.804C170.512 117.975 172.085 115.031 173.931 112.605C175.775 110.177 178.365 108.196 181.335 107.773C183.495 107.465 186.671 108.536 188.459 109.819Z" fill="#422C4F"/>
<path d="M189.878 125.759C189.878 128.496 188.336 130.714 186.435 130.714C184.533 130.714 182.992 128.496 182.992 125.759C182.992 123.023 184.533 120.805 186.435 120.805C188.336 120.805 189.878 123.023 189.878 125.759Z" fill="#422C4F"/>
<path d="M213.277 109.819C216.227 113.481 219.176 117.142 222.125 120.805C221.577 117.976 220.85 115.032 219.996 112.605C219.143 110.177 217.946 108.196 216.572 107.773C215.573 107.465 214.104 108.536 213.277 109.819Z" fill="#422C4F"/>
<path d="M212.62 125.759C212.62 128.496 213.333 130.714 214.212 130.714C215.091 130.714 215.804 128.496 215.804 125.759C215.804 123.023 215.091 120.805 214.212 120.805C213.333 120.805 212.62 123.023 212.62 125.759Z" fill="#422C4F"/>
<path d="M211.172 145.233C206.429 145.177 201.682 145.595 197.019 146.481C198.225 147.405 199.486 148.651 200.854 149.297C202.221 149.942 203.77 150.287 205.245 149.977C207.548 149.491 209.639 147.066 211.172 145.233Z" fill="#E78882"/>
<path d="M212.507 155.419C202.644 157.408 192.781 159.396 182.918 161.383C185.427 163.212 187.484 165.534 190.309 166.779C193.135 168.025 196.316 168.646 199.311 167.93C202.071 167.27 204.492 165.518 206.439 163.404C208.385 161.29 210.996 157.881 212.507 155.419Z" fill="white"/>
<path d="M142.26 148.952L143.821 147.979C149.135 144.668 152.381 138.747 152.381 132.362V128.84C161.979 120.173 167.479 107.681 167.479 94.5538V88.7872H219.777C228.134 84.589 233.571 76.0127 233.929 66.4621L234.178 59.8126C230.073 61.97 225.31 62.0194 221.098 60.0926C216.885 58.1658 213.292 55.0899 209.586 52.2713C201.801 46.3476 193.178 41.3741 183.782 38.9545C174.383 36.5349 164.134 36.8212 155.344 41.008C146.554 45.1948 139.463 53.566 137.832 63.3762C130.37 63.8905 123.486 69.1199 119.424 75.5705C115.362 82.0212 113.787 89.8653 113.76 97.5473C113.687 117.899 125.25 138.516 142.26 148.952Z" fill="#422C4F"/>
<path d="M145.016 140.063C144.039 136.423 142.21 132.96 139.437 130.483C136.663 128.007 132.89 126.606 129.254 127.154C125.619 127.703 122.252 130.365 121.205 133.985C120.183 137.519 121.378 141.317 122.915 144.649C124.297 147.645 126.003 150.547 128.402 152.765C130.802 154.983 133.975 156.464 137.197 156.262C140.119 156.078 144.006 153.841 145.44 151.068C146.997 148.051 145.833 143.108 145.016 140.063Z" fill="#EBA58E"/>
<path d="M127.893 132.729C131.094 132.822 134.238 134.279 136.423 136.684C138.608 139.09 139.807 142.413 139.675 145.699C139.618 147.12 139.24 148.665 138.111 149.488C136.848 150.409 135.037 150.087 133.759 149.186C131.988 147.937 130.971 145.647 131.212 143.455C131.452 141.263 132.94 139.262 134.936 138.449C133.667 135.647 130.807 133.496 127.893 132.729Z" fill="#E78882"/>
</svg>
