<svg width="40" height="40" viewBox="0 0 40 40" fill="none" xmlns="http://www.w3.org/2000/svg">
<g clip-path="url(#clip0_94_24563)">
<path d="M38.8309 14.2598C38.6399 14.0268 38.3549 13.8908 38.0559 13.8908H34.2549C33.3169 11.4168 32.0949 8.99278 30.7059 8.07778C25.9009 4.91678 13.1559 4.91678 8.35093 8.07778C6.96093 8.99378 5.74393 11.4208 4.80093 13.8908H0.999928C0.697928 13.8908 0.413927 14.0268 0.224928 14.2598C0.0349275 14.4918 -0.0410725 14.7988 0.0209275 15.0938L0.583928 17.8218C0.679928 18.2868 1.08993 18.6188 1.56293 18.6188H2.68893C1.60193 19.8728 1.07493 21.4518 1.06793 23.0318C1.06093 24.9838 1.80193 26.7478 3.15693 27.9958C3.17193 28.0088 3.18693 28.0178 3.20093 28.0308V31.8478C3.20093 32.6748 3.87293 33.3478 4.70093 33.3478H8.20693C9.03493 33.3478 9.70693 32.6748 9.70693 31.8478V30.3138H29.3479V31.8478C29.3479 32.6748 30.0199 33.3478 30.8479 33.3478H34.3539C35.1799 33.3478 35.8539 32.6748 35.8539 31.8478V28.1058C37.2919 26.7888 37.9789 24.9768 37.9879 23.1678C37.9939 21.5338 37.4429 19.8968 36.2919 18.6168H37.4929C37.9679 18.6168 38.3779 18.2848 38.4719 17.8188L39.0359 15.0918C39.0939 14.7988 39.0209 14.4938 38.8309 14.2598ZM9.99793 10.5828C13.8279 8.06178 25.2269 8.06178 29.0549 10.5828C29.7989 11.0708 30.7559 13.0438 31.6329 15.4598H7.42193C8.29693 13.0448 9.25393 11.0728 9.99793 10.5828ZM5.51193 23.4078C5.51193 21.7778 6.83393 20.4578 8.46293 20.4578C10.0939 20.4578 11.4139 21.7778 11.4139 23.4078C11.4139 25.0378 10.0939 26.3588 8.46293 26.3588C6.83393 26.3588 5.51193 25.0378 5.51193 23.4078ZM30.6309 26.3588C29.0019 26.3588 27.6799 25.0378 27.6799 23.4078C27.6799 21.7778 29.0019 20.4578 30.6309 20.4578C32.2619 20.4578 33.5819 21.7778 33.5819 23.4078C33.5819 25.0378 32.2599 26.3588 30.6309 26.3588Z" fill="white"/>
</g>
<defs>
<clipPath id="clip0_94_24563">
<rect width="39.055" height="39.054" fill="white"/>
</clipPath>
</defs>
</svg>
