<svg width="32" height="32" viewBox="0 0 32 32" fill="none" xmlns="http://www.w3.org/2000/svg">
<g clip-path="url(#clip0_94_24555)">
<path d="M31.9992 12.9913C31.999 12.6799 31.9883 12.3701 31.9679 12.0623C30.5507 12.0623 6.45531 12.0623 5.69251 12.0623L4.48436 8.1358C4.01813 6.62066 2.55967 5.5625 0.937717 5.5625C0.419982 5.5625 0.000244141 5.98224 0.000244141 6.49997C0.000244141 7.01771 0.419982 7.43744 0.937717 7.43744C1.73157 7.43744 2.46948 7.96305 2.69229 8.68716C4.24462 13.7321 4.09387 13.2445 4.1135 13.3021C4.14368 13.3903 4.30106 13.8298 5.87676 18.2418C6.45249 19.8539 8.26375 20.937 10.3838 20.937H13.615L12.7398 23.1249C10.0129 22.665 7.56252 24.7781 7.56252 27.4994C7.56252 29.9608 9.55571 31.9992 11.9999 31.9992C14.1481 31.9992 15.9157 30.4343 16.3385 28.4368H19.661C19.8369 29.2678 20.2448 30.0361 20.8539 30.6602C22.5972 32.4466 25.4015 32.4471 27.1453 30.6602C27.9782 29.8067 28.437 28.6842 28.437 27.4994C28.437 24.7776 25.9861 22.6651 23.2597 23.1249L22.3843 20.937H25.6156C27.7334 20.937 29.5429 19.8562 30.1207 18.247C32.0569 13.0117 31.9992 13.234 31.9992 12.9913ZM19.6627 26.5619H16.3367C16.0916 25.4271 15.412 24.4521 14.4804 23.8218L15.6345 20.937H20.365L21.519 23.8218C20.5875 24.4521 19.9078 25.4271 19.6627 26.5619Z" fill="white"/>
<path d="M31.7156 10.1872C30.5591 4.54087 25.8535 0 19.9997 0H18.4998C18.0957 0 17.7371 0.258867 17.61 0.642419L14.4448 10.1872H31.7156Z" fill="white"/>
</g>
<defs>
<clipPath id="clip0_94_24555">
<rect width="32" height="32" fill="white"/>
</clipPath>
</defs>
</svg>
