<svg width="151" height="65" viewBox="0 0 151 65" fill="none" xmlns="http://www.w3.org/2000/svg">
<path d="M32.2611 27.6137C36.261 27.6137 39.5036 24.3552 39.5036 20.3355C39.5036 16.3159 36.261 13.0574 32.2611 13.0574C28.2611 13.0574 25.0186 16.3159 25.0186 20.3355C25.0186 24.3552 28.2611 27.6137 32.2611 27.6137Z" fill="white"/>
<path d="M56.8132 34.5484C56.8132 30.5317 53.5677 27.2703 49.5707 27.2703C45.5736 27.2703 42.3281 30.5317 42.3281 34.5484C42.3281 38.5652 45.5736 41.8266 49.5707 41.8266C53.5677 41.8266 56.8132 38.5652 56.8132 34.5484Z" fill="white"/>
<path d="M21.2383 42.6048C21.2383 46.6216 24.4838 49.883 28.4808 49.883C32.4779 49.883 35.7234 46.6216 35.7234 42.6048C35.7234 38.5881 32.4779 35.3267 28.4808 35.3267C24.4838 35.3267 21.2383 38.5881 21.2383 42.6048Z" fill="white"/>
<path d="M23.1405 22.9332C22.9811 22.3724 22.8786 21.8002 22.8217 21.2052C22.7989 20.9191 22.7875 20.633 22.7875 20.3469C22.7875 15.0828 27.0351 10.8258 32.262 10.8258C35.1545 10.8258 37.7395 12.1189 39.4704 14.1673C39.9601 14.7509 40.3928 15.3918 40.7344 16.0784C49.2865 17.074 47.9997 13.9041 52.031 9.79584C47.9656 7.01503 43.1144 5.32137 37.8761 5.10394C37.4889 5.09249 37.1018 5.08105 36.7146 5.08105C29.5518 5.08105 23.0267 7.85042 18.1641 12.3935C14.4745 15.8266 11.7301 20.2782 10.375 25.302C15.9094 26.1031 16.8546 29.2844 23.1405 22.9332Z" fill="white"/>
<path d="M35.3021 49.2192C34.9718 49.5739 34.6074 49.8943 34.2202 50.1919C32.626 51.4049 30.6445 52.1258 28.4923 52.1258C23.2539 52.1258 19.0064 47.8574 19.0064 42.6047C19.0064 41.5748 19.1658 40.5906 19.4619 39.6637C19.7238 38.8398 20.0996 38.0616 20.5665 37.3635C17.116 29.5589 15.0321 32.2825 9.46352 30.8635C9.42936 31.4128 9.41797 31.9507 9.41797 32.5114C9.41797 37.2148 10.5909 41.632 12.6634 45.5C16.0683 51.8626 21.9102 56.7262 28.9364 58.8204C31.4075 59.5528 34.0153 59.9533 36.7141 59.9533C39.1739 59.9533 41.5653 59.6214 43.8428 59.0035C41.8272 53.8424 44.0022 51.4392 35.3021 49.2192Z" fill="white"/>
<path d="M63.3389 26.3892C62.1887 21.2854 59.6151 16.7308 56.0736 13.1489C52.6231 17.5433 49.4232 16.8109 51.6665 25.2563C52.4523 25.428 53.2039 25.7141 53.9099 26.0688C56.9732 27.648 59.0571 30.8523 59.0571 34.5486C59.0571 39.3549 55.5156 43.3373 50.9036 43.9782C50.4708 44.0354 50.0381 44.0697 49.5826 44.0697C49.3776 44.0697 49.1727 44.0583 48.9677 44.0468C43.6724 51.1533 47.1001 51.5767 48.6374 57.1841C53.2039 54.9526 57.0643 51.4737 59.7745 47.2053C62.462 42.9597 64.0221 37.913 64.0221 32.5002C64.0221 30.406 63.783 28.3575 63.3389 26.3892Z" fill="white"/>
<path d="M69.6128 17.1657C69.6128 16.9025 69.7381 16.7651 70 16.7651H79.6795C79.9414 16.7651 80.0666 16.9025 80.0666 17.1657V19.4315C80.0666 19.6947 79.9414 19.832 79.6795 19.832H76.5137V29.685C76.5137 29.9482 76.3771 30.0741 76.1151 30.0741H73.5415C73.2796 30.0741 73.1544 29.9482 73.1544 29.685V19.832H70C69.7381 19.832 69.6128 19.6947 69.6128 19.4315V17.1657Z" fill="white"/>
<path d="M88.4596 26.3205C88.5621 26.3205 88.6532 26.3663 88.7101 26.4464L89.8489 28.0371C89.94 28.1629 89.9855 28.2774 89.9855 28.3689C89.9855 28.4605 89.9286 28.552 89.8261 28.6436C89.4503 28.9754 89.0859 29.2501 88.7215 29.4561C88.3571 29.6735 87.9927 29.8337 87.6397 29.9482C87.2866 30.0626 86.9336 30.1427 86.592 30.1885C86.2504 30.2342 85.8974 30.2571 85.5557 30.2571C84.7928 30.2571 84.0526 30.1084 83.3465 29.7994C82.6405 29.4904 82.0142 29.0784 81.479 28.5406C80.9437 28.0142 80.511 27.3962 80.1921 26.6753C79.8733 25.9658 79.7139 25.199 79.7139 24.398C79.7139 23.5855 79.8505 22.8302 80.1352 22.1207C80.4085 21.4112 80.8071 20.7932 81.3081 20.2554C81.8092 19.7175 82.4127 19.3055 83.1302 18.9966C83.8362 18.6876 84.6105 18.5388 85.4646 18.5388C85.8176 18.5388 86.1934 18.5846 86.592 18.6761C86.9906 18.7677 87.3891 18.9165 87.7763 19.111C88.1635 19.3055 88.5393 19.5687 88.9037 19.8777C89.2681 20.1867 89.5756 20.5529 89.8489 20.9878C90.1222 21.4226 90.3385 21.9147 90.5093 22.464C90.6688 23.0133 90.7599 23.6427 90.7599 24.3293C90.7599 24.5696 90.7371 24.7642 90.6915 24.9129C90.646 25.0617 90.5663 25.1761 90.4638 25.2562C90.3499 25.3364 90.2133 25.3821 90.0538 25.4165C89.883 25.4393 89.678 25.4622 89.4389 25.4622H83.0049C83.096 25.7712 83.2099 26.0459 83.3807 26.2862C83.5401 26.5265 83.7337 26.7325 83.9615 26.9041C84.1892 27.0758 84.4284 27.2131 84.7017 27.3047C84.975 27.3962 85.2596 27.442 85.5557 27.442C85.9885 27.442 86.3415 27.4077 86.6148 27.339C86.8881 27.2703 87.1272 27.1902 87.3208 27.0872C87.5144 26.9842 87.6852 26.8698 87.8219 26.7554C87.9585 26.6409 88.0952 26.5265 88.2318 26.4235C88.3001 26.3548 88.3799 26.3205 88.4596 26.3205ZM84.6561 21.3768C84.4283 21.4684 84.2234 21.5828 84.0412 21.7316C83.859 21.8804 83.6881 22.052 83.5515 22.258C83.4035 22.4526 83.2896 22.67 83.1757 22.8989H87.6852C87.4461 22.3724 87.1386 21.9605 86.74 21.6744C86.3415 21.3883 85.886 21.2395 85.3735 21.2395C85.1116 21.2395 84.8725 21.2853 84.6561 21.3768Z" fill="white"/>
<path d="M99.2664 23.2766L103.947 29.3875C104.015 29.479 104.049 29.5591 104.061 29.6392C104.072 29.7193 104.061 29.788 104.026 29.8567C103.992 29.9253 103.947 29.9711 103.89 30.0054C103.833 30.0398 103.753 30.0627 103.662 30.0627H100.713C100.587 30.0627 100.473 30.0283 100.405 29.9711C100.325 29.9139 100.234 29.8109 100.143 29.6621L97.1483 25.4737L96.112 26.5609V29.685C96.112 29.9368 95.9868 30.0627 95.7362 30.0627H93.0943C92.8438 30.0627 92.7185 29.9368 92.7185 29.685V15.6894C92.7185 15.4376 92.8438 15.3118 93.0943 15.3118H95.7362C95.9868 15.3118 96.112 15.4376 96.112 15.6894V22.5556L99.3233 18.928C99.4486 18.7906 99.5625 18.7105 99.6536 18.6762C99.7561 18.6533 99.8699 18.6304 100.018 18.6304H102.66C102.774 18.6304 102.865 18.6533 102.933 18.6991C103.013 18.7449 103.058 18.8021 103.093 18.8708C103.127 18.9394 103.138 19.0081 103.127 19.0767C103.115 19.1454 103.081 19.2141 103.024 19.2713L99.2664 23.2766Z" fill="white"/>
<path d="M105.29 14.8998C105.29 14.6938 105.347 14.5107 105.45 14.362C105.552 14.2132 105.746 14.1445 106.031 14.1445H108.08C108.32 14.1445 108.49 14.2132 108.593 14.3505C108.695 14.4878 108.741 14.6709 108.741 14.8998V16.5935C108.741 16.8452 108.684 17.0169 108.57 17.1084C108.456 17.2 108.285 17.2458 108.069 17.2458H106.019C105.803 17.2458 105.621 17.2 105.484 17.1199C105.347 17.0283 105.279 16.8567 105.279 16.6049V14.8998H105.29ZM105.302 19.031C105.302 18.9051 105.347 18.8021 105.427 18.7334C105.507 18.6648 105.598 18.6304 105.689 18.6304H108.342C108.456 18.6304 108.547 18.6648 108.616 18.7334C108.695 18.8021 108.73 18.9051 108.73 19.0195V29.6736C108.73 29.9368 108.604 30.0627 108.342 30.0627H105.689C105.427 30.0627 105.302 29.9368 105.302 29.6736V19.031Z" fill="white"/>
<path d="M118.272 23.7802C118.272 23.4826 118.227 23.2194 118.136 22.9677C118.045 22.7159 117.919 22.4985 117.749 22.3039C117.578 22.1208 117.373 21.9721 117.145 21.8691C116.906 21.7661 116.633 21.7089 116.336 21.7089C116.029 21.7089 115.756 21.7661 115.505 21.8691C115.255 21.9721 115.038 22.1208 114.856 22.3039C114.674 22.487 114.537 22.7045 114.435 22.9677C114.332 23.2309 114.287 23.4941 114.287 23.7802V29.5707C114.287 29.6393 114.264 29.708 114.23 29.7652C114.196 29.8224 114.139 29.8796 114.082 29.9254C114.025 29.9712 113.956 30.0055 113.877 30.0398C113.808 30.0627 113.74 30.0856 113.672 30.0856H111.28C110.996 30.0856 110.848 29.9483 110.848 29.6622V19.0654C110.848 18.7907 110.984 18.642 111.28 18.642H112.932C113.068 18.642 113.205 18.6877 113.33 18.7907C113.455 18.8937 113.535 19.0082 113.569 19.1455L113.82 20.1754C114.048 19.8779 114.298 19.6261 114.571 19.4087C114.845 19.2027 115.141 19.0196 115.437 18.8937C115.744 18.7564 116.052 18.6648 116.371 18.5962C116.69 18.539 117.02 18.5046 117.339 18.5046C117.589 18.5046 117.862 18.539 118.17 18.6076C118.477 18.6763 118.796 18.7793 119.104 18.9395C119.411 19.0883 119.719 19.2943 120.015 19.5346C120.311 19.7749 120.573 20.0839 120.812 20.4501C121.04 20.8163 121.233 21.2397 121.37 21.7318C121.506 22.2238 121.575 22.7846 121.575 23.4254V29.6736C121.575 29.9483 121.438 30.0856 121.165 30.0856H118.671C118.386 30.0856 118.238 29.9483 118.238 29.6736V23.7802H118.272Z" fill="white"/>
<path d="M73.6783 43.0512L72.9267 50.2607C72.9153 50.3866 72.8812 50.4896 72.8242 50.5582C72.7673 50.6269 72.6762 50.6612 72.5395 50.6612H70.0001C69.8748 50.6612 69.7723 50.6269 69.6926 50.5582C69.6243 50.4896 69.5901 50.398 69.6015 50.2607L70.9339 37.7413C70.9453 37.6155 70.9794 37.5125 71.0364 37.4438C71.0933 37.3751 71.1844 37.3408 71.3211 37.3408H74.4413C74.5665 37.3408 74.6576 37.3751 74.7032 37.4438C74.7487 37.5125 74.7943 37.6155 74.8284 37.7528L77.2654 45.7977L79.7024 37.7528C79.7479 37.6155 79.7935 37.5125 79.8276 37.4438C79.8732 37.3751 79.9529 37.3408 80.0895 37.3408H83.2097C83.335 37.3408 83.4375 37.3751 83.4944 37.4438C83.5514 37.5125 83.5855 37.6155 83.5969 37.7413L84.9293 50.2607C84.9407 50.3866 84.9065 50.4896 84.8382 50.5582C84.7698 50.6269 84.6674 50.6612 84.5307 50.6612H81.9913C81.866 50.6612 81.7635 50.6269 81.7066 50.5582C81.6496 50.4896 81.6155 50.398 81.6041 50.2607L80.8753 43.2343L78.7913 50.2493C78.7458 50.4095 78.6889 50.5239 78.6319 50.5811C78.575 50.6383 78.4839 50.6612 78.3586 50.6612H76.1494C76.0241 50.6612 75.9217 50.6383 75.8647 50.5811C75.8078 50.5239 75.7508 50.4209 75.7167 50.2493L73.6783 43.0512Z" fill="white"/>
<path d="M98.572 50.2608C98.572 50.524 98.4353 50.6613 98.1734 50.6613H96.135C96.0439 50.6613 95.9642 50.627 95.8845 50.5698C95.8162 50.5126 95.7478 50.4325 95.7023 50.3409C95.6454 50.2494 95.5998 50.1578 95.5656 50.0663C95.5315 49.9747 95.4973 49.8832 95.4745 49.8145L95.3493 49.4941C94.9393 49.9289 94.4724 50.2608 93.96 50.4897C93.4361 50.73 92.8782 50.8444 92.2746 50.8444C91.523 50.8444 90.8056 50.7071 90.111 50.421C89.4163 50.1464 88.8128 49.7458 88.2775 49.2309C87.7423 48.7159 87.321 48.098 87.0135 47.377C86.7061 46.6561 86.5466 45.855 86.5466 44.9738C86.5466 44.1613 86.6947 43.4061 86.9908 42.6851C87.2868 41.9642 87.6854 41.3462 88.1978 40.8083C88.7103 40.2705 89.3138 39.8585 90.0199 39.5495C90.7145 39.2406 91.4775 39.0918 92.2746 39.0918C92.9579 39.0918 93.5728 39.2291 94.1194 39.4923C94.6546 39.767 95.1215 40.1332 95.5201 40.6024L95.8731 39.6182C95.9187 39.4694 95.9642 39.3779 96.0097 39.3092C96.0553 39.252 96.135 39.2177 96.2717 39.2177H98.162C98.4239 39.2177 98.5606 39.355 98.5606 39.6182V50.2608H98.572ZM94.9507 43.8753C94.8141 43.5319 94.6205 43.2344 94.3699 42.9712C94.1308 42.708 93.8347 42.502 93.5045 42.3532C93.1742 42.2045 92.8098 42.1244 92.434 42.1244C92.081 42.1244 91.7394 42.193 91.4205 42.3304C91.1017 42.4677 90.817 42.6622 90.5665 42.914C90.3273 43.1657 90.1223 43.4633 89.9857 43.8066C89.8377 44.1499 89.7693 44.539 89.7693 44.9624C89.7693 45.3629 89.8377 45.7406 89.9743 46.0839C90.111 46.4272 90.2932 46.7247 90.5323 46.9765C90.7714 47.2282 91.0447 47.4228 91.375 47.5715C91.7052 47.7203 92.0582 47.789 92.434 47.789C92.8212 47.789 93.1742 47.7089 93.5045 47.5601C93.8347 47.4113 94.1194 47.2054 94.3699 46.9536C94.6091 46.7018 94.8027 46.3929 94.9507 46.0495C95.0874 45.7062 95.1557 45.34 95.1557 44.9624C95.1557 44.5848 95.0874 44.2186 94.9507 43.8753Z" fill="white"/>
<path d="M100.678 39.6294C100.678 39.3548 100.815 39.2175 101.077 39.2175H102.603C102.74 39.2175 102.865 39.2404 102.967 39.2861C103.081 39.3319 103.172 39.4578 103.275 39.6867L103.662 40.6823C103.844 40.4763 104.026 40.2817 104.209 40.0872C104.379 39.8927 104.573 39.7324 104.789 39.5837C104.994 39.4349 105.234 39.3205 105.495 39.2289C105.757 39.1374 106.065 39.103 106.429 39.103C106.805 39.103 107.158 39.1603 107.511 39.2861C107.853 39.412 108.172 39.5493 108.456 39.7095C108.741 39.8698 108.98 40.03 109.185 40.1902C109.39 40.3504 109.527 40.4534 109.595 40.522C109.754 40.6594 109.823 40.7853 109.823 40.8882C109.823 40.9912 109.777 41.1171 109.697 41.243L108.536 42.8909C108.456 43.0053 108.365 43.0625 108.263 43.0625C108.172 43.0625 108.069 43.0168 107.978 42.9367C107.898 42.868 107.796 42.7879 107.682 42.6849C107.568 42.5819 107.431 42.4904 107.283 42.3988C107.135 42.3073 106.964 42.2272 106.771 42.1699C106.577 42.1127 106.361 42.0784 106.133 42.0784C105.86 42.0784 105.598 42.1242 105.359 42.2043C105.12 42.2844 104.903 42.4102 104.721 42.5819C104.539 42.7536 104.391 42.9595 104.288 43.2113C104.186 43.4631 104.129 43.7492 104.129 44.081V50.2492C104.129 50.5124 103.992 50.6497 103.719 50.6497H101.1C100.838 50.6497 100.701 50.5124 100.701 50.2492V39.6294H100.678Z" fill="white"/>
<path d="M117.498 43.8637L122.178 49.9746C122.246 50.0661 122.281 50.1463 122.292 50.2264C122.303 50.3065 122.292 50.3751 122.258 50.4438C122.224 50.5125 122.178 50.5582 122.121 50.5926C122.064 50.6269 121.985 50.6498 121.893 50.6498H118.944C118.819 50.6498 118.705 50.6155 118.637 50.5582C118.557 50.501 118.466 50.398 118.375 50.2492L115.38 46.0609L114.343 47.148V50.2721C114.343 50.5239 114.218 50.6498 113.968 50.6498H111.326C111.075 50.6498 110.95 50.5239 110.95 50.2721V36.2651C110.95 36.0133 111.075 35.8875 111.326 35.8875H113.968C114.218 35.8875 114.343 36.0133 114.343 36.2651V43.1313L117.555 39.5036C117.68 39.3663 117.794 39.2862 117.885 39.2519C117.976 39.2176 118.101 39.2061 118.249 39.2061H120.891C121.005 39.2061 121.096 39.229 121.165 39.2748C121.244 39.3205 121.29 39.3778 121.324 39.4464C121.358 39.5151 121.37 39.5838 121.358 39.6524C121.347 39.7211 121.313 39.7897 121.256 39.847L117.498 43.8637Z" fill="white"/>
<path d="M131.63 46.9077C131.733 46.9077 131.824 46.9534 131.881 47.0335L133.02 48.6242C133.111 48.7501 133.156 48.8645 133.156 48.9561C133.156 49.0476 133.099 49.1392 132.997 49.2307C132.621 49.5626 132.257 49.8372 131.892 50.0432C131.528 50.2607 131.163 50.4209 130.81 50.5353C130.457 50.6497 130.104 50.7298 129.763 50.7756C129.421 50.8214 129.068 50.8443 128.726 50.8443C127.963 50.8443 127.223 50.6955 126.517 50.3865C125.811 50.0776 125.185 49.6656 124.65 49.1277C124.114 48.6013 123.682 47.9834 123.363 47.2624C123.044 46.5529 122.885 45.7862 122.885 44.9851C122.885 44.1726 123.021 43.4173 123.306 42.7078C123.579 41.9983 123.978 41.3804 124.479 40.8425C124.98 40.3047 125.595 39.8927 126.301 39.5837C127.007 39.2747 127.781 39.126 128.635 39.126C128.988 39.126 129.364 39.1717 129.763 39.2633C130.161 39.3548 130.56 39.5036 130.947 39.6982C131.334 39.8927 131.71 40.1559 132.074 40.4649C132.439 40.7739 132.746 41.1401 133.02 41.5749C133.293 42.0098 133.509 42.5018 133.68 43.0511C133.839 43.6004 133.931 44.2298 133.931 44.9165C133.931 45.1568 133.908 45.3513 133.862 45.5001C133.817 45.6489 133.737 45.7633 133.634 45.8434C133.521 45.9235 133.384 45.9693 133.224 46.0036C133.054 46.0265 132.849 46.0494 132.61 46.0494H126.176C126.267 46.3584 126.381 46.633 126.551 46.8733C126.711 47.1136 126.904 47.3196 127.132 47.4913C127.36 47.6629 127.599 47.8003 127.872 47.8918C128.146 47.9834 128.43 48.0291 128.726 48.0291C129.159 48.0291 129.512 47.9948 129.785 47.9262C130.059 47.8575 130.298 47.7774 130.491 47.6744C130.685 47.5714 130.856 47.457 130.993 47.3425C131.129 47.2281 131.266 47.1137 131.402 47.0107C131.471 46.9306 131.551 46.9077 131.63 46.9077ZM127.827 41.9526C127.599 42.0441 127.394 42.1585 127.212 42.3073C127.03 42.4561 126.859 42.6277 126.722 42.8337C126.574 43.0283 126.46 43.2457 126.346 43.4746H130.856C130.617 42.9482 130.309 42.5362 129.911 42.2501C129.512 41.964 129.057 41.8152 128.544 41.8152C128.282 41.8267 128.043 41.8725 127.827 41.9526Z" fill="white"/>
<path d="M139.738 42.3989V50.2607C139.738 50.5239 139.601 50.6498 139.339 50.6498H136.674C136.412 50.6498 136.287 50.5239 136.287 50.2607V42.3989H135.046C134.807 42.3989 134.681 42.273 134.681 42.0327V39.6181C134.681 39.5151 134.716 39.4236 134.773 39.3663C134.829 39.2977 134.921 39.2633 135.046 39.2633H136.287V37.4209C136.287 37.295 136.31 37.1806 136.367 37.1005C136.424 37.0204 136.538 36.9517 136.72 36.8831L139.054 36.1049C139.123 36.082 139.191 36.0706 139.271 36.0706C139.407 36.0706 139.521 36.1163 139.612 36.2079C139.703 36.2994 139.749 36.4368 139.749 36.6313V39.2519H141.241C141.355 39.2519 141.446 39.2862 141.503 39.3663C141.56 39.4464 141.594 39.5265 141.594 39.6067V42.0213C141.594 42.2616 141.48 42.3875 141.241 42.3875H139.738V42.3989Z" fill="white"/>
</svg>
