<svg width="32" height="32" viewBox="0 0 32 32" fill="none" xmlns="http://www.w3.org/2000/svg">
<path d="M29.0575 7.77921H17.8023L23.5034 2.15163L22.4736 1.12174L16.5517 6.93324L10.6299 1.08496L9.6 2.11485L15.3011 7.74243H2.94253C1.32414 7.74243 0 9.06657 0 10.685V27.9723C0 29.5907 1.32414 30.9148 2.94253 30.9148H29.0575C30.6759 30.9148 32 29.5907 32 27.9723V10.685C32 9.10335 30.6759 7.77921 29.0575 7.77921ZM19.8621 24.1838C19.8621 25.3976 18.869 26.3907 17.6552 26.3907H6.25287C5.03908 26.3907 4.04598 25.3976 4.04598 24.1838V14.6206C4.04598 13.4068 5.03908 12.4137 6.25287 12.4137H17.6552C18.869 12.4137 19.8621 13.4068 19.8621 14.6206V24.1838ZM25.3793 25.5079C23.9448 25.5079 22.8046 24.3677 22.8046 22.9332C22.8046 21.4988 23.9448 20.3585 25.3793 20.3585C26.8138 20.3585 27.954 21.4988 27.954 22.9332C27.954 24.3677 26.8138 25.5079 25.3793 25.5079ZM28.3218 18.0413H22.4368V16.57H28.3218V18.0413ZM28.3218 14.3631H22.4368V12.8919H28.3218V14.3631Z" fill="white"/>
</svg>
