<svg width="24" height="24" viewBox="0 0 24 24" fill="none" xmlns="http://www.w3.org/2000/svg">
<g clip-path="url(#clip0_283_3356)">
<path d="M16.8177 8.50225L10.7318 13.4768L10.4454 13.7113C10.3825 13.7612 10.3414 13.8336 10.3309 13.9132L10.2668 14.4422L10.0909 15.9286C10.0925 15.9467 10.0869 15.9647 10.0752 15.9786C10.0636 15.9926 10.0469 16.0013 10.0288 16.0029C10.0107 16.0046 9.99275 15.9989 9.97882 15.9873C9.96488 15.9757 9.95613 15.959 9.95451 15.9409L9.45951 14.4545L8.94814 12.9341C8.92633 12.8659 8.92912 12.7923 8.95603 12.726C8.98295 12.6597 9.03227 12.605 9.09542 12.5713L15.4281 8.94134L16.62 8.25952C16.7931 8.15861 16.9704 8.37679 16.8177 8.50225Z" fill="white"/>
<path d="M20.7273 0H3.27273C2.40475 0 1.57232 0.344804 0.95856 0.95856C0.344804 1.57232 0 2.40475 0 3.27273L0 20.7273C0 21.5953 0.344804 22.4277 0.95856 23.0414C1.57232 23.6552 2.40475 24 3.27273 24H20.7273C21.5953 24 22.4277 23.6552 23.0414 23.0414C23.6552 22.4277 24 21.5953 24 20.7273V3.27273C24 2.40475 23.6552 1.57232 23.0414 0.95856C22.4277 0.344804 21.5953 0 20.7273 0ZM19.485 6.94636L17.1423 17.2977C17.0318 17.7832 16.4155 18.0027 15.9832 17.7068L12.4459 15.3068L10.6445 17.01C10.5711 17.0789 10.4819 17.1289 10.3848 17.1555C10.2877 17.1822 10.1855 17.1848 10.0871 17.163C9.9888 17.1412 9.89725 17.0958 9.82044 17.0306C9.74363 16.9655 9.68387 16.8826 9.64636 16.7891L8.99591 14.88L8.34546 12.9709L4.85864 12.0164C4.76115 11.9951 4.67342 11.9422 4.60909 11.8659C4.54477 11.7896 4.50745 11.6942 4.50294 11.5945C4.49843 11.4948 4.52698 11.3964 4.58415 11.3147C4.64133 11.2329 4.72392 11.1723 4.81909 11.1423L18.2891 6.28909L18.5373 6.20045C19.0595 6.01773 19.5995 6.44045 19.485 6.94636Z" fill="white"/>
</g>
<defs>
<clipPath id="clip0_283_3356">
<rect width="24" height="24" fill="white"/>
</clipPath>
</defs>
</svg>
