<svg width="32" height="32" viewBox="0 0 32 32" fill="none" xmlns="http://www.w3.org/2000/svg">
<path d="M19.47 4.025L20.295 2H11.705L12.53 4.025H19.47Z" fill="white"/>
<path d="M12.9351 5.0249L16.0001 12.5499L19.0651 5.0249H12.9351Z" fill="white"/>
<path d="M11.74 9.67002C11.7947 9.73606 11.831 9.81542 11.845 9.90002L12.64 14.265L15.325 13.54C14.8274 12.3129 11.4481 4.01826 11.04 3.02002L9.78503 7.34002L11.74 9.67002Z" fill="white"/>
<path d="M20.2701 4.72002L16.675 13.54L19.3601 14.265L20.1551 9.90002C19.9758 9.91902 22.2079 7.37865 22.215 7.34002L20.96 3.02002C20.96 3.02502 20.2663 4.7147 20.2701 4.72002Z" fill="white"/>
<path d="M25.355 23.5098H29.425V25.7548H25.355V23.5098Z" fill="white"/>
<path d="M24.215 2H21.705L23.25 7.32C23.2726 7.39897 23.2753 7.48231 23.2578 7.56258C23.2404 7.64284 23.2033 7.71754 23.15 7.78L21.115 10.21L20.245 14.975C20.2325 15.0428 20.2061 15.1073 20.1676 15.1645C20.129 15.2217 20.0791 15.2704 20.021 15.3074C19.9628 15.3445 19.8976 15.3692 19.8295 15.3799C19.7614 15.3907 19.6918 15.3873 19.625 15.37L16.5 14.53V30H24.355V10.935C24.3569 10.8037 24.4105 10.6784 24.504 10.5862C24.5976 10.494 24.7237 10.4424 24.855 10.4424C24.9863 10.4424 25.1124 10.494 25.206 10.5862C25.2995 10.6784 25.3531 10.8037 25.355 10.935V22.51H29.425V7.205C29.4231 5.82425 28.8735 4.50066 27.8967 3.52479C26.9199 2.54892 25.5957 2.00053 24.215 2ZM21.77 25.34H19.085C18.9536 25.3381 18.8282 25.2846 18.736 25.1911C18.6437 25.0975 18.592 24.9714 18.592 24.84C18.592 24.7086 18.6437 24.5825 18.736 24.4889C18.8282 24.3954 18.9536 24.3419 19.085 24.34H21.77C21.9013 24.3419 22.0266 24.3955 22.1188 24.489C22.211 24.5826 22.2626 24.7087 22.2626 24.84C22.2626 24.9713 22.211 25.0974 22.1188 25.191C22.0266 25.2845 21.9013 25.3381 21.77 25.34Z" fill="white"/>
<path d="M2.57495 23.5098H6.64495V25.7548H2.57495V23.5098Z" fill="white"/>
<path d="M12.245 15.385C12.128 15.3854 12.0148 15.3445 11.9251 15.2695C11.8354 15.1944 11.7752 15.0901 11.755 14.975L10.885 10.21L8.84995 7.78C8.7966 7.71754 8.75955 7.64284 8.7421 7.56258C8.72465 7.48231 8.72735 7.39897 8.74995 7.32L10.295 2H7.78495C6.4042 2.00053 5.08008 2.54892 4.10328 3.52479C3.12647 4.50066 2.57681 5.82425 2.57495 7.205V22.51H6.64495V10.935C6.64495 10.8024 6.69763 10.6752 6.7914 10.5814C6.88517 10.4877 7.01234 10.435 7.14495 10.435C7.27756 10.435 7.40474 10.4877 7.4985 10.5814C7.59227 10.6752 7.64495 10.8024 7.64495 10.935V30H15.5V14.53L12.375 15.37C12.3323 15.3799 12.2887 15.385 12.245 15.385ZM13.415 24.84C13.4146 24.9725 13.3617 25.0994 13.2681 25.1931C13.1744 25.2868 13.0474 25.3396 12.915 25.34H10.23C10.0973 25.34 9.97017 25.2873 9.8764 25.1936C9.78263 25.0998 9.72995 24.9726 9.72995 24.84C9.72995 24.7074 9.78263 24.5802 9.8764 24.4864C9.97017 24.3927 10.0973 24.34 10.23 24.34H12.915C12.9807 24.3398 13.0458 24.3525 13.1066 24.3776C13.1673 24.4026 13.2225 24.4395 13.269 24.4859C13.3155 24.5324 13.3523 24.5876 13.3774 24.6484C13.4024 24.7092 13.4152 24.7743 13.415 24.84Z" fill="white"/>
</svg>
