<svg width="24" height="24" viewBox="0 0 24 24" fill="none" xmlns="http://www.w3.org/2000/svg">
<g clip-path="url(#clip0_15_20499)">
<path d="M23.9994 9.74334C23.9993 9.50982 23.9913 9.27746 23.976 9.04661C22.9131 9.04661 4.84154 9.04661 4.26945 9.04661L3.36333 6.10173C3.01366 4.96537 1.91981 4.17175 0.703349 4.17175C0.315047 4.17175 0.000244141 4.48656 0.000244141 4.87486C0.000244141 5.26316 0.315047 5.57796 0.703349 5.57796C1.29874 5.57796 1.85217 5.97217 2.01928 6.51525C3.18353 10.299 3.07047 9.93327 3.08519 9.97649C3.10782 10.0426 3.22585 10.3722 4.40763 13.6812C4.83943 14.8903 6.19788 15.7027 7.78792 15.7027H10.2113L9.55492 17.3435C7.50973 16.9986 5.67195 18.5834 5.67195 20.6244C5.67195 22.4705 7.16685 23.9993 8.99998 23.9993C10.6112 23.9993 11.9368 22.8256 12.2539 21.3275H14.7458C14.8777 21.9507 15.1836 22.5269 15.6405 22.995C16.948 24.3348 19.0512 24.3352 20.3591 22.995C20.9837 22.3549 21.3278 21.513 21.3278 20.6244C21.3278 18.5831 19.4896 16.9987 17.4448 17.3435L16.7883 15.7027H19.2118C20.8001 15.7027 22.1573 14.892 22.5906 13.6851C24.0428 9.75867 23.9994 9.92535 23.9994 9.74334ZM14.7471 19.9213H12.2526C12.0688 19.0702 11.559 18.339 10.8604 17.8662L11.7259 15.7027H15.2738L16.1393 17.8662C15.4407 18.339 14.9309 19.0702 14.7471 19.9213Z" fill="#FFA00E"/>
<path d="M23.7868 7.6404C22.9194 3.40565 19.3903 0 14.9999 0H13.8749C13.5719 0 13.3029 0.194151 13.2076 0.481814L10.8337 7.6404H23.7868Z" fill="#FFA00E"/>
</g>
<defs>
<clipPath id="clip0_15_20499">
<rect width="24" height="24" fill="white"/>
</clipPath>
</defs>
</svg>
