<svg width="24" height="24" viewBox="0 0 24 24" fill="none" xmlns="http://www.w3.org/2000/svg">
<path d="M22.9329 12.8076C22.7158 10.4014 21.6758 8.14377 19.9881 6.41512C19.7954 6.23 19.5385 6.12661 19.2713 6.12661C19.0041 6.12661 18.7473 6.23 18.5546 6.41512C18.3722 6.59236 18.2639 6.83209 18.2512 7.08604C18.2386 7.34 18.3226 7.5893 18.4865 7.78377C18.9088 8.28636 19.2804 8.82955 19.5956 9.40539C20.3543 10.7553 20.6686 12.3099 20.494 13.8485C20.3193 15.3872 19.6646 16.8317 18.6227 17.9773C18.1787 18.4531 17.6789 18.8734 17.134 19.2292V15.8919C17.1243 12.2465 13.8097 10.7027 13.6735 10.6508C11.4421 9.6162 10.3459 7.05079 10.2292 6.7589C9.68753 3.64539 7.84537 2.64971 7.17726 2.38377C6.93402 1.62161 6.30807 0.742686 4.75131 0.648632C4.69025 0.645453 4.62954 0.659599 4.57617 0.689439C4.5228 0.719279 4.47896 0.763597 4.44969 0.817281C4.41968 0.87101 4.40557 0.932172 4.40901 0.993621C4.41246 1.05507 4.43332 1.11427 4.46915 1.16431C4.66179 1.46617 4.76107 1.81817 4.75456 2.1762C4.13186 2.33512 2.61077 2.88647 2.42267 4.51134C2.42267 4.53079 2.38699 4.98809 1.66375 5.42269C1.53543 5.47957 1.4199 5.56173 1.32406 5.66426C1.22821 5.76679 1.15402 5.88759 1.10591 6.01944C0.959963 6.41836 1.05402 6.90485 1.40429 7.48215C1.44645 7.54052 2.37726 8.82485 3.96645 8.62377C3.95993 8.96591 3.8858 9.30339 3.74832 9.61677C3.61083 9.93014 3.41271 10.2132 3.16537 10.4497C3.14014 10.4765 3.11934 10.5072 3.10375 10.5405C2.80396 11.3543 2.69399 12.2259 2.78223 13.0886C2.87048 13.9514 3.1546 14.7826 3.61294 15.5189C3.62903 15.5471 3.64988 15.5724 3.67456 15.5935C3.69402 15.6097 5.40645 17.1243 4.90699 18.6681L4.31672 20.3838C4.29864 20.4387 4.26902 20.4891 4.22987 20.5316C4.19071 20.5741 4.14292 20.6077 4.08969 20.6303L3.20104 21.0065C2.95161 21.1144 2.7469 21.3048 2.62127 21.5458C2.49565 21.7868 2.45677 22.0636 2.51117 22.3299C2.56556 22.5962 2.70992 22.8356 2.91999 23.008C3.13007 23.1804 3.39307 23.2753 3.66483 23.2767H5.34483C5.56993 23.2759 5.78953 23.207 5.97475 23.0791C6.15998 22.9512 6.30218 22.7702 6.38267 22.56L7.56969 19.4011C7.94743 19.9896 8.48368 20.4595 9.11672 20.7567L8.5751 20.8249C8.40892 20.8454 8.24857 20.8992 8.1036 20.983C7.95863 21.0668 7.832 21.1789 7.73124 21.3127C7.63048 21.4464 7.55765 21.5991 7.51708 21.7615C7.47651 21.924 7.46904 22.093 7.4951 22.2584C7.54639 22.5556 7.70118 22.8251 7.93208 23.0192C8.16297 23.2133 8.45508 23.3195 8.75672 23.3189H13.7254C13.9589 23.3416 14.1827 23.3513 14.374 23.3513C15.0683 23.3653 15.7587 23.2452 16.4075 22.9978C17.9016 22.4111 19.2156 21.4426 20.2183 20.1892C21.0106 19.227 21.6655 18.1595 22.1643 17.0173C22.7572 15.6969 23.021 14.2523 22.9329 12.8076ZM4.44645 5.09512H4.19348C4.07508 5.0853 3.9647 5.03132 3.88424 4.94391C3.80378 4.8565 3.75912 4.74203 3.75912 4.62323C3.75912 4.50442 3.80378 4.38996 3.88424 4.30254C3.9647 4.21513 4.07508 4.16116 4.19348 4.15134H4.44645C4.51171 4.14592 4.57738 4.1541 4.63932 4.17536C4.70125 4.19661 4.75811 4.23049 4.80629 4.27483C4.85447 4.31918 4.89292 4.37304 4.91923 4.43301C4.94554 4.49297 4.95912 4.55774 4.95912 4.62323C4.95912 4.68871 4.94554 4.75348 4.91923 4.81345C4.89292 4.87341 4.85447 4.92727 4.80629 4.97162C4.75811 5.01597 4.70125 5.04984 4.63932 5.0711C4.57738 5.09235 4.51171 5.10053 4.44645 5.09512Z" fill="#F26957"/>
</svg>
