<svg width="24" height="24" viewBox="0 0 24 24" fill="none" xmlns="http://www.w3.org/2000/svg">
<path d="M14.6026 3.01875L15.2213 1.5H8.77881L9.39756 3.01875H14.6026Z" fill="#D38816"/>
<path d="M9.70117 3.76874L11.9999 9.41249L14.2987 3.76874H9.70117Z" fill="#D38816"/>
<path d="M8.80512 7.25251C8.84615 7.30204 8.87333 7.36156 8.88387 7.42501L9.48012 10.6988L11.4939 10.155C11.1206 9.23467 8.5862 3.0137 8.28012 2.26501L7.33887 5.50501L8.80512 7.25251Z" fill="#D38816"/>
<path d="M15.2026 3.54001L12.5063 10.155L14.5201 10.6988L15.1163 7.42501C14.9819 7.43926 16.656 5.53399 16.6613 5.50501L15.7201 2.26501C15.7201 2.26876 15.1998 3.53602 15.2026 3.54001Z" fill="#D38816"/>
<path d="M19.0164 17.6325H22.0689V19.3163H19.0164V17.6325Z" fill="#D38816"/>
<path d="M18.1613 1.5H16.2787L17.4375 5.49C17.4545 5.54923 17.4565 5.61173 17.4434 5.67193C17.4303 5.73213 17.4025 5.78816 17.3625 5.835L15.8362 7.6575L15.1838 11.2313C15.1744 11.2821 15.1546 11.3305 15.1257 11.3734C15.0968 11.4163 15.0594 11.4528 15.0157 11.4806C14.9721 11.5084 14.9232 11.5269 14.8721 11.535C14.821 11.543 14.7688 11.5405 14.7188 11.5275L12.375 10.8975V22.5H18.2662V8.20125C18.2677 8.10276 18.3079 8.00879 18.378 7.93966C18.4482 7.87052 18.5427 7.83177 18.6412 7.83177C18.7398 7.83177 18.8343 7.87052 18.9045 7.93966C18.9746 8.00879 19.0148 8.10276 19.0162 8.20125V16.8825H22.0687V5.40375C22.0674 4.36819 21.6551 3.37549 20.9225 2.64359C20.1899 1.91169 19.1968 1.5004 18.1613 1.5ZM16.3275 19.005H14.3137C14.2152 19.0036 14.1212 18.9635 14.052 18.8933C13.9828 18.8231 13.944 18.7285 13.944 18.63C13.944 18.5315 13.9828 18.4369 14.052 18.3667C14.1212 18.2965 14.2152 18.2564 14.3137 18.255H16.3275C16.426 18.2565 16.52 18.2966 16.5891 18.3668C16.6582 18.4369 16.697 18.5315 16.697 18.63C16.697 18.7285 16.6582 18.8231 16.5891 18.8932C16.52 18.9634 16.426 19.0035 16.3275 19.005Z" fill="#D38816"/>
<path d="M1.93115 17.6325H4.98365V19.3163H1.93115V17.6325Z" fill="#D38816"/>
<path d="M9.18365 11.5387C9.09597 11.5391 9.01101 11.5084 8.94376 11.4521C8.87652 11.3958 8.83132 11.3176 8.81615 11.2313L8.16365 7.6575L6.6374 5.835C6.59739 5.78816 6.5696 5.73213 6.55652 5.67193C6.54343 5.61173 6.54545 5.54923 6.5624 5.49L7.72115 1.5H5.83865C4.80309 1.5004 3.81 1.91169 3.0774 2.64359C2.34479 3.37549 1.93254 4.36819 1.93115 5.40375V16.8825H4.98365V8.20125C4.98365 8.10179 5.02316 8.00641 5.09349 7.93608C5.16381 7.86576 5.2592 7.82625 5.35865 7.82625C5.45811 7.82625 5.55349 7.86576 5.62382 7.93608C5.69414 8.00641 5.73365 8.10179 5.73365 8.20125V22.5H11.6249V10.8975L9.28115 11.5275C9.24919 11.5349 9.21647 11.5387 9.18365 11.5387ZM10.0612 18.63C10.0609 18.7294 10.0213 18.8246 9.95099 18.8948C9.88073 18.9651 9.78552 19.0047 9.68615 19.005H7.6724C7.57295 19.005 7.47756 18.9655 7.40724 18.8952C7.33691 18.8248 7.2974 18.7295 7.2974 18.63C7.2974 18.5305 7.33691 18.4352 7.40724 18.3648C7.47756 18.2945 7.57295 18.255 7.6724 18.255H9.68615C9.73545 18.2548 9.78429 18.2644 9.82986 18.2832C9.87544 18.302 9.91684 18.3296 9.9517 18.3645C9.98656 18.3993 10.0142 18.4407 10.033 18.4863C10.0517 18.5319 10.0613 18.5807 10.0612 18.63Z" fill="#D38816"/>
</svg>
