<svg width="24" height="24" viewBox="0 0 24 24" fill="none" xmlns="http://www.w3.org/2000/svg">
<g clip-path="url(#clip0_15_20514)">
<path d="M21.7931 5.83447H13.3517L17.6276 1.61378L16.8552 0.841368L12.4138 5.19999L7.97241 0.813782L7.2 1.5862L11.4759 5.80688H2.2069C0.993103 5.80688 0 6.79999 0 8.01378V20.9793C0 22.1931 0.993103 23.1862 2.2069 23.1862H21.7931C23.0069 23.1862 24 22.1931 24 20.9793V8.01378C24 6.82757 23.0069 5.83447 21.7931 5.83447ZM14.8966 18.1379C14.8966 19.0483 14.1517 19.7931 13.2414 19.7931H4.68966C3.77931 19.7931 3.03448 19.0483 3.03448 18.1379V10.9655C3.03448 10.0552 3.77931 9.31033 4.68966 9.31033H13.2414C14.1517 9.31033 14.8966 10.0552 14.8966 10.9655V18.1379ZM19.0345 19.131C17.9586 19.131 17.1034 18.2759 17.1034 17.2C17.1034 16.1241 17.9586 15.269 19.0345 15.269C20.1103 15.269 20.9655 16.1241 20.9655 17.2C20.9655 18.2759 20.1103 19.131 19.0345 19.131ZM21.2414 13.531H16.8276V12.4276H21.2414V13.531ZM21.2414 10.7724H16.8276V9.66895H21.2414V10.7724Z" fill="#25989F"/>
</g>
<defs>
<clipPath id="clip0_15_20514">
<rect width="24" height="24" fill="white"/>
</clipPath>
</defs>
</svg>
