<svg width="24" height="24" viewBox="0 0 24 24" fill="none" xmlns="http://www.w3.org/2000/svg">
<g clip-path="url(#clip0_15_20509)">
<path d="M20.8633 6.19284C22.5699 6.19284 23.9533 4.80653 23.9533 3.09642C23.9533 1.38632 22.5699 0 20.8633 0C19.1568 0 17.7734 1.38632 17.7734 3.09642C17.7734 4.80653 19.1568 6.19284 20.8633 6.19284Z" fill="#57BF25"/>
<path d="M16.8467 17.3607H18.8344V19.3526H16.8467V17.3607Z" fill="#57BF25"/>
<path d="M13.2285 6.52702C13.614 6.18427 14.1102 5.99555 14.6255 5.99555C15.1409 5.99555 15.637 6.18431 16.0226 6.52702L16.5766 7.01949V5.25994C16.5766 2.36349 14.2251 0.00708008 11.3347 0.00708008C8.80289 0.00708008 6.68461 1.81519 6.198 4.2105C6.99389 5.42189 8.3887 7.78978 8.98528 10.299L13.2285 6.52702Z" fill="#57BF25"/>
<path d="M23.2982 22.5845H22.329V15.8933L22.7858 16.2993C22.9193 16.4181 23.0856 16.4765 23.2512 16.4765C23.4449 16.4765 23.6378 16.3965 23.7764 16.2399C24.0336 15.9494 24.0071 15.5049 23.7171 15.2472L21.6599 13.4184V9.7739C21.6599 9.38555 21.3457 9.07069 20.9581 9.07069C20.5706 9.07069 20.2564 9.38555 20.2564 9.7739V12.1708L15.0911 7.57908C14.8254 7.34287 14.4255 7.34287 14.1598 7.57908L5.53383 15.2471C5.24391 15.5048 5.21737 15.9493 5.47453 16.2398C5.73173 16.5304 6.17531 16.557 6.46519 16.2992L6.92194 15.8932V22.5844H4.65712V19.5165C4.95689 19.4246 5.24536 19.2739 5.5185 19.0672V17.827C5.09902 17.7282 4.71548 17.5018 4.42467 17.1733C3.65437 16.3031 3.73411 14.967 4.60242 14.1951L7.76986 11.3794C7.2367 7.9709 4.64236 4.41712 4.51983 4.2509C4.3875 4.07147 4.17806 3.96558 3.95541 3.96558C3.73275 3.96558 3.52331 4.07147 3.39098 4.2509C3.25434 4.4362 0.0451406 8.83167 0.0451406 12.5423C0.0451406 14.3535 0.405563 16.0672 1.06003 17.3679C1.63734 18.5152 2.39967 19.2554 3.25364 19.5165V22.5845H0.701766C0.314203 22.5845 0 22.8994 0 23.2877C0 23.6761 0.314203 23.991 0.701766 24H22.329H23.2983C23.6858 23.991 24 23.6761 24 23.2877C24 22.8994 23.6858 22.5845 23.2982 22.5845ZM15.4432 16.6574C15.4432 16.2691 15.7574 15.9542 16.1449 15.9542H19.5362C19.9237 15.9542 20.238 16.2691 20.238 16.6574V20.0558C20.238 20.4442 19.9237 20.7591 19.5362 20.7591H16.1449C15.7574 20.7591 15.4432 20.4442 15.4432 20.0558V16.6574ZM11.6004 22.5845V17.3607H10.1969V22.5845H8.79338V16.6574C8.79338 16.269 9.10758 15.9542 9.49514 15.9542H12.3022C12.6897 15.9542 13.0039 16.2691 13.0039 16.6574V22.5845H11.6004Z" fill="#57BF25"/>
</g>
<defs>
<clipPath id="clip0_15_20509">
<rect width="24" height="24" fill="white"/>
</clipPath>
</defs>
</svg>
