<svg width="24" height="24" viewBox="0 0 24 24" fill="none" xmlns="http://www.w3.org/2000/svg">
<g clip-path="url(#clip0_15_20503)">
<path d="M23.8625 8.76339C23.7451 8.6202 23.5699 8.53663 23.3862 8.53663H21.0504C20.474 7.01631 19.7231 5.52672 18.8695 4.96444C15.9167 3.02195 8.0847 3.02195 5.13195 4.96444C4.27777 5.52734 3.5299 7.01877 2.95041 8.53663H0.614623C0.429039 8.53663 0.254516 8.6202 0.138372 8.76339C0.0216136 8.90596 -0.0250898 9.09461 0.0130104 9.2759L0.358984 10.9523C0.417978 11.2381 0.66993 11.4421 0.960597 11.4421H1.65254C0.984563 12.2127 0.660712 13.183 0.656411 14.1539C0.652109 15.3535 1.10747 16.4375 1.94014 17.2044C1.94936 17.2124 1.95857 17.2179 1.96718 17.2259V19.5715C1.96718 20.0797 2.38013 20.4933 2.88895 20.4933H5.04345C5.55228 20.4933 5.96523 20.0797 5.96523 19.5715V18.6289H18.035V19.5715C18.035 20.0797 18.4479 20.4933 18.9568 20.4933H21.1113C21.6188 20.4933 22.033 20.0797 22.033 19.5715V17.272C22.9167 16.4627 23.3389 15.3492 23.3444 14.2375C23.3481 13.2334 23.0095 12.2274 22.3022 11.4408H23.0402C23.3321 11.4408 23.5841 11.2368 23.6418 10.9505L23.9884 9.27467C24.0241 9.09461 23.9792 8.90718 23.8625 8.76339ZM6.14406 6.5038C8.49766 4.9546 15.5026 4.9546 17.8549 6.5038C18.3121 6.80369 18.9002 8.01613 19.4392 9.50081H4.56106C5.09876 8.01675 5.68685 6.80492 6.14406 6.5038ZM3.38733 14.385C3.38733 13.3833 4.19972 12.5722 5.20077 12.5722C6.20305 12.5722 7.01421 13.3833 7.01421 14.385C7.01421 15.3867 6.20305 16.1984 5.20077 16.1984C4.19972 16.1984 3.38733 15.3867 3.38733 14.385ZM18.8234 16.1984C17.8224 16.1984 17.01 15.3867 17.01 14.385C17.01 13.3833 17.8224 12.5722 18.8234 12.5722C19.8257 12.5722 20.6368 13.3833 20.6368 14.385C20.6368 15.3867 19.8245 16.1984 18.8234 16.1984Z" fill="#5BC4BD"/>
</g>
<defs>
<clipPath id="clip0_15_20503">
<rect width="24" height="23.9994" fill="white" transform="translate(0 0.000366211)"/>
</clipPath>
</defs>
</svg>
