<svg width="16" height="16" viewBox="0 0 16 16" fill="none" xmlns="http://www.w3.org/2000/svg">
<path d="M14.0004 4.48669C13.9871 4.48669 13.9671 4.48669 13.9471 4.48669C10.4204 4.13336 6.90043 4.00002 3.41377 4.35336L2.05377 4.48669C1.77377 4.51336 1.5271 4.31336 1.50043 4.03336C1.47377 3.75336 1.67377 3.51336 1.9471 3.48669L3.3071 3.35336C6.85377 2.99336 10.4471 3.13336 14.0471 3.48669C14.3204 3.51336 14.5204 3.76002 14.4938 4.03336C14.4738 4.29336 14.2538 4.48669 14.0004 4.48669Z" fill="#F26957"/>
<path d="M5.66651 3.81331C5.63984 3.81331 5.61318 3.81331 5.57984 3.80665C5.31318 3.75998 5.12651 3.49998 5.17318 3.23331L5.31984 2.35998C5.42651 1.71998 5.57318 0.833313 7.12651 0.833313H8.87318C10.4332 0.833313 10.5798 1.75331 10.6798 2.36665L10.8265 3.23331C10.8732 3.50665 10.6865 3.76665 10.4198 3.80665C10.1465 3.85331 9.88651 3.66665 9.84651 3.39998L9.69984 2.53331C9.60651 1.95331 9.58651 1.83998 8.87984 1.83998H7.13318C6.42651 1.83998 6.41318 1.93331 6.31318 2.52665L6.15984 3.39331C6.11984 3.63998 5.90651 3.81331 5.66651 3.81331Z" fill="#F26957"/>
<path d="M10.1396 15.1667H5.85961C3.53294 15.1667 3.43961 13.88 3.36627 12.84L2.93294 6.12666C2.91294 5.85332 3.12627 5.61332 3.39961 5.59332C3.67961 5.57999 3.91294 5.78666 3.93294 6.05999L4.36627 12.7733C4.43961 13.7867 4.46627 14.1667 5.85961 14.1667H10.1396C11.5396 14.1667 11.5663 13.7867 11.6329 12.7733L12.0663 6.05999C12.0863 5.78666 12.3263 5.57999 12.5996 5.59332C12.8729 5.61332 13.0863 5.84666 13.0663 6.12666L12.6329 12.84C12.5596 13.88 12.4663 15.1667 10.1396 15.1667Z" fill="#F26957"/>
<path d="M9.10672 11.5H6.88672C6.61339 11.5 6.38672 11.2733 6.38672 11C6.38672 10.7267 6.61339 10.5 6.88672 10.5H9.10672C9.38005 10.5 9.60672 10.7267 9.60672 11C9.60672 11.2733 9.38005 11.5 9.10672 11.5Z" fill="#F26957"/>
<path d="M9.66634 8.83331H6.33301C6.05967 8.83331 5.83301 8.60665 5.83301 8.33331C5.83301 8.05998 6.05967 7.83331 6.33301 7.83331H9.66634C9.93967 7.83331 10.1663 8.05998 10.1663 8.33331C10.1663 8.60665 9.93967 8.83331 9.66634 8.83331Z" fill="#F26957"/>
</svg>
