<svg width="1320" height="593" viewBox="0 0 1320 593" fill="none" xmlns="http://www.w3.org/2000/svg">
<rect width="1320" height="593" rx="32" fill="url(#paint0_linear_94_24529)"/>
<mask id="mask0_94_24529" style="mask-type:alpha" maskUnits="userSpaceOnUse" x="0" y="0" width="1320" height="593">
<rect width="1320" height="593" rx="32" fill="url(#paint1_linear_94_24529)"/>
</mask>
<g mask="url(#mask0_94_24529)">
<path d="M1055.7 296.475L1114.02 321.494C1114.02 321.494 1140.15 314.786 1142.51 317.842C1144.88 320.897 1138.32 323.618 1132.91 324.799C1132.91 324.799 1152.67 339.757 1153.94 342.73C1155.21 345.702 1149.78 348.629 1145.49 345.871C1145.49 345.871 1133.38 353.423 1128.81 351.95C1119.71 350.33 1116.53 346.312 1108.99 337.012C1108.99 337.012 1038.47 322.122 1031.65 313.415" fill="#E5B7AC"/>
<path d="M1031.08 311.847C1026.87 304.423 1022.43 246.342 1023.16 222.033C1023.37 215.28 1027.78 207.506 1035.88 207.204C1045.58 206.573 1047.79 214.026 1049.66 222.558L1057.37 298.654" fill="#E5B7AC"/>
<path d="M1003.78 591.788L1004.61 505.774C1007.97 501.861 1010.39 497.26 1011.37 492.199C1014.12 477.926 1017.37 463.214 1016.38 448.617C1015.81 440.25 1013.05 432.596 1008.46 426.476C1010.36 417.375 1012.26 408.271 1014.01 399.142C1016.59 385.753 1017.91 372.163 1021.42 358.957C1022.64 354.354 1022.93 349.795 1022.44 345.427L1031.44 367.963L1031.75 372.453L1040.88 503.124L1027.74 619.427L1025.06 643.347C1015.42 644.405 1012.93 642.974 1003.27 643.369L1003.51 619.426L1003.78 591.788Z" fill="#E5B7AC"/>
<path d="M945.97 600.947L946.806 514.933C950.163 511.019 952.585 506.42 953.563 501.359C956.315 487.086 959.568 472.374 958.574 457.776C958.003 449.409 955.237 441.755 950.657 435.635C952.553 426.535 954.452 417.43 956.206 408.301C958.781 394.913 960.103 381.323 963.609 368.118C964.832 363.515 965.125 358.956 964.632 354.589L973.632 377.124L973.941 381.613L983.072 512.285L969.934 628.587L967.251 652.508C957.612 653.565 955.125 652.135 945.465 652.531L945.706 628.586L945.97 600.947Z" fill="#E5B7AC"/>
<path d="M1050.16 385.955L1050.06 388.202L1049.8 393.549L1038.92 626.902L1000.38 628.738L1003.8 434.85L976.83 633.588L941.733 631.752L942.591 605.278L948.741 416.632L950.268 371.067L950.918 351.889L1050.16 385.955Z" fill="#7D5228"/>
<path opacity="0.4" d="M1003.79 435.676L1022.08 427.084L1011.87 444.65L1000.37 628.737L1003.79 435.676Z" fill="#BBBCBF"/>
<path opacity="0.4" d="M1055.28 389.093C1055.28 389.093 1053.57 390.978 1049.8 393.549C1040.24 400.13 1006.03 409.589 964.267 406.522L942.59 605.277L948.741 416.631L950.267 371.065L1050.06 388.201L1055.28 389.093Z" fill="#B6B6B6"/>
<path d="M1056.6 383.099C1055.76 383.898 1054.84 384.625 1053.81 385.32C1037.27 396.561 998.324 394.822 998.324 394.822C998.324 394.822 975.948 392.868 957.672 386.934C949.962 384.449 942.983 381.234 938.72 377.186L958.097 314.135L947.317 260.322L939.13 219.469C939.13 219.469 943.32 201.408 973.442 191.337C980.137 189.084 988.13 187.236 997.632 186.082C1011.49 189.386 1021.66 194.234 1028.23 198.157C1034.29 201.729 1041.14 207.929 1041.14 207.929C1048.28 222.082 1052.01 231.462 1052.94 238.812C1053.81 245.596 1052.31 250.694 1048.92 256.273C1046.53 260.215 1043.19 264.407 1039.05 269.59L1056.6 383.099Z" fill="#D68B33"/>
<path opacity="0.4" d="M1053.81 385.321C1037.27 396.561 998.323 394.822 998.323 394.822C998.323 394.822 975.947 392.868 957.671 386.934C949.961 384.449 942.982 381.234 938.719 377.186L958.096 314.135L947.316 260.322L964.631 220.023C964.631 220.023 984.542 365.408 1053.81 385.321Z" fill="#BBBCBF"/>
<path d="M1017.2 225.927C993.948 227.028 977.739 200.043 973.442 191.338C980.137 189.085 988.13 187.238 997.632 186.083C1011.49 189.387 1021.66 194.235 1028.23 198.158C1031.93 211.518 1032.98 225.161 1017.2 225.927Z" fill="#F2C9AD"/>
<path d="M1035.79 106.643C1035.79 106.643 1046.76 118.927 1042.11 136.827C1037.05 153.672 1039.72 158.102 1044.81 167.461C1049.9 176.818 1047.16 195.861 1024.27 194.586C1002.23 193.354 1007.94 169.671 1007.94 169.671L1012.48 106.344L1035.79 106.643Z" fill="#563B29"/>
<path d="M972.65 185.689C972.65 185.689 996.269 209.346 1008.71 208.235C1016.45 207.549 1016.32 192.075 1016.32 192.075L1015.43 181.488L1014.13 165.94L1013.48 158.108L995.843 162.551L976.816 142.803L976.112 150.854L975.111 162.423L974.631 166.976L972.65 185.689Z" fill="#F2C9AD"/>
<path opacity="0.4" d="M974.631 166.977C986.08 181.906 1008.49 191.356 1015.88 186.839L1014.13 165.939L996.269 168.717L976.111 150.853L975.11 162.422L974.631 166.977Z" fill="#CA7E86"/>
<path d="M979.265 142.864C979.265 142.864 972.596 129.542 963.9 133.399C955.204 137.254 966.537 159.359 979.914 153.62L979.265 142.864Z" fill="#F2C9AD"/>
<path d="M967.062 139.512C973.416 139.041 977.406 144.536 977.572 144.772C977.742 145.013 977.686 145.344 977.447 145.515C977.362 145.575 977.267 145.607 977.171 145.613C976.994 145.622 976.815 145.546 976.704 145.39C976.681 145.356 975.191 143.306 972.674 141.885C970.57 143.448 971.919 147.087 971.934 147.128C972.036 147.4 971.903 147.707 971.629 147.815C971.576 147.835 971.522 147.846 971.468 147.85C971.244 147.865 971.025 147.733 970.942 147.512C970.871 147.335 969.452 143.506 971.641 141.375C970.38 140.821 968.926 140.464 967.308 140.561C967.254 140.567 967.199 140.571 967.143 140.574C966.886 140.635 966.596 140.379 966.572 140.088C966.552 139.793 966.769 139.536 967.062 139.512Z" fill="#CA7E86"/>
<path d="M976.084 136.609C977.597 161.61 995.13 181.088 1012 180.069C1028.86 179.047 1038.68 157.916 1037.16 132.915C1035.65 107.912 1020.75 88.4737 1003.89 89.4919C987.019 90.515 974.572 111.608 976.084 136.609Z" fill="#F2C9AD"/>
<path d="M1024.01 158.923C1023.87 158.812 1023.7 158.766 1023.53 158.788C1023.35 158.811 1023.19 158.903 1023.09 159.041C1022.93 159.236 1019.23 163.821 1013.41 163.84C1013.39 163.84 1013.38 163.84 1013.37 163.84C1007.51 163.84 1004.65 159.209 1004.62 159.163C1004.43 158.854 1004.02 158.757 1003.71 158.936C1003.41 159.122 1003.3 159.53 1003.49 159.838C1003.62 160.056 1006.76 165.153 1013.37 165.153C1013.38 165.153 1013.4 165.153 1013.41 165.153C1019.99 165.134 1023.96 160.056 1024.13 159.838C1024.24 159.7 1024.29 159.526 1024.26 159.352C1024.24 159.182 1024.15 159.025 1024.01 158.923Z" fill="#CA7E86"/>
<path d="M1007.08 142.194C1007.02 140.949 1006.6 139.695 1005.76 138.653C1004.95 137.598 1003.55 136.803 1002.06 136.818C1000.5 136.818 999.124 137.806 998.451 138.928C997.71 140.038 997.415 141.312 997.424 142.555C998.828 140.577 1000.35 138.696 1002.07 138.762C1003.89 138.682 1005.56 140.267 1007.08 142.194Z" fill="#434244"/>
<path d="M997.66 141.261L994.184 140.977L997.422 142.554L997.66 141.261Z" fill="#434244"/>
<path d="M1030.88 141.301C1030.82 140.057 1030.41 138.806 1029.57 137.764C1028.76 136.707 1027.35 135.909 1025.86 135.925C1024.3 135.925 1022.93 136.915 1022.26 138.038C1021.51 139.147 1021.22 140.419 1021.23 141.661C1022.63 139.685 1024.16 137.801 1025.87 137.866C1027.7 137.794 1029.36 139.376 1030.88 141.301Z" fill="#434244"/>
<path d="M1030.41 140.057L1033.82 139.304L1030.82 141.306L1030.41 140.057Z" fill="#434244"/>
<path d="M1031.02 146.026C1031.1 146.533 1032.41 146.771 1033.95 146.551C1035.5 146.335 1036.69 145.745 1036.62 145.236C1036.55 144.726 1035.24 144.491 1033.69 144.708C1032.15 144.927 1030.95 145.515 1031.02 146.026Z" fill="#CA7E86"/>
<path d="M1030.75 149.078C1030.83 148.571 1032.14 148.337 1033.68 148.561C1035.23 148.782 1036.42 149.375 1036.35 149.881C1036.28 150.392 1034.97 150.624 1033.42 150.401C1031.87 150.182 1030.68 149.589 1030.75 149.078Z" fill="#CA7E86"/>
<path d="M993.106 148.919C993.034 148.411 991.721 148.172 990.175 148.392C988.629 148.61 987.436 149.2 987.505 149.707C987.579 150.218 988.89 150.454 990.435 150.236C991.981 150.019 993.176 149.43 993.106 148.919Z" fill="#CA7E86"/>
<path d="M993.375 145.867C993.302 146.374 991.99 146.606 990.444 146.386C988.898 146.163 987.706 145.57 987.778 145.062C987.852 144.552 989.163 144.32 990.709 144.542C992.256 144.762 993.448 145.355 993.375 145.867Z" fill="#CA7E86"/>
<path d="M1014.67 155.099C1014.74 155.099 1014.8 155.095 1014.86 155.09C1015.66 155.023 1017.55 154.341 1017.75 149.533C1018.09 141.664 1016.82 137.313 1016.76 137.129C1016.68 136.851 1016.39 136.685 1016.1 136.773C1015.82 136.857 1015.66 137.153 1015.75 137.434C1015.76 137.477 1017.02 141.815 1016.69 149.486C1016.55 152.728 1015.61 153.957 1014.77 154.03C1013.55 154.149 1011.7 152.052 1010.92 148.495C1010.86 148.206 1010.58 148.026 1010.29 148.087C1010 148.149 1009.82 148.434 1009.89 148.721C1010.7 152.466 1012.69 155.095 1014.67 155.099Z" fill="#CA7E86"/>
<path d="M998.736 130.047C1000.6 129.557 1002.65 129.961 1004.83 131.248C1005.59 131.698 1006.56 131.444 1007.01 130.686C1007.46 129.927 1007.21 128.947 1006.45 128.499C1003.5 126.756 1000.61 126.242 997.885 126.97C993.591 128.117 991.105 133.879 991.873 134.314C992.026 134.402 995.774 130.823 998.736 130.047Z" fill="#563B29"/>
<path d="M1029.16 129.352C1027.27 128.96 1025.24 129.473 1023.14 130.876C1022.4 131.364 1021.41 131.162 1020.92 130.425C1020.44 129.692 1020.64 128.701 1021.37 128.215C1024.23 126.318 1027.08 125.651 1029.84 126.236C1034.19 127.153 1036.98 132.778 1036.23 133.251C1036.08 133.349 1032.15 129.974 1029.16 129.352Z" fill="#563B29"/>
<path d="M987.323 117.728C987.323 117.728 1005.97 125.875 1015.1 121.477C1021.43 118.116 1012.96 110.814 1012.96 110.814C1012.96 110.814 1036.67 127.792 1049.14 119.132C1061.6 110.468 1053.11 91.0241 1028.54 88.3854C1028.54 88.3854 1012.41 69.8559 992.746 75.523C973.078 81.187 968.992 98.1502 968.992 98.1502L959.196 133.872C959.196 133.872 971.225 132.426 976.117 138.135C976.117 138.135 975.137 133.553 979.971 141.351C979.971 141.351 990.176 129.286 987.323 117.728Z" fill="#563B29"/>
<path d="M972.588 121.324C972.588 121.324 981.231 128.758 982.884 139.767C984.539 150.777 985.136 167.416 996.232 180.63C1007.33 193.842 987.81 205.756 970.919 203.034C954.025 200.316 947.395 183.669 951.778 171.556C956.164 159.443 961.195 149.189 959.604 136.993C947.381 106.732 960.004 101.747 969.399 95.7511C978.792 89.7587 972.588 121.324 972.588 121.324Z" fill="#563B29"/>
<path d="M1137.25 348.228L1144.33 634.708H1181.67L1188.14 408.442L1209.61 636.094L1245.93 633.587L1241.91 345.379L1137.25 348.228Z" fill="#563B29"/>
<path opacity="0.4" d="M1186.21 401.672C1221.3 396.367 1238.19 382.137 1238.19 382.137H1138.08L1142.96 579.534L1151.32 403.482C1163.05 403.939 1173.53 403.351 1182.83 402.139L1188.14 408.443L1205.68 583.346L1195.86 407.911L1186.21 401.672Z" fill="#BBBCBF"/>
<path d="M1123.81 211.277L1106.19 279.946C1106.19 279.946 1130.29 294.073 1147.13 291.668C1163.98 289.261 1136.39 215.299 1136.39 215.299L1123.81 211.277Z" fill="white"/>
<path d="M1244.62 328.188L1249.58 379.235C1235.19 393.229 1184.79 394.813 1184.79 394.813C1184.79 394.813 1144.96 397.648 1130.57 383.654L1140.22 293.967L1139.18 288.68L1123.81 211.268C1123.81 211.268 1154.44 181.584 1186.36 175.785C1220.6 181.506 1247.85 208.598 1247.85 208.598L1238.99 270.172L1244.62 328.188Z" fill="white"/>
<path d="M1166.47 180.164L1166.42 185.363C1166.42 185.363 1153.8 236.13 1154.88 251.743C1155.9 266.41 1150.63 383.1 1150.63 383.1C1141.02 380.935 1128.9 376.436 1119.69 372.735L1123.81 259.1L1122.49 209.338C1122.49 209.338 1159.49 180.504 1166.47 180.164Z" fill="#C28000"/>
<path opacity="0.4" d="M1249.58 379.235C1235.19 393.229 1184.79 394.813 1184.79 394.813C1184.79 394.813 1144.96 397.648 1130.57 383.654L1140.22 293.967L1139.18 288.68L1159.93 206.828C1159.93 206.828 1161.04 261.639 1172.76 292.212C1184.94 323.996 1208.4 331.527 1244.62 328.188L1249.58 379.235Z" fill="#BBBCBF"/>
<path d="M1207.46 182.117C1207.46 182.117 1184.8 204.815 1172.87 203.749C1165.44 203.094 1165.57 188.246 1165.57 188.246L1166.42 178.088L1167.66 163.167L1168.29 155.657L1185.21 159.921L1203.47 140.969L1204.14 148.693L1205.1 159.794L1205.57 164.165L1207.46 182.117Z" fill="#EBA58E"/>
<path d="M1255.99 365.779C1255.76 365.993 1255.52 366.188 1255.27 366.401C1248.06 372.615 1235.81 377.056 1223.57 380.163C1223.5 380.163 1223.45 380.181 1223.39 380.2C1215.76 382.136 1208.14 383.558 1201.76 384.552C1192.22 386.059 1185.44 386.647 1185.44 386.647C1185.37 386.399 1185.3 386.166 1185.23 385.918C1169.3 331.054 1179.69 244.831 1179.69 244.831C1184.61 222.682 1192.69 198.582 1207.46 177.499C1219.26 179.756 1256.96 209.337 1256.96 209.337C1256.62 222.659 1255.99 237.209 1256.62 260.53C1257.46 291.523 1256.54 329.353 1255.99 365.779Z" fill="#C28000"/>
<path opacity="0.4" d="M1210.83 242.407C1210.83 247.433 1206.75 251.507 1201.73 251.507C1196.7 251.507 1192.62 247.433 1192.62 242.407C1192.62 237.378 1196.7 233.305 1201.73 233.305C1206.75 233.305 1210.83 237.378 1210.83 242.407Z" fill="#BBBCBF"/>
<path d="M1209.43 240.561C1209.43 245.589 1205.36 249.666 1200.33 249.666C1195.3 249.666 1191.23 245.589 1191.23 240.561C1191.23 235.535 1195.3 231.461 1200.33 231.461C1205.36 231.462 1209.43 235.535 1209.43 240.561Z" fill="white"/>
<path d="M1204.13 236.797C1201.62 235.133 1200.07 238.123 1200.07 238.123C1200.07 238.123 1197.12 234.943 1195.27 237.25C1193.25 238.959 1197.77 244.497 1199.85 244.833C1201.48 244.724 1206.94 239.076 1204.13 236.797Z" fill="#C28000"/>
<path opacity="0.4" d="M1256.63 260.532L1255.99 365.779C1255.76 365.993 1255.52 366.188 1255.27 366.401C1249.47 371.197 1236.97 376.063 1223.57 380.163C1223.5 380.163 1223.45 380.181 1223.39 380.2C1215.76 382.136 1208.14 383.558 1201.76 384.552C1192.22 386.059 1185.44 386.647 1185.44 386.647C1185.37 386.399 1185.3 386.166 1185.23 385.918C1194.11 372.013 1217.39 342.44 1216.17 303.174C1214.25 241.898 1224.62 222.949 1224.62 222.949C1230.18 211.174 1255.99 237.21 1256.63 260.532Z" fill="#BBBCBF"/>
<path opacity="0.4" d="M1205.56 164.163C1189.14 177.215 1173.51 182.421 1166.42 178.087L1167.66 163.166L1184.8 165.834L1204.14 148.692L1205.1 159.794L1205.56 164.163Z" fill="#CA7E86"/>
<path d="M1161.88 262.711L1154.91 336.895L1153.14 355.797H1080.41L1080.26 312.23L1080.07 262.711H1161.88Z" fill="#B28052"/>
<path d="M1093.75 262.719L1091.64 340.882L1091.23 355.8H1013.85L1011.61 314.135H1011.59L1009.37 272.807C1009.36 272.664 1009.36 272.613 1009.36 272.613L1008.82 262.719H1093.75Z" fill="#C9A06C"/>
<path d="M1066.6 290.796H1032.53V324.876H1066.6V290.796Z" fill="white"/>
<path d="M1049.57 303.562C1049.57 291.681 1021.62 301.271 1049.57 320.019C1077.52 301.271 1049.57 291.681 1049.57 303.562Z" fill="#C28000"/>
<path d="M1135.68 284.268H1120.7L1121.84 262.719H1136.83L1135.68 284.268Z" fill="#DCBF9B"/>
<path d="M1131.91 355.42H1116.93L1118.2 331.424H1133.18L1131.91 355.42Z" fill="#DCBF9B"/>
<path opacity="0.2" d="M1086.34 355.8H1013.85L1011.61 314.135L1086.34 355.8Z" fill="#C9A06C"/>
<path d="M1222.6 244.323L1218.43 301.93L1161.71 329.64C1161.71 329.64 1135.26 324.286 1133.06 327.46C1130.85 330.63 1137.55 333.009 1143.01 333.912C1143.01 333.912 1124.04 349.867 1122.93 352.9C1121.81 355.935 1127.39 358.575 1131.52 355.601C1131.52 355.601 1144 362.522 1148.5 360.817C1157.5 358.732 1160.47 354.555 1167.52 344.876C1167.52 344.876 1237.55 326.195 1243.69 316.997C1249.83 307.798 1251.94 257.226 1251.94 257.226L1222.6 244.323Z" fill="#EBA58E"/>
<path opacity="0.4" d="M1218.9 295.393L1249.52 289.621L1250 284.945L1219.54 286.63L1218.9 295.393Z" fill="#CA7E86"/>
<path d="M1213.8 240.257L1216.48 288.203L1259.66 284.561L1257.37 229.784C1257.37 229.784 1252.7 204.751 1235.57 206.828C1227.46 207.808 1213.8 217.037 1213.8 240.257Z" fill="white"/>
<path d="M1141.95 99.3975C1141.95 99.3975 1131.66 113.728 1142.09 128.491C1152.93 143.825 1141.95 99.3975 1141.95 99.3975Z" fill="#3A3A3A"/>
<path d="M1169.19 87.7863C1169.19 87.7802 1169.19 87.7672 1169.19 87.7672C1169.19 87.7672 1192.88 81.8099 1205.41 110.322C1205.41 110.322 1212.86 128.758 1205.19 146.65C1205.19 146.65 1188.61 170.335 1169.19 177.032C1155.57 181.232 1144.59 156.741 1141.5 132.31C1139.59 109.8 1146.52 89.6037 1169.19 87.7863Z" fill="#EBA58E"/>
<path d="M1167.03 157.436C1174.39 157.414 1178.8 151.75 1178.98 151.511C1179.14 151.298 1179.1 150.995 1178.89 150.833C1178.68 150.67 1178.37 150.71 1178.21 150.924C1178.17 150.98 1173.9 156.448 1167.03 156.47C1160.18 156.491 1156.87 151.093 1156.84 151.038C1156.7 150.808 1156.4 150.734 1156.17 150.869C1155.94 151.007 1155.87 151.305 1156.01 151.537C1156.15 151.778 1159.64 157.461 1167.03 157.436Z" fill="#B76C77"/>
<path d="M1203.53 137.09V148.14C1212.87 151.501 1220.54 142.286 1221.94 134.754C1222.63 130.955 1221.74 127.591 1218.68 126.435C1212.22 124.035 1207.35 130.323 1205.04 134.231C1204.05 135.866 1203.53 137.09 1203.53 137.09Z" fill="#EBA58E"/>
<path d="M1215.82 132.903C1209.29 132.816 1205.54 138.691 1205.38 138.941C1205.23 139.198 1205.3 139.534 1205.56 139.694C1205.65 139.751 1205.75 139.776 1205.85 139.776C1206.03 139.776 1206.21 139.687 1206.31 139.519C1206.33 139.485 1207.73 137.292 1210.22 135.681C1212.47 137.152 1211.32 140.963 1211.3 141.003C1211.21 141.289 1211.37 141.595 1211.66 141.688C1211.72 141.707 1211.77 141.715 1211.83 141.715C1212.06 141.715 1212.27 141.568 1212.35 141.335C1212.41 141.149 1213.62 137.139 1211.25 135.094C1212.5 134.451 1213.97 133.992 1215.64 133.992C1215.69 133.992 1215.75 133.995 1215.8 133.995C1216.07 134.045 1216.35 133.763 1216.36 133.46C1216.36 133.158 1216.12 132.909 1215.82 132.903Z" fill="#B76C77"/>
<path d="M1187.3 141.866C1187.37 142.386 1188.72 142.629 1190.31 142.401C1191.89 142.178 1193.12 141.57 1193.04 141.046C1192.97 140.526 1191.62 140.285 1190.03 140.511C1188.45 140.738 1187.23 141.343 1187.3 141.866Z" fill="#B76C77"/>
<path d="M1187.03 144.998C1187.1 144.475 1188.45 144.237 1190.03 144.464C1191.62 144.688 1192.84 145.295 1192.77 145.819C1192.7 146.339 1191.35 146.581 1189.76 146.354C1188.18 146.125 1186.95 145.52 1187.03 144.998Z" fill="#B76C77"/>
<path d="M1150.35 144.998C1150.28 144.475 1148.93 144.237 1147.35 144.464C1145.76 144.688 1144.54 145.295 1144.61 145.819C1144.69 146.339 1146.03 146.581 1147.62 146.354C1149.2 146.125 1150.43 145.52 1150.35 144.998Z" fill="#B76C77"/>
<path d="M1150.63 141.866C1150.55 142.386 1149.21 142.629 1147.62 142.401C1146.04 142.178 1144.81 141.57 1144.88 141.046C1144.96 140.526 1146.3 140.285 1147.89 140.511C1149.47 140.738 1150.7 141.343 1150.63 141.866Z" fill="#B76C77"/>
<path d="M1179.42 134.161C1179.42 137.861 1180.29 140.861 1181.37 140.861C1182.45 140.861 1183.33 137.861 1183.33 134.161C1183.33 130.457 1182.45 127.457 1181.37 127.457C1180.29 127.457 1179.42 130.457 1179.42 134.161Z" fill="#434244"/>
<path d="M1154.2 134.624C1154.2 138.328 1154.98 141.334 1155.94 141.334C1156.9 141.334 1157.68 138.328 1157.68 134.624C1157.68 130.918 1156.9 127.914 1155.94 127.914C1154.98 127.915 1154.2 130.918 1154.2 134.624Z" fill="#434244"/>
<path d="M1165.09 149.166C1165.03 149.166 1164.96 149.164 1164.89 149.157C1164.07 149.087 1162.14 148.386 1161.94 143.454C1161.6 135.38 1162.91 130.916 1162.97 130.732C1163.05 130.444 1163.36 130.276 1163.65 130.364C1163.93 130.451 1164.1 130.756 1164.01 131.044C1164 131.086 1162.7 135.541 1163.03 143.409C1163.16 146.733 1164.13 147.995 1164.99 148.073C1166.24 148.198 1168.14 146.047 1168.94 142.4C1169.01 142.106 1169.3 141.921 1169.59 141.984C1169.89 142.049 1170.07 142.339 1170.01 142.636C1169.17 146.472 1167.12 149.166 1165.09 149.166Z" fill="#B76C77"/>
<path d="M1147.39 127.915C1147.99 127.915 1149.81 124.041 1152.33 122.833C1153.91 122.071 1155.81 122.076 1157.98 122.851C1158.74 123.123 1159.57 122.726 1159.84 121.97C1160.11 121.211 1159.72 120.381 1158.96 120.111C1156.01 119.062 1153.35 119.102 1151.03 120.223C1147.39 121.999 1147.23 127.915 1147.39 127.915Z" fill="#3A3A3A"/>
<path d="M1189.89 128.411C1190.74 128.123 1189.37 121.833 1185.27 119.84C1182.66 118.573 1179.66 118.529 1176.34 119.711C1175.49 120.013 1175.05 120.951 1175.35 121.802C1175.65 122.655 1176.59 123.102 1177.44 122.796C1179.9 121.921 1182.05 121.918 1183.83 122.787C1186.67 124.163 1189.72 128.469 1189.89 128.411Z" fill="#3A3A3A"/>
<path d="M1217.87 106.374C1220.77 91.493 1209.51 82.0947 1199.6 82.6119C1193.28 67.1217 1169.66 69.8539 1155.75 75.1012L1157.68 64C1144.2 67.9983 1143.39 83.2234 1143.37 83.2444L1140.46 69.9292C1131.09 78.1436 1136.32 92.7954 1136.32 92.7954L1129.1 87.6454C1127.74 98.593 1141.2 107.177 1141.2 107.177C1149.35 112.211 1191.43 105.231 1192.77 106.147C1192.77 109.254 1193.56 121.125 1200.64 125.903C1200.64 125.903 1198.42 136.67 1202.19 148.296C1202.19 148.296 1204.42 133.451 1208.19 129.919C1211.95 126.385 1214.69 125.903 1214.69 125.903L1217.87 106.374Z" fill="#3A3A3A"/>
<path d="M968.033 222.965L971.203 298.945L1024.98 332.022C1024.98 332.022 1051.82 329.254 1053.7 332.628C1055.59 335.998 1048.7 337.719 1043.17 338.086C1043.17 338.086 1060.5 355.803 1061.32 358.932C1062.14 362.06 1056.33 364.147 1052.5 360.785C1052.5 360.785 1039.41 366.464 1035.1 364.332C1026.34 361.385 1023.79 356.938 1017.72 346.626C1017.72 346.626 949.825 321.249 944.603 311.501C940.571 303.974 937.548 245.798 938.871 221.516C939.239 214.769 944.306 208.03 952.417 207.923C960.529 207.818 968.069 215.007 968.033 222.965Z" fill="#F2C9AD"/>
</g>
<defs>
<linearGradient id="paint0_linear_94_24529" x1="-65" y1="-5.09163e-05" x2="1462.74" y2="390.058" gradientUnits="userSpaceOnUse">
<stop stop-color="#F26957"/>
<stop offset="1" stop-color="#FFA00E"/>
</linearGradient>
<linearGradient id="paint1_linear_94_24529" x1="-65" y1="-5.09163e-05" x2="1462.74" y2="390.058" gradientUnits="userSpaceOnUse">
<stop stop-color="#F26957"/>
<stop offset="1" stop-color="#FFA00E"/>
</linearGradient>
</defs>
</svg>
