<svg width="1320" height="593" viewBox="0 0 1320 593" fill="none" xmlns="http://www.w3.org/2000/svg">
<rect width="1320" height="593" rx="32" fill="url(#paint0_linear_0_17)"/>
<mask id="mask0_0_17" style="mask-type:alpha" maskUnits="userSpaceOnUse" x="0" y="0" width="1320" height="593">
<rect width="1320" height="593" rx="32" fill="url(#paint1_linear_0_17)"/>
</mask>
<g mask="url(#mask0_0_17)">
<path d="M1114.71 203.761C1114.71 203.761 1082.26 251.184 1102.31 291.566C1122.37 331.948 1130.41 301.844 1130.41 301.844V215.542L1114.71 203.761Z" fill="#CC1F28"/>
<path d="M1245.42 563.492V596.05L1203.55 594.459V574.884L1245.42 563.492Z" fill="#1A1A1A"/>
<path d="M1181.79 575.497V596.05H1140.33L1140.38 556.196L1181.79 575.497Z" fill="#1A1A1A"/>
<path d="M1162.14 172.065L1117.32 200.67C1115.58 201.779 1114.46 203.626 1114.28 205.676C1111.36 238.529 1088.7 509.733 1133.43 544.146C1181.07 580.788 1212.29 462.089 1212.29 462.089L1234.62 261.789L1206.26 166.765L1163.93 172.389L1162.14 172.065Z" fill="#F0373A"/>
<path d="M1121.39 520.203C1121.39 520.611 1121.38 521.013 1121.4 521.43C1121.5 523.687 1121.87 525.929 1122.36 528.166C1117.11 516.036 1113.39 498.955 1110.84 478.901C1104.84 431.873 1105.26 368.496 1107.41 314.285C1107.66 308 1107.93 301.835 1108.22 295.835C1108.44 291.208 1108.67 286.68 1108.91 282.266C1110.96 244.296 1113.46 214.847 1114.29 205.528C1114.47 203.571 1115.54 201.806 1117.19 200.748C1117.56 204.705 1118.33 208.759 1118.75 212.707C1119.01 215.029 1119.14 217.306 1119.01 219.512C1118.65 225.331 1116.43 230.141 1116.82 236.218C1117.13 241.078 1119.08 245.899 1119.44 250.767C1119.86 256.433 1118.06 261.198 1118.01 266.743C1117.95 273.204 1120.25 279.978 1120.55 286.544C1120.87 293.461 1118.93 299.554 1119.47 306.516C1120.06 313.939 1123.4 321.439 1123.25 328.656C1123.12 334.587 1120.62 339.491 1121.51 345.607C1122.05 349.351 1123.82 352.905 1124.04 356.624C1124.27 360.323 1122.92 363.172 1122.2 366.389C1119.78 377.233 1124.34 390.488 1123.47 401.943C1123.03 407.954 1120.17 410.991 1119.51 417.099C1118.79 423.706 1119.29 430.905 1120.11 437.967C1121.34 448.481 1118.51 457.668 1119.51 468.158C1120.15 475.01 1122.38 481.743 1123.44 488.602C1124.28 494.044 1124.36 499.528 1123.67 504.498C1122.94 509.773 1121.38 514.597 1121.39 520.203H1121.39Z" fill="#F0373A"/>
<path d="M1162.96 545.857C1162.99 546.771 1162.91 547.634 1162.79 548.472C1157.4 551.087 1151.64 551.954 1145.55 550.378C1145.92 544.712 1146.81 539.199 1146.08 533.282C1145.4 527.723 1143.32 522.312 1142.69 516.758C1142.54 515.373 1142.48 514.022 1142.48 512.694C1143.4 512.365 1144.32 512.029 1145.23 511.699C1144.32 512.028 1143.4 512.36 1142.49 512.686C1142.5 505.335 1144.61 498.699 1144.74 491.239C1144.89 481.663 1141.82 471.671 1140.63 461.815C1139.93 456.064 1140.03 450.279 1140.19 444.519C1140.38 436.623 1140.67 428.727 1139.12 420.877C1138.16 416.02 1136.5 412.92 1136.38 407.827C1136.22 401.126 1137.04 394.868 1136.18 387.969C1135.38 381.378 1133.27 374.902 1132.6 368.335C1131.68 359.114 1133.71 350.752 1133.38 341.607C1133.06 332.76 1130.54 323.676 1130.15 314.824C1129.7 304.401 1132.22 295.045 1131.52 284.567C1130.97 276.24 1128.41 267.761 1128.16 259.494C1127.97 253.067 1129.19 247.219 1129.22 240.869C1129.28 231.752 1126.9 222.146 1126.61 212.905C1126.6 212.783 1126.6 212.679 1126.6 212.556C1126.44 206.073 1127.29 200.021 1127.96 193.877L1137.45 187.823C1136.85 193.68 1135.42 199.174 1135.99 205.422C1136.23 208.047 1136.81 210.657 1137.42 213.279C1138.11 216.305 1138.83 219.313 1139.06 222.344C1139.56 229.239 1137.48 235.063 1137.4 241.792C1137.3 250.495 1140.51 259.673 1140.8 268.492C1141.12 278.517 1137.63 286.99 1138.59 297.135C1139.24 303.865 1141.78 310.429 1142.55 317.169C1143.55 325.815 1141.51 333.578 1141.57 342.058C1141.66 355.554 1147.02 369.899 1146.52 383.181C1146.31 388.636 1145.11 393.758 1145.75 399.413C1146.4 405.071 1148.82 410.693 1148.79 416.2C1148.76 419.599 1147.78 422.463 1147.3 425.634C1146.2 432.933 1148.22 440.954 1148.08 448.542C1147.77 465.493 1151.39 484.609 1156 501.473C1156.51 503.375 1157.06 505.271 1157.57 507.176C1156.45 507.589 1155.34 508.003 1154.22 508.414C1155.34 508.003 1156.45 507.596 1157.56 507.184C1158.44 510.512 1159.18 513.867 1159.39 517.242C1159.72 522.502 1158.73 527.566 1159.76 532.849C1160.62 537.265 1162.86 541.466 1162.96 545.857Z" fill="#F0373A"/>
<path d="M1187.19 522.965C1183.85 528.432 1180.21 533.516 1176.3 537.819C1175.24 534.866 1174.12 531.916 1173.35 528.844C1171.25 520.572 1171.71 511.834 1169.5 503.603C1169.43 503.321 1169.33 503.047 1169.26 502.768H1169.26C1167.59 497.066 1164.85 491.878 1163.7 485.987C1162.27 478.588 1161.6 471.284 1161.01 463.862C1160.57 458.411 1161.1 453.172 1160.2 447.725C1159.91 446.007 1159.69 444.293 1159.5 442.589C1158.75 435.39 1158.86 428.285 1159.15 421.357C1159.48 413.381 1160.66 406.823 1158.87 398.173C1157.61 392.146 1155.36 386.014 1155.62 380.164C1155.85 375.11 1157.5 371.674 1157.59 366.33C1157.67 360.091 1157.02 353.594 1155.65 347.254C1154.57 342.212 1153.03 337.258 1152.36 332.168C1151.41 324.85 1152.3 317.908 1152.17 310.71C1151.95 300.417 1149.63 289.852 1148.51 279.405C1148.09 275.462 1147.83 271.49 1148.13 267.756C1148.56 262.116 1150.23 257.271 1150.75 251.65C1151.8 240.055 1147.84 227.104 1146.99 214.809C1146.9 213.561 1146.85 212.323 1146.84 211.095C1146.77 204.219 1147.98 197.9 1148.22 191.12C1148.33 187.841 1148.22 184.493 1147.96 181.115L1161.1 172.729C1160.68 177.072 1159.6 181.054 1159.62 185.596C1159.63 192.414 1162.05 199.618 1162.06 206.439C1162.04 210.678 1161.09 214.432 1160.58 218.416C1160.41 219.646 1160.3 220.898 1160.27 222.186C1160.05 230.649 1163.36 239.823 1163.13 248.287C1162.94 254.828 1160.66 260.182 1160.72 266.812C1160.79 272.811 1162.76 278.962 1163.44 285.069C1164.21 291.861 1163.35 298.251 1163.02 304.765C1162.46 315.967 1166.82 325.375 1167.2 336.373C1167.41 342.24 1166.96 347.899 1167.23 353.769C1167.62 362.164 1169.48 370.729 1169.86 379.108C1170.29 387.953 1169.09 396.52 1170.64 405.407C1172.13 414.009 1176.05 421.956 1177.13 430.569C1178.1 438.445 1176.56 445.744 1177.11 453.581C1177.98 466.17 1184.06 478.37 1184.95 490.955C1185.08 492.827 1185.09 494.673 1185.05 496.507C1180.9 498.199 1176.73 499.859 1172.56 501.487C1176.73 499.863 1180.9 498.206 1185.05 496.509C1184.9 502.845 1184.1 509.023 1185.2 515.513C1185.63 518.081 1186.34 520.549 1187.19 522.965Z" fill="#F0373A"/>
<path d="M1211.6 464.563C1210.4 468.752 1207.66 477.841 1203.55 488.623V488.624C1202.06 492.531 1200.39 496.659 1198.54 500.858C1198.41 500.348 1198.29 499.832 1198.18 499.307C1197.64 496.59 1197.5 493.921 1197.53 491.269C1198.81 490.714 1200.09 490.155 1201.37 489.589C1200.09 490.152 1198.81 490.709 1197.53 491.262C1197.6 485.835 1198.41 480.473 1197.95 474.868C1197.08 464.054 1191.72 454.121 1189.49 443.397C1189.37 442.824 1189.26 442.247 1189.16 441.671C1187.27 430.825 1189.08 420.751 1187.87 410.021C1186.71 399.793 1184.23 389.979 1181.39 380.112C1178.98 371.693 1176.92 363.274 1177.67 355.059C1178.43 346.544 1177.11 336.433 1175.02 327.614C1173.71 322.09 1171.94 316.443 1171.95 310.975C1171.97 307.156 1172.87 303.799 1173.03 300.041C1173.4 291.514 1170 282.269 1169.88 273.54C1169.8 268.563 1170.81 264.094 1171.27 259.363C1171.86 253.325 1171.56 246.756 1170.38 240.325C1169.35 234.571 1167.61 228.41 1168.53 223.27C1168.64 222.652 1168.78 222.079 1168.95 221.518C1169.46 219.802 1170.15 218.243 1170.49 216.364C1171.72 209.831 1168.71 201.933 1167.7 194.539C1167 189.477 1167.26 184.549 1167.78 179.844L1177.16 233.468C1177.08 234.536 1177.03 235.618 1177.01 236.722C1176.89 248.592 1181.66 260.944 1182.57 273.086C1183.3 282.837 1181.53 292.29 1183.69 301.954C1184.94 307.546 1187.42 312.665 1188.45 318.299C1189.51 324.031 1188.97 329.479 1189.04 335.022C1189.11 341.476 1190.61 348.723 1191.06 355.381C1191.57 362.841 1192.04 370.483 1194.15 377.854C1195.99 384.242 1198.98 390.14 1200.02 396.738C1201.14 403.954 1199.76 411.078 1201.53 418.15C1203.23 425.004 1207.5 430.124 1209.35 436.914C1211.63 445.238 1209.73 453.766 1211.15 462.312C1211.28 463.07 1211.43 463.82 1211.6 464.563Z" fill="#F0373A"/>
<path d="M1211.15 462.312C1209.73 453.766 1211.63 445.238 1209.35 436.914C1207.5 430.124 1203.23 425.004 1201.53 418.15C1199.76 411.078 1201.14 403.954 1200.02 396.738C1198.98 390.14 1195.99 384.242 1194.15 377.854C1192.04 370.483 1191.57 362.841 1191.06 355.381C1190.61 348.723 1189.11 341.476 1189.04 335.022C1188.97 329.479 1189.51 324.031 1188.45 318.299C1187.42 312.665 1184.94 307.546 1183.69 301.954C1181.53 292.29 1183.3 282.837 1182.57 273.086C1181.66 260.944 1176.89 248.592 1177.01 236.722C1177.03 235.618 1177.08 234.536 1177.16 233.468L1167.78 179.844C1167.26 184.549 1167 189.477 1167.7 194.539C1168.71 201.933 1171.72 209.831 1170.49 216.364C1170.15 218.243 1169.46 219.802 1168.95 221.518C1168.78 222.079 1168.64 222.652 1168.53 223.27C1167.61 228.41 1169.35 234.571 1170.38 240.325C1171.56 246.756 1171.86 253.325 1171.27 259.363C1170.81 264.094 1169.8 268.563 1169.88 273.54C1170 282.269 1173.4 291.514 1173.03 300.041C1172.87 303.799 1171.97 307.156 1171.95 310.975C1171.94 316.443 1173.71 322.09 1175.02 327.614C1177.11 336.433 1178.43 346.544 1177.67 355.059C1176.92 363.274 1178.98 371.693 1181.39 380.112C1184.23 389.979 1186.71 399.793 1187.87 410.021C1189.08 420.751 1187.27 430.825 1189.16 441.671C1189.26 442.247 1189.37 442.824 1189.49 443.397C1191.72 454.121 1197.08 464.054 1197.95 474.868C1198.41 480.473 1197.6 485.835 1197.53 491.262C1198.81 490.709 1200.09 490.152 1201.37 489.589C1202.1 489.269 1202.82 488.946 1203.55 488.623C1207.66 477.841 1210.4 468.752 1211.6 464.565V464.563C1211.43 463.82 1211.28 463.07 1211.15 462.312ZM1210.61 485.416C1209.12 486.101 1207.64 486.782 1206.15 487.454C1207.64 486.784 1209.12 486.103 1210.61 485.416ZM1198.18 499.307C1198.29 499.832 1198.41 500.348 1198.54 500.858C1200.39 496.659 1202.06 492.531 1203.55 488.624C1202.82 488.95 1202.1 489.272 1201.37 489.589C1200.09 490.155 1198.81 490.714 1197.53 491.269C1197.5 493.921 1197.64 496.59 1198.18 499.307ZM1206.15 487.454C1207.64 486.784 1209.12 486.103 1210.61 485.416C1209.12 486.101 1207.64 486.782 1206.15 487.454Z" fill="#FF750A"/>
<path d="M1231.18 542.091L1230.16 536.311C1230.54 537.647 1230.83 539.014 1231.01 540.423C1231.09 540.981 1231.14 541.537 1231.18 542.091Z" fill="#FF750A"/>
<path d="M1187.19 522.965C1183.85 528.432 1180.21 533.516 1176.3 537.819C1175.24 534.866 1174.12 531.916 1173.35 528.844C1171.25 520.572 1171.71 511.834 1169.5 503.603C1169.43 503.321 1169.33 503.047 1169.26 502.768H1169.26C1167.59 497.066 1164.85 491.878 1163.7 485.987C1162.27 478.588 1161.6 471.284 1161.01 463.862C1160.57 458.411 1161.1 453.172 1160.2 447.725C1159.91 446.007 1159.69 444.293 1159.5 442.589C1158.75 435.39 1158.86 428.285 1159.15 421.357C1159.48 413.381 1160.66 406.823 1158.87 398.174C1157.61 392.146 1155.36 386.014 1155.62 380.164C1155.85 375.11 1157.5 371.674 1157.59 366.33C1157.67 360.091 1157.02 353.594 1155.65 347.254C1154.57 342.212 1153.03 337.258 1152.36 332.168C1151.41 324.85 1152.3 317.908 1152.17 310.71C1151.95 300.417 1149.63 289.852 1148.51 279.405C1148.09 275.462 1147.83 271.49 1148.13 267.756C1148.56 262.116 1150.23 257.271 1150.75 251.65C1151.8 240.055 1147.84 227.104 1146.99 214.809C1146.9 213.561 1146.85 212.323 1146.84 211.095C1146.77 204.219 1147.98 197.9 1148.22 191.12C1148.33 187.841 1148.22 184.493 1147.96 181.115L1161.1 172.729C1160.68 177.072 1159.6 181.054 1159.62 185.596C1159.63 192.414 1162.05 199.618 1162.06 206.439C1162.04 210.678 1161.09 214.432 1160.58 218.416C1160.41 219.646 1160.3 220.898 1160.27 222.186C1160.05 230.649 1163.36 239.823 1163.13 248.287C1162.94 254.828 1160.66 260.182 1160.72 266.812C1160.79 272.811 1162.76 278.962 1163.44 285.069C1164.21 291.861 1163.35 298.251 1163.02 304.765C1162.46 315.967 1166.82 325.375 1167.2 336.373C1167.41 342.24 1166.96 347.899 1167.23 353.769C1167.62 362.164 1169.48 370.729 1169.86 379.108C1170.29 387.953 1169.09 396.52 1170.64 405.407C1172.13 414.009 1176.05 421.956 1177.13 430.569C1178.1 438.445 1176.56 445.744 1177.11 453.581C1177.98 466.17 1184.06 478.37 1184.95 490.955C1185.08 492.827 1185.09 494.673 1185.05 496.507C1180.9 498.199 1176.73 499.859 1172.56 501.487C1176.73 499.863 1180.9 498.206 1185.05 496.509C1184.9 502.845 1184.1 509.023 1185.2 515.513C1185.63 518.081 1186.34 520.549 1187.19 522.965Z" fill="#FF750A"/>
<path d="M1194.06 568.314L1193.41 568.441C1193.62 568.352 1193.84 568.262 1194.06 568.174C1194.06 568.221 1194.06 568.268 1194.06 568.314Z" fill="#FF750A"/>
<path d="M1121.39 520.203C1121.39 520.611 1121.38 521.013 1121.4 521.43C1121.5 523.687 1121.87 525.929 1122.36 528.166C1117.11 516.036 1113.39 498.955 1110.84 478.901C1110.79 471.003 1110.68 463.069 1110.64 455.171C1110.59 447.307 1111.58 440.114 1110.2 432.107C1108.58 422.584 1107.12 413.026 1107.82 403.839C1108.2 398.932 1109.16 394.329 1109.25 389.287C1109.41 379.551 1106.28 369.021 1106.75 359.438C1107.06 353.069 1108.94 347.672 1109.41 341.374C1110.06 332.764 1108.01 323.351 1107.41 314.285C1107.34 313.191 1107.28 312.102 1107.26 311.02C1107.16 305.781 1107.72 300.82 1108.22 295.835C1108.66 291.442 1109.06 287.029 1108.92 282.397C1108.92 282.354 1108.91 282.309 1108.91 282.266C1110.96 244.296 1113.46 214.847 1114.29 205.528C1114.47 203.571 1115.54 201.806 1117.19 200.748C1117.56 204.705 1118.33 208.759 1118.75 212.707C1119.01 215.029 1119.14 217.306 1119.01 219.512C1118.65 225.331 1116.43 230.141 1116.82 236.218C1117.13 241.078 1119.08 245.899 1119.44 250.767C1119.86 256.433 1118.06 261.198 1118.01 266.743C1117.95 273.204 1120.25 279.978 1120.55 286.544C1120.87 293.461 1118.93 299.554 1119.47 306.516C1120.06 313.939 1123.4 321.439 1123.25 328.656C1123.12 334.587 1120.62 339.491 1121.51 345.608C1122.05 349.351 1123.82 352.905 1124.04 356.624C1124.27 360.323 1122.92 363.172 1122.2 366.389C1119.78 377.233 1124.34 390.488 1123.47 401.943C1123.03 407.954 1120.17 410.991 1119.51 417.099C1118.79 423.707 1119.29 430.905 1120.11 437.967C1121.34 448.481 1118.51 457.668 1119.51 468.158C1120.15 475.01 1122.38 481.743 1123.44 488.602C1124.28 494.044 1124.36 499.528 1123.67 504.498C1122.94 509.773 1121.38 514.597 1121.39 520.203H1121.39Z" fill="#FF750A"/>
<path d="M1159.76 532.849C1158.73 527.566 1159.72 522.502 1159.39 517.242C1159.18 513.867 1158.44 510.512 1157.56 507.184C1156.45 507.596 1155.34 508.003 1154.22 508.414C1155.34 508.003 1156.45 507.589 1157.57 507.176C1157.06 505.271 1156.51 503.375 1156 501.473C1151.39 484.609 1147.77 465.493 1148.08 448.542C1148.22 440.954 1146.2 432.933 1147.3 425.634C1147.78 422.463 1148.76 419.599 1148.79 416.2C1148.82 410.693 1146.4 405.071 1145.75 399.413C1145.11 393.758 1146.31 388.636 1146.52 383.181C1147.02 369.899 1141.66 355.554 1141.57 342.058C1141.51 333.578 1143.55 325.815 1142.55 317.169C1141.78 310.429 1139.24 303.865 1138.59 297.135C1137.63 286.99 1141.12 278.517 1140.8 268.492C1140.51 259.673 1137.3 250.495 1137.4 241.792C1137.48 235.063 1139.56 229.239 1139.06 222.344C1138.83 219.313 1138.11 216.306 1137.42 213.279C1136.81 210.657 1136.23 208.047 1135.99 205.422C1135.42 199.174 1136.85 193.68 1137.45 187.823L1127.96 193.877C1127.29 200.021 1126.44 206.073 1126.6 212.556C1126.6 212.679 1126.6 212.783 1126.61 212.905C1126.9 222.146 1129.28 231.752 1129.22 240.869C1129.19 247.219 1127.97 253.067 1128.16 259.495C1128.41 267.761 1130.97 276.24 1131.52 284.567C1132.22 295.045 1129.7 304.401 1130.15 314.824C1130.54 323.676 1133.06 332.761 1133.38 341.608C1133.71 350.752 1131.68 359.114 1132.6 368.336C1133.27 374.902 1135.38 381.378 1136.18 387.969C1137.04 394.868 1136.22 401.126 1136.38 407.827C1136.5 412.92 1138.16 416.02 1139.12 420.877C1140.67 428.727 1140.38 436.623 1140.19 444.519C1140.03 450.279 1139.93 456.064 1140.63 461.815C1141.82 471.672 1144.89 481.663 1144.74 491.239C1144.61 498.699 1142.5 505.335 1142.49 512.686C1143.4 512.36 1144.32 512.028 1145.23 511.699C1144.32 512.029 1143.4 512.365 1142.48 512.694C1142.48 514.022 1142.54 515.373 1142.69 516.758C1143.32 522.312 1145.4 527.723 1146.08 533.282C1146.81 539.199 1145.92 544.712 1145.55 550.378C1151.64 551.954 1157.4 551.087 1162.79 548.472C1162.91 547.634 1162.99 546.771 1162.96 545.857C1162.86 541.466 1160.62 537.265 1159.76 532.849Z" fill="#FF750A"/>
<path opacity="0.25" d="M1234.62 261.787L1207.53 171.023L1206.27 170.162L1202.09 167.317L1191.78 168.687C1186.1 179.02 1178.95 192.928 1171.72 209.694C1144.14 273.621 1147.24 305.063 1128.25 448.315C1123.75 482.344 1120.36 504.833 1119.52 520.698C1119.55 520.786 1119.58 520.876 1119.61 520.965C1119.74 521.339 1119.87 521.711 1119.99 522.08C1120.03 522.179 1120.06 522.276 1120.1 522.374C1120.2 522.66 1120.3 522.944 1120.41 523.226C1120.46 523.368 1120.51 523.51 1120.56 523.652C1120.65 523.895 1120.74 524.137 1120.83 524.376C1120.88 524.513 1120.94 524.651 1120.99 524.788C1121.09 525.071 1121.2 525.349 1121.31 525.626C1121.35 525.711 1121.38 525.796 1121.41 525.879C1121.55 526.233 1121.69 526.584 1121.84 526.93C1121.88 527.034 1121.92 527.138 1121.97 527.242C1122.07 527.495 1122.18 527.746 1122.29 527.994C1122.31 528.051 1122.34 528.111 1122.36 528.168C1122.36 528.167 1122.36 528.163 1122.36 528.162C1125.48 535.383 1129.15 540.853 1133.43 544.148C1137.6 547.355 1141.64 549.369 1145.55 550.38C1145.57 550.387 1145.6 550.392 1145.62 550.398C1145.77 550.436 1145.91 550.47 1146.06 550.505C1146.1 550.515 1146.14 550.524 1146.18 550.534C1146.33 550.567 1146.47 550.6 1146.62 550.631C1146.66 550.64 1146.7 550.649 1146.74 550.657C1146.89 550.689 1147.03 550.716 1147.18 550.746C1147.22 550.753 1147.26 550.76 1147.29 550.766C1147.45 550.796 1147.6 550.822 1147.76 550.848C1147.79 550.853 1147.81 550.856 1147.84 550.862C1148.01 550.889 1148.19 550.917 1148.37 550.941C1148.37 550.941 1148.38 550.943 1148.38 550.943C1149.12 551.045 1149.86 551.113 1150.59 551.144C1150.61 551.146 1150.64 551.146 1150.66 551.146C1150.81 551.153 1150.97 551.158 1151.13 551.161C1151.16 551.161 1151.19 551.163 1151.23 551.163C1151.37 551.165 1151.52 551.166 1151.67 551.166C1151.7 551.166 1151.74 551.166 1151.78 551.166C1151.92 551.165 1152.06 551.163 1152.21 551.16C1152.24 551.158 1152.28 551.158 1152.32 551.156C1152.46 551.153 1152.6 551.146 1152.75 551.139C1152.78 551.137 1152.82 551.135 1152.85 551.134C1153 551.127 1153.15 551.116 1153.29 551.106C1153.32 551.104 1153.35 551.102 1153.38 551.099C1153.54 551.087 1153.7 551.073 1153.85 551.057C1153.87 551.056 1153.89 551.054 1153.9 551.052C1154.8 550.964 1155.69 550.825 1156.56 550.638C1156.57 550.637 1156.58 550.635 1156.59 550.633C1156.75 550.599 1156.92 550.562 1157.08 550.524C1157.1 550.519 1157.12 550.514 1157.14 550.508C1157.29 550.472 1157.45 550.436 1157.6 550.396C1157.62 550.389 1157.65 550.382 1157.67 550.375C1157.82 550.337 1157.97 550.297 1158.11 550.257C1158.14 550.249 1158.17 550.242 1158.2 550.233C1158.34 550.192 1158.49 550.15 1158.63 550.105C1158.66 550.096 1158.69 550.089 1158.71 550.081C1158.86 550.036 1159.01 549.987 1159.16 549.939C1159.18 549.932 1159.2 549.925 1159.22 549.918C1159.38 549.866 1159.54 549.812 1159.7 549.755C1159.71 549.752 1159.72 549.748 1159.73 549.747C1160.58 549.445 1161.44 549.099 1162.28 548.709C1162.29 548.706 1162.3 548.701 1162.3 548.697C1162.46 548.624 1162.62 548.552 1162.77 548.477C1162.78 548.474 1162.78 548.47 1162.79 548.467C1177.84 541.17 1190.02 520.269 1198.54 500.853C1198.55 500.834 1198.56 500.815 1198.57 500.796C1198.77 500.322 1198.98 499.847 1199.18 499.375C1199.22 499.302 1199.25 499.229 1199.28 499.156C1199.46 498.732 1199.64 498.308 1199.82 497.885C1199.87 497.769 1199.92 497.653 1199.97 497.537C1200.13 497.156 1200.29 496.775 1200.45 496.396C1200.51 496.251 1200.57 496.105 1200.63 495.958C1200.77 495.62 1200.9 495.284 1201.04 494.95C1201.13 494.729 1201.22 494.507 1201.31 494.285C1201.42 494.02 1201.53 493.754 1201.64 493.491C1201.75 493.205 1201.87 492.921 1201.98 492.637C1202.06 492.446 1202.13 492.256 1202.21 492.067C1202.33 491.742 1202.46 491.418 1202.59 491.096C1202.66 490.916 1202.73 490.735 1202.8 490.555C1202.91 490.275 1203.02 489.994 1203.13 489.716C1203.23 489.451 1203.33 489.187 1203.43 488.926C1203.47 488.825 1203.51 488.722 1203.55 488.621V488.619C1203.55 488.616 1203.55 488.612 1203.55 488.609C1203.67 488.29 1203.79 487.975 1203.91 487.66C1203.92 487.632 1203.93 487.605 1203.94 487.577C1204.06 487.272 1204.17 486.967 1204.28 486.664C1204.3 486.63 1204.31 486.597 1204.32 486.562C1204.44 486.263 1204.55 485.963 1204.66 485.667C1204.67 485.636 1204.68 485.605 1204.69 485.573C1204.8 485.272 1204.91 484.971 1205.02 484.673C1205.03 484.659 1205.03 484.647 1205.03 484.633C1205.14 484.349 1205.24 484.069 1205.34 483.788C1205.36 483.747 1205.37 483.705 1205.39 483.665C1205.48 483.402 1205.58 483.139 1205.67 482.879C1205.7 482.808 1205.72 482.739 1205.75 482.669C1205.83 482.427 1205.92 482.188 1206 481.949C1206.03 481.862 1206.06 481.776 1206.09 481.689C1206.17 481.462 1206.25 481.237 1206.33 481.014C1206.37 480.917 1206.4 480.82 1206.43 480.725C1206.5 480.543 1206.56 480.363 1206.62 480.183C1206.67 480.043 1206.72 479.902 1206.77 479.764C1206.81 479.63 1206.86 479.499 1206.9 479.365C1206.97 479.177 1207.03 478.988 1207.1 478.803C1207.13 478.702 1207.17 478.602 1207.2 478.503C1207.29 478.245 1207.38 477.989 1207.46 477.734C1207.47 477.701 1207.48 477.668 1207.5 477.634C1209.46 471.852 1210.84 467.221 1211.6 464.565V464.563C1211.6 464.563 1211.6 464.563 1211.6 464.562C1212.05 462.97 1212.28 462.087 1212.28 462.087L1234.62 261.787Z" fill="#1A1A1A"/>
<path d="M1210.61 485.415C1209.12 486.101 1207.64 486.782 1206.15 487.453C1207.64 486.783 1209.12 486.103 1210.61 485.415Z" fill="#FF750A"/>
<path d="M1230.16 536.31L1231.18 542.091C1231.14 541.537 1231.09 540.981 1231.01 540.423C1230.83 539.014 1230.54 537.647 1230.16 536.31Z" fill="#FF750A"/>
<path d="M1193.41 568.441L1194.06 568.315C1194.06 568.268 1194.06 568.221 1194.06 568.175C1193.84 568.263 1193.62 568.353 1193.41 568.441Z" fill="#FF750A"/>
<path d="M1205.14 169.174C1195.22 188.45 1185.55 209.402 1176.57 232.032C1173.62 239.463 1170.85 246.798 1168.26 254.024C1164.82 247.112 1160.84 237.124 1158.91 224.586C1156.13 206.572 1158.88 191.697 1161.25 182.904C1175.88 178.329 1190.51 173.752 1205.14 169.174Z" fill="#D9EAF4"/>
<path d="M1206.18 138.87L1205.14 169.173C1205.14 169.173 1189.21 198.265 1171.72 194.282C1154.23 190.299 1163.93 165.984 1163.93 165.984L1206.18 138.87Z" fill="#F0D0B4"/>
<path d="M1162.14 172.065C1167.54 173.241 1172.29 172.46 1174.11 172.16C1186.28 170.15 1200.32 160.553 1205.93 146.213L1206.18 138.869L1163.93 165.984C1163.93 165.984 1162.92 168.508 1162.14 172.065Z" fill="#DFB28B"/>
<path d="M1208.4 125.039C1209.29 147.4 1190.09 163.114 1174.11 165.753C1171.55 166.176 1163.23 167.549 1155.41 163.109C1145.43 157.447 1142.83 146.052 1139.92 133.259C1139.92 133.259 1136.62 118.81 1139.92 101.52C1140.49 98.4807 1140.92 97.2685 1141.62 96.0408C1147.02 86.56 1163.7 85.4968 1173.69 87.4449C1188.32 90.2969 1207.53 103.326 1208.4 125.039Z" fill="#F0D0B4"/>
<path d="M1018.54 201.89C1018.54 201.89 1054.66 208.572 1050.94 255.888C1047.21 303.204 1034.87 281.96 1034.87 281.96L1018.54 201.89Z" fill="#057A74"/>
<path d="M1131.47 91.3792C1130.25 92.1134 1128.86 93.2944 1129.48 94.749C1129.8 95.5265 1130.58 95.9958 1131.42 96.0754C1133.95 96.3144 1136.53 96.0044 1138.95 95.1767C1136.5 96.5984 1134.47 98.7543 1133.17 101.298C1132.97 101.691 1132.79 102.114 1132.8 102.555C1132.84 103.383 1133.62 104.01 1134.42 104.147C1135.23 104.283 1136.05 104.05 1136.84 103.818C1134.85 106.464 1133.88 109.873 1134.2 113.162C1134.25 113.698 1134.51 114.211 1134.95 114.512C1136.06 115.278 1137.46 115.091 1138.13 114.159C1140.1 111.399 1141 107.374 1142.74 104.455C1145.15 100.399 1148.54 96.9447 1152.54 94.4927C1151.28 96.491 1150.4 99.5335 1152.66 100.728C1153.35 101.087 1154.15 101.158 1154.91 100.988C1160.26 99.7864 1164.85 96.5499 1169.33 93.3741C1166.91 95.4746 1164.91 98.0755 1163.5 100.966C1163.06 101.87 1162.66 102.954 1163.61 103.807C1164.16 104.299 1164.94 104.455 1165.66 104.29C1169.91 103.319 1173.93 101.248 1177.24 98.3318C1176.27 99.5128 1175.58 100.933 1175.26 102.431C1175.02 103.527 1175.01 104.81 1176.46 105.35C1176.46 105.35 1177.22 105.65 1178.2 105.428C1179.43 105.149 1185.73 102.391 1194.23 98.3474C1195.11 101.504 1195.24 103.705 1195.16 105.203C1195.13 105.703 1195.16 106.758 1195.74 107.714C1196.2 108.45 1197.12 108.954 1197.93 108.656C1198.37 108.493 1198.71 108.128 1199.01 107.759C1200.05 106.498 1200.87 105.057 1201.43 103.522C1201.33 107.094 1202.06 110.675 1203.54 113.896C1204.38 115.716 1205.65 117.572 1207.59 117.986C1208.19 118.114 1208.87 118.073 1209.34 117.666C1209.99 117.108 1209.99 116.119 1209.95 115.266C1209.81 112.853 1209.68 110.439 1209.55 108.027C1209.64 109.111 1209.97 111.122 1211.38 113.065C1212.09 114.057 1212.97 115.272 1214.15 115.316C1215.82 115.376 1217.65 113.049 1218.13 110.813C1218.87 107.366 1216.06 103.92 1210.41 97.1681C1207.88 94.1498 1206.59 92.6017 1204.71 91.3532C1201.68 89.3359 1198 88.5964 1194.42 87.8986C1185.39 86.134 1176.36 84.3712 1167.33 82.6067C1163.33 81.8257 1159.09 81.0776 1155.11 82.2049C1152.88 82.8387 1149.25 84.0266 1147.01 84.6569C1144.41 85.3929 1141.84 86.2968 1139.34 87.3618C1136.63 88.5202 1134 89.8605 1131.47 91.3792Z" fill="black"/>
<path d="M1215.97 100.998C1215.97 100.998 1207.6 94.917 1181.99 91.2285C1147.54 86.2639 1134.4 90.6623 1134.4 90.6623C1134.4 90.6623 1134.43 86.5652 1135.12 81.4863C1135.66 77.5849 1136.57 73.1017 1138.18 69.4392C1138.33 69.0877 1138.5 68.75 1138.67 68.4124C1139.22 67.2695 1139.86 66.2322 1140.59 65.3456C1143.03 62.3568 1162.87 60.8935 1179.47 62.9767C1196.07 65.0599 1215.76 71.9085 1217.96 74.4714C1218.71 75.3528 1219.06 77.0515 1219.15 79.1815C1219.19 80.1321 1219.17 81.1659 1219.11 82.2621C1218.9 85.9626 1218.21 90.2588 1217.53 93.8035C1216.75 97.9006 1215.97 100.998 1215.97 100.998Z" fill="black"/>
<path d="M1217.53 93.7999C1217.74 92.6986 1217.95 91.5349 1218.15 90.3315C1218.4 88.7972 1218.63 87.2162 1218.8 85.6595C1218.94 84.4923 1219.04 83.3529 1219.1 82.2585C1214.8 83.178 1210.84 85.6543 1208.19 89.1799C1206.83 83.0707 1204.27 75.9726 1197.4 74.7882C1190.54 73.6055 1185.5 78.9944 1181.7 84.0092C1180.69 80.8524 1179.5 77.7199 1177.31 75.1882C1174.96 72.4574 1171.65 70.9145 1168.02 71.1985C1161.63 71.7145 1155.64 75.9311 1151.99 81.1433C1149.76 75.1536 1144.71 70.3829 1138.66 68.4105C1138.05 69.6383 1137.52 70.9889 1137.07 72.3899C1136.6 73.8756 1136.21 75.4185 1135.89 76.9545C1135.57 78.4991 1135.32 80.0247 1135.12 81.4845C1134.42 86.5651 1134.4 90.6605 1134.4 90.6605C1134.4 90.6605 1147.54 86.2621 1181.99 91.2267C1207.59 94.9151 1215.97 100.997 1215.97 100.997C1215.97 100.997 1216.75 97.8987 1217.53 93.7999Z" fill="#F2F2F2"/>
<path d="M1217.53 93.7999C1217.19 93.6787 1216.84 93.5402 1216.51 93.3774C1214.93 92.5791 1213.96 90.9583 1212.32 90.2518C1210.94 89.6561 1209.43 89.7081 1207.96 89.8639C1206.3 90.0302 1204.55 90.4007 1202.91 89.9505C1201.08 89.4604 1199.6 88.1271 1198 87.2041C1194.75 85.3322 1191.36 85.8846 1187.79 86.0941C1185.78 86.2188 1183.91 86.0075 1181.98 85.3807C1180.15 84.7902 1178.39 83.9988 1176.52 83.514C1174.83 83.0724 1173.16 82.9685 1171.42 83.1711C1169.53 83.3841 1167.67 83.8793 1165.77 83.9226C1161.83 84.0058 1158.39 81.4602 1154.44 81.5763C1151.24 81.6767 1148.12 83.6854 1144.89 83.1243C1143.07 82.8092 1141.56 81.5953 1139.78 81.1433C1138.24 80.7572 1136.66 80.9459 1135.17 81.462C1135.15 81.4654 1135.14 81.4724 1135.12 81.4845C1134.43 86.5651 1134.4 90.6605 1134.4 90.6605C1134.4 90.6605 1147.54 86.2621 1181.99 91.2267C1207.6 94.9151 1215.97 100.997 1215.97 100.997C1215.97 100.997 1216.75 97.8988 1217.53 93.7999Z" fill="#B3B3B3"/>
<path d="M1171.4 78.4512C1171.77 77.0812 1170.97 75.6672 1169.6 75.2929C1168.23 74.9185 1166.81 75.7255 1166.44 77.0955C1166.06 78.4654 1166.87 79.8794 1168.24 80.2538C1169.61 80.6282 1171.02 79.8211 1171.4 78.4512Z" fill="black"/>
<path d="M1199.38 82.1634C1199.01 83.5331 1197.6 84.3401 1196.23 83.966C1194.86 83.592 1194.05 82.1772 1194.42 80.8075C1194.8 79.4378 1196.21 78.6308 1197.58 79.0049C1198.95 79.3789 1199.76 80.7936 1199.38 82.1634Z" fill="black"/>
<path d="M1139.96 75.6144C1139.59 76.9806 1138.17 77.7876 1136.8 77.4153C1136.46 77.3218 1136.15 77.1642 1135.89 76.9564C1136.21 75.4204 1136.6 73.8775 1137.07 72.3918C1137.43 72.3329 1137.79 72.3519 1138.16 72.4524C1139.53 72.8247 1140.33 74.2394 1139.96 75.6144Z" fill="black"/>
<path d="M1030.88 539.053L1027.41 606.681H988.54L990.662 539.053H1030.88Z" fill="#1A1A1A"/>
<path opacity="0.2" d="M990.662 539.053L988.54 606.681H990.965L993.086 539.053H990.662Z" fill="white"/>
<path d="M974.26 539.054L970.784 606.681H931.916L934.037 539.054H974.26Z" fill="#1A1A1A"/>
<path opacity="0.2" d="M934.037 539.054L931.916 606.681H934.34L936.461 539.054H934.037Z" fill="white"/>
<path d="M929.169 509.737C927.955 519.45 926.58 529.338 927.046 539.055H1044.27C1045.93 496.982 1046.91 454.873 1044.76 412.837C1043.14 381.138 1039.76 349.123 1042.14 317.631C1042.75 315.415 1043.59 313.25 1044.23 311.036C1046.26 303.932 1046.2 296.421 1046.12 289.032C1046.03 280.209 1045.93 271.388 1045.84 262.565C1045.76 254.574 1045.67 246.578 1045.14 238.604C1044.82 233.899 1044.34 229.163 1042.91 224.668C1039.31 213.338 1029.37 204.26 1017.76 201.706C1021.18 206.389 1022.59 212.486 1021.59 218.197C1021.01 221.466 1019.51 224.784 1016.67 226.51C1015.23 227.388 1013.56 227.794 1011.9 228.084C1007.28 228.893 1002.54 228.878 997.921 228.116C997.445 228.02 996.967 227.934 996.489 227.856C989.011 226.361 981.92 222.9 976.272 217.771C973.15 214.936 970.446 211.629 967.082 209.087C961.684 205.009 954.675 203.126 947.961 203.954C942.903 204.577 937.635 206.763 933.869 210.259C930.388 213.49 933.72 220.46 934.451 224.845C935.871 233.361 937.05 241.917 937.992 250.499C932.248 259.592 931.571 271.332 931.183 282.282C930.461 302.677 929.741 323.072 929.019 343.466C928.619 354.761 928.222 366.128 929.824 377.316C931.261 387.358 934.288 397.121 935.71 407.166C937.744 421.537 936.454 436.149 935.161 450.606C933.394 470.34 931.628 490.078 929.169 509.737Z" fill="#03928D"/>
<g opacity="0.25">
<path d="M970.228 295.483C970.104 285.291 969.943 275.1 969.782 264.909C969.496 246.805 969.21 228.702 968.924 210.598C968.329 210.071 967.717 209.564 967.082 209.084C963.688 206.52 959.657 204.824 955.463 204.125C950.768 204.92 946.008 207.027 942.527 210.257C939.047 213.488 942.378 220.458 943.109 224.842C944.529 233.359 945.708 241.915 946.65 250.497C940.906 259.589 940.229 271.33 939.841 282.279C939.119 302.675 938.399 323.07 937.677 343.464C937.277 354.759 936.88 366.126 938.482 377.314C939.919 387.356 942.946 397.119 944.368 407.164C946.403 421.535 945.112 436.147 943.819 450.604C942.053 470.338 940.286 490.075 937.827 509.735C936.614 519.447 935.239 529.335 935.704 539.053H966.949C969.87 457.901 971.217 376.682 970.228 295.483Z" fill="#1A1A1A"/>
</g>
<g opacity="0.25">
<path d="M1003.14 539.053H1032.18C1033.82 497.21 1034.78 455.333 1032.64 413.528C1031.02 381.828 1027.64 349.814 1030.02 318.322C1030.64 316.105 1031.47 313.941 1032.11 311.726C1034.15 304.623 1034.08 297.111 1034 289.722C1033.91 280.899 1033.81 272.078 1033.72 263.256C1033.64 255.264 1033.55 247.269 1033.02 239.295C1032.7 234.59 1032.22 229.854 1030.79 225.358C1029.05 219.862 1025.81 214.899 1021.61 210.953C1022 213.346 1022.01 215.805 1021.59 218.195C1021.01 221.464 1019.51 224.782 1016.67 226.508C1015.23 227.386 1013.56 227.791 1011.9 228.082C1010.94 228.25 1009.97 228.38 1009.01 228.479C1010.19 255.79 1009.88 283.166 1008.06 310.441C1007.38 320.786 1006.47 331.115 1005.84 341.462C1004.55 362.434 1004.39 383.456 1004.22 404.466C1003.86 449.328 1003.5 494.191 1003.14 539.053Z" fill="#1A1A1A"/>
</g>
<path d="M939.185 237.588C941.306 240.067 945.4 238.408 947.819 236.221C950.238 234.034 952.953 231.224 956.148 231.885C957.042 240.154 957.935 248.424 958.831 256.693C959.22 260.303 959.665 264.071 961.679 267.095C963.693 270.118 967.8 272.08 971.061 270.478C974.474 268.802 975.288 264.444 976.651 260.892C978.014 257.342 981.981 253.746 985.176 255.808C986.019 256.352 986.61 257.212 987.069 258.102C989.424 262.66 988.807 268.132 989.895 273.145C990.982 278.158 995.441 283.426 1000.36 281.951C1005.41 280.432 1006.07 273.699 1006.2 268.425C1006.33 263.15 1008.63 256.3 1013.9 256.584C1015.69 256.681 1017.32 257.692 1018.65 258.897C1024.19 263.898 1026.67 272.856 1033.9 274.681C1034.87 274.925 1035.97 274.996 1036.8 274.442C1037.63 273.891 1037.99 272.865 1038.24 271.898C1039.69 266.123 1038.79 259.792 1035.78 254.651C1034.37 252.241 1032.5 250.038 1031.72 247.354C1030.95 244.67 1031.73 241.215 1034.33 240.175C1037.7 238.82 1042.4 242.031 1044.79 239.293C1044.93 239.134 1045.05 238.964 1045.15 238.789C1045.15 238.725 1045.14 238.661 1045.14 238.597C1045.01 236.651 1044.85 234.699 1044.61 232.761C1042.36 226.808 1040.12 220.853 1037.87 214.899C1032.98 208.33 1025.77 203.462 1017.76 201.701C1021.18 206.383 1022.6 212.48 1021.59 218.191C1021.01 221.461 1019.51 224.779 1016.68 226.505C1015.24 227.383 1013.56 227.788 1011.9 228.079C1007.28 228.888 1002.54 228.872 997.924 228.11C997.448 228.015 996.97 227.928 996.492 227.85C989.015 226.356 981.924 222.894 976.275 217.765C973.153 214.931 970.45 211.623 967.085 209.081C961.688 205.003 954.678 203.121 947.964 203.949C947.843 203.964 947.722 203.983 947.601 204C941.663 211.575 938.253 221.544 938.11 233.229C938.087 234.763 938.189 236.426 939.185 237.588Z" fill="#D9EAF4"/>
<path d="M1004.29 180.805L1003.4 194.802L1021.47 202.757L1024.01 227.357C1024.01 227.357 1016.37 239.021 1012.83 238.99C1009.29 238.959 990.762 237.577 982.537 232.467C974.311 227.357 957.334 204.504 957.334 204.504C957.334 204.504 971.501 206.487 979.238 197.538C979.262 197.51 979.287 197.481 979.312 197.453C983.531 192.598 984.088 185.562 980.661 180.119L976.014 172.739H1003.04L1004.29 180.805Z" fill="#F0D0B4"/>
<path d="M982.355 183.687C985.425 185.143 990.438 186.082 993.446 186.577C995.058 186.844 999.174 187.522 1003.92 186.594L1004.29 180.805L1003.04 172.741H976.014L982.355 183.687Z" fill="#DFB28B"/>
<path d="M962.017 143.545C961.199 164.041 978.796 178.443 993.446 180.862C995.789 181.248 1003.42 182.509 1010.59 178.438C1019.73 173.246 1022.11 162.804 1024.79 151.078C1024.79 151.078 1027.81 137.836 1024.79 121.986C1024.26 119.202 1023.87 118.09 1023.23 116.964C1018.28 108.273 1002.99 107.3 993.836 109.085C980.419 111.704 962.81 123.643 962.017 143.545Z" fill="#F0D0B4"/>
<path d="M1025.91 130.522C1025.57 129.77 1025.24 129.017 1024.93 128.255C1023.92 125.709 1023.19 123.089 1023.29 120.241C1023.32 119.546 1023.4 118.83 1023.74 118.223C1023.76 118.192 1023.78 118.161 1023.8 118.132C1024.14 119.003 1024.43 120.118 1024.79 121.986C1025.11 123.673 1025.36 125.33 1025.56 126.944C1025.71 128.163 1025.82 129.358 1025.91 130.522Z" fill="#F0D0B4"/>
<path d="M998.728 111.683C998.728 111.683 992.667 126.055 978.987 125.19C978.987 125.19 976.37 143.722 965.904 144.846C965.904 144.846 962.346 149.305 965.904 160.624C955.333 143.68 955.374 123.489 965.664 110.299C974.436 99.0521 987.501 96.9412 989.723 96.6174C1001.32 94.9291 1019.12 97.9958 1025.68 111.639C1030.1 120.831 1027.27 130.357 1026.13 133.607C1026.13 133.607 1015.35 129.171 1016.04 117.222C1016.04 117.224 1004.96 125.536 998.728 111.683Z" fill="black"/>
<path d="M1003.92 137.831C1005.35 142.037 1005.79 146.565 1005.3 150.982C1005.23 151.557 1005.18 152.13 1005.03 152.697C1004.71 153.918 1003.85 155.038 1002.66 155.538C1001.5 156.056 1000.02 155.905 999.055 155.074C997.936 154.103 997.296 152.678 997.329 151.214C997.341 150.934 997.368 150.655 997.427 150.385C997.479 151.49 997.832 152.532 998.478 153.344C999.067 154.139 999.864 154.782 1000.87 154.797C1001.78 154.834 1002.67 154.359 1003.21 153.623C1003.83 152.84 1003.91 151.8 1004.01 150.837C1004.52 146.522 1004.33 142.158 1003.92 137.831Z" fill="black"/>
<path d="M1161.16 119.994C1160.75 124.322 1160.56 128.686 1161.06 133.003C1161.17 133.965 1161.25 135.006 1161.87 135.789C1162.4 136.525 1163.3 136.999 1164.21 136.963C1165.22 136.947 1166.01 136.305 1166.6 135.51C1167.25 134.698 1167.6 133.654 1167.65 132.551C1167.71 132.821 1167.74 133.1 1167.75 133.38C1167.78 134.842 1167.14 136.267 1166.02 137.24C1165.06 138.071 1163.58 138.222 1162.42 137.704C1161.23 137.204 1160.37 136.083 1160.05 134.862C1159.9 134.296 1159.85 133.723 1159.78 133.148C1159.29 128.729 1159.73 124.202 1161.16 119.994Z" fill="black"/>
<path d="M994.658 144.237C994.066 139.292 988.341 136.881 984.592 140.232C983.486 141.228 982.746 142.649 982.537 144.237C982.426 143.443 982.516 142.611 982.769 141.823C983.541 139.371 986.031 137.64 988.598 137.673C992.083 137.635 995.117 140.727 994.658 144.237Z" fill="black"/>
<path d="M1020.46 144.237C1019.87 139.292 1014.14 136.881 1010.39 140.232C1009.29 141.228 1008.55 142.649 1008.34 144.237C1008.23 143.443 1008.32 142.611 1008.57 141.823C1009.34 139.371 1011.83 137.64 1014.4 137.673C1017.88 137.635 1020.92 140.727 1020.46 144.237Z" fill="black"/>
<path d="M990.329 160.429C993.154 163.41 997.116 165.414 1001.26 165.288C1005.43 165.201 1009.22 162.993 1011.97 159.909C1010.63 162.222 1008.49 164.084 1006.06 165.206C1000.4 167.793 993.649 165.623 990.329 160.429Z" fill="black"/>
<path d="M1155.18 141.727C1158.01 144.709 1161.97 146.712 1166.12 146.586C1170.29 146.499 1174.07 144.292 1176.83 141.207C1175.48 143.523 1173.35 145.382 1170.91 146.505C1165.26 149.092 1158.5 146.922 1155.18 141.727Z" fill="black"/>
<path d="M1022.36 131.856C1020.77 129.68 1018.25 128.183 1015.54 128.164C1013.28 128.104 1011.14 129.125 1009.55 130.674C1009.34 130.876 1009.11 131.119 1008.94 131.335C1008.6 131.796 1007.94 131.889 1007.48 131.543C1007.02 131.196 1006.93 130.544 1007.28 130.083C1007.58 129.73 1007.93 129.467 1008.28 129.188C1013.03 125.558 1019.39 126.599 1022.36 131.856Z" fill="black"/>
<path d="M1187.22 113.328C1185.62 111.151 1183.1 109.655 1180.39 109.636C1178.13 109.575 1175.99 110.597 1174.4 112.145C1174.19 112.348 1173.96 112.59 1173.8 112.807C1173.45 113.267 1172.8 113.361 1172.34 113.014C1171.88 112.668 1171.78 112.015 1172.13 111.555C1172.43 111.201 1172.78 110.938 1173.14 110.659C1177.88 107.03 1184.24 108.071 1187.22 113.328Z" fill="black"/>
<path d="M1143.41 113.328C1146.39 108.069 1152.74 107.032 1157.49 110.661C1157.81 110.91 1158.1 111.144 1158.4 111.445C1158.81 111.854 1158.81 112.514 1158.4 112.919C1157.99 113.324 1157.33 113.323 1156.93 112.916C1156.71 112.661 1156.48 112.382 1156.23 112.145C1154.63 110.597 1152.5 109.575 1150.23 109.636C1147.52 109.655 1145 111.151 1143.41 113.328Z" fill="black"/>
<path d="M978.9 131.856C981.879 126.597 988.237 125.56 992.982 129.189C993.308 129.439 993.597 129.673 993.896 129.974C994.302 130.382 994.3 131.042 993.893 131.447C993.486 131.853 992.825 131.851 992.419 131.444C992.206 131.189 991.973 130.911 991.721 130.673C990.128 129.125 987.992 128.104 985.727 128.164C983.015 128.183 980.497 129.679 978.9 131.856Z" fill="black"/>
<path d="M961.57 295.483C961.445 285.291 961.284 275.1 961.123 264.909C960.81 245.06 960.496 225.211 960.183 205.362C956.29 203.955 952.07 203.446 947.961 203.954C942.903 204.577 937.635 206.762 933.869 210.259C930.388 213.49 933.72 220.46 934.451 224.844C935.871 233.361 937.05 241.917 937.992 250.499C932.248 259.592 931.571 271.332 931.183 282.281C930.461 302.677 929.741 323.072 929.019 343.466C928.619 354.761 928.222 366.128 929.824 377.316C931.261 387.358 934.288 397.121 935.71 407.166C937.744 421.537 936.454 436.149 935.161 450.606C933.394 470.34 931.628 490.077 929.169 509.737C927.955 519.449 926.58 529.337 927.046 539.055H958.289C961.212 457.902 962.559 376.682 961.57 295.483Z" fill="#C32B2D"/>
<path d="M1044.23 311.034C1046.27 303.931 1046.2 296.419 1046.12 289.03C1046.03 280.207 1045.94 271.386 1045.84 262.563C1045.76 254.572 1045.67 246.577 1045.14 238.602C1044.82 233.898 1044.34 229.162 1042.91 224.666C1039.4 213.592 1029.81 204.674 1018.54 201.892C1018.53 202.202 1018.53 202.515 1018.52 202.832C1021.38 207.341 1022.52 212.933 1021.59 218.195C1021.38 219.39 1021.04 220.59 1020.56 221.717C1020.82 223.587 1021.02 225.258 1021.08 226.613C1022.33 254.312 1022.03 282.082 1020.19 309.749C1019.5 320.094 1018.59 330.423 1017.96 340.77C1016.68 361.742 1016.51 382.764 1016.34 403.774C1015.98 448.868 1015.62 493.962 1015.25 539.054H1044.27C1045.93 496.98 1046.91 454.871 1044.76 412.836C1043.14 381.136 1039.76 349.121 1042.14 317.63C1042.76 315.413 1043.59 313.249 1044.23 311.034Z" fill="#C32B2D"/>
<path d="M961.123 264.909C960.81 245.06 960.496 225.211 960.183 205.362C956.29 203.955 952.07 203.446 947.961 203.954C943.466 204.508 938.808 206.298 935.181 209.143C935.412 214.33 936.496 219.324 938.302 223.298C940.106 227.265 942.622 231.031 943.218 235.35C944.802 246.831 932.439 257.704 936.205 268.664C937.599 272.723 940.977 275.736 943.261 279.369C946.605 284.692 947.485 291.497 945.604 297.496C943.338 304.725 937.343 310.743 936.854 318.303C936.02 331.235 951.572 341.642 949.028 354.349C947.44 362.278 939.237 367.409 936.989 375.177C932.925 389.23 949.88 402.196 947.859 416.683C946.584 425.819 937.969 432.787 937.227 441.983C936.17 455.055 951.339 467.408 945.71 479.255C943.601 483.693 938.956 486.538 936.92 491.011C931.424 503.087 947.819 516.784 942.929 529.119C941.703 532.213 939.251 534.688 937.937 537.744C937.749 538.179 937.592 538.617 937.462 539.057H958.289C961.21 457.903 962.557 376.686 961.567 295.485C961.445 285.291 961.284 275.1 961.123 264.909Z" fill="#FF750A"/>
<path d="M1030.86 538.919C1030.18 535.241 1031.69 531.542 1033.26 528.15C1035.53 523.253 1038.05 518.352 1038.87 513.015C1039.69 507.678 1038.5 501.683 1034.41 498.161C1033.13 497.06 1031.56 496.171 1030.81 494.658C1029.74 492.506 1030.71 489.946 1031.7 487.756C1036.73 476.576 1042.24 464.068 1038.13 452.517C1036.28 447.306 1032.62 442.918 1030.52 437.806C1027.98 431.645 1027.86 424.523 1030.19 418.28C1032.66 411.677 1037.73 406.029 1038.76 399.055C1040.43 387.722 1031 377.673 1029.71 366.289C1028.25 353.362 1037.46 341.118 1036.5 328.144C1035.85 319.412 1030.65 311.517 1029.96 302.788C1029.09 291.823 1035.44 281.458 1035.8 270.463C1036.19 258.38 1029.36 247.036 1029.15 234.947C1029.02 227.486 1031.42 220.249 1033.19 212.999C1033.41 212.115 1033.61 211.222 1033.8 210.325C1029.53 206.285 1024.25 203.3 1018.54 201.89C1018.53 202.2 1018.53 202.513 1018.53 202.83C1021.39 207.34 1022.52 212.931 1021.59 218.194C1021.38 219.388 1021.05 220.588 1020.57 221.716C1020.83 223.586 1021.02 225.257 1021.09 226.611C1022.33 254.31 1022.03 282.081 1020.19 309.747C1019.5 320.092 1018.6 330.422 1017.96 340.768C1016.68 361.74 1016.51 382.762 1016.34 403.772C1015.98 448.866 1015.62 493.96 1015.26 539.052H1030.89C1030.87 539.009 1030.87 538.964 1030.86 538.919Z" fill="#FF750A"/>
<path d="M1039.21 245.06C1039.29 245.73 1039.62 248.121 1038.86 248.559C1038.73 248.634 1038.57 248.597 1038.43 248.547C1036.44 247.839 1035.66 245.403 1034.99 243.633C1034.14 241.423 1033.53 239.118 1033.26 236.765C1032.92 233.788 1033.16 230.718 1034.15 227.88C1035.09 225.172 1036.42 222.332 1035.58 219.405C1035.28 218.358 1034.78 217.378 1034.44 216.342C1032.82 211.422 1034.95 206.276 1034.42 201.268C1034.15 198.778 1033.22 196.373 1032.71 193.919C1032.17 191.309 1032 188.662 1032.43 186.021C1032.91 183.06 1033.45 180.362 1033.04 177.34C1032.66 174.576 1031.84 171.892 1031.49 169.125C1030.86 164.178 1032 159.03 1032.19 154.06C1032.41 148.034 1030.75 142.146 1028.6 136.575C1028.58 136.534 1028.56 136.492 1028.55 136.451C1027.77 134.444 1026.8 132.492 1025.91 130.522C1025.57 129.77 1025.24 129.017 1024.93 128.255C1023.92 125.709 1023.19 123.089 1023.29 120.241C1023.32 119.546 1023.4 118.83 1023.74 118.223C1023.76 118.192 1023.78 118.161 1023.8 118.132C1024.15 117.572 1024.78 117.15 1025.43 117.214C1025.82 117.254 1026.17 117.451 1026.5 117.671C1028.44 118.992 1029.99 121.349 1031.28 123.668C1031.89 124.764 1032.45 125.853 1032.95 126.818C1034.92 130.561 1036.24 134.634 1036.96 138.795C1037.88 144.015 1037.88 149.364 1037.28 154.619C1036.77 159.083 1036.2 164.152 1036.75 168.642C1037.33 173.416 1038.94 177.856 1038.36 182.738C1038.03 185.571 1037.09 188.307 1037.37 191.19C1037.57 193.346 1038.45 195.358 1038.85 197.464C1039.3 199.822 1039.68 201.665 1039.14 204.089C1038.64 206.356 1037.78 208.55 1037.52 210.856C1037.32 212.636 1037.49 214.456 1038 216.171C1038.65 218.304 1039.85 220.325 1039.89 222.555C1039.93 224.955 1038.64 227.142 1037.84 229.404C1036.53 233.082 1036.54 237.207 1037.86 240.878C1038.35 242.249 1039.03 243.598 1039.21 245.06Z" fill="black"/>
<path d="M1018.52 220.669C1018.97 226.017 1019.41 230.876 1018.42 236.235C1017.45 241.527 1015.94 246.855 1016.44 252.286C1016.53 253.275 1016.72 255.247 1015.56 255.765C1014.38 256.298 1013.21 254.975 1013.03 253.955C1012.11 248.67 1011.96 243.413 1012.99 238.126C1013.5 235.468 1014.54 232.867 1014.68 230.15C1014.83 227.4 1013.8 224.879 1013.43 222.192C1012.65 216.628 1015.19 211.353 1014.08 205.796C1013.14 201.043 1012.2 197.2 1013.33 192.362C1014.01 189.441 1014.74 186.788 1014.53 183.744C1014.37 181.255 1013.85 178.807 1013.63 176.325C1016.04 174.298 1017.86 171.79 1019.3 168.93C1018.96 171.04 1018.72 173.163 1018.84 175.323C1019.09 180.126 1020.39 184.667 1019.47 189.496C1018.95 192.3 1017.82 194.965 1017.9 197.86C1017.97 200.516 1018.97 203.1 1019.42 205.705C1020.3 210.868 1018.1 215.582 1018.52 220.669Z" fill="black"/>
<path d="M1030.49 249.645C1030.57 250.315 1030.9 252.707 1030.14 253.145C1030.01 253.219 1029.85 253.183 1029.71 253.133C1027.72 252.424 1026.94 249.99 1026.27 248.22C1025.42 246.009 1024.81 243.706 1024.54 241.351C1024.21 238.376 1024.44 235.305 1025.43 232.467C1026.37 229.757 1027.7 226.917 1026.86 223.993C1026.57 222.943 1026.06 221.965 1025.72 220.929C1024.1 216.01 1026.23 210.863 1025.7 205.854C1025.43 203.365 1024.5 200.958 1023.99 198.506C1023.45 195.897 1023.28 193.247 1023.71 190.608C1024.19 187.645 1024.73 184.949 1024.32 181.926C1023.94 179.164 1023.12 176.48 1022.77 173.712C1022.11 168.523 1023.52 163.342 1023.49 158.161C1023.49 157.688 1023.48 157.218 1023.46 156.749C1023.92 154.907 1024.35 153.009 1024.79 151.078C1024.79 151.078 1026.79 142.319 1025.91 130.522C1025.57 129.77 1025.24 129.017 1024.93 128.255C1025.15 127.813 1025.36 127.377 1025.56 126.944C1026.39 125.135 1027.06 123.427 1027.53 121.908C1027.89 122.771 1028.19 123.647 1028.42 124.539C1029.41 128.437 1029.17 132.574 1028.6 136.576C1028.47 137.478 1028.32 138.373 1028.16 139.258C1027.11 145.3 1028.64 151.303 1028.78 157.36C1028.91 162.678 1027.37 167.911 1028.03 173.229C1028.61 178.003 1030.22 182.442 1029.64 187.325C1029.31 190.158 1028.37 192.894 1028.65 195.777C1028.85 197.933 1029.73 199.943 1030.13 202.051C1030.58 204.409 1030.96 206.25 1030.42 208.676C1029.92 210.943 1029.06 213.135 1028.8 215.443C1028.6 217.224 1028.77 219.043 1029.29 220.756C1029.93 222.891 1031.13 224.912 1031.17 227.142C1031.22 229.542 1029.92 231.728 1029.12 233.991C1027.82 237.667 1027.82 241.794 1029.14 245.465C1029.63 246.835 1030.31 248.185 1030.49 249.645Z" fill="black"/>
<path d="M1090.46 254.89H1159.61L1151.29 349.092L1088.77 349.958L1090.46 254.89Z" fill="#B08155"/>
<path d="M1116.99 254.89V277.634H1132.73L1133.43 254.89H1116.99Z" fill="#DDC3A2"/>
<path d="M1113.62 325.801H1130.96L1129.55 349.393L1112.74 349.627L1113.62 325.801Z" fill="#DDC3A2"/>
<path d="M1001.33 254.89C1002.36 255.237 1090.46 254.89 1090.46 254.89L1088.77 349.958H1008.05L1001.33 254.89Z" fill="#C9A06C"/>
<path d="M1060.93 284.628H1026.09V320.254H1060.93V284.628Z" fill="#FCFEF3"/>
<path d="M1056.8 291.959L1056.71 291.566C1050.06 293.105 1045.14 298.187 1043.51 304.359C1041.87 298.187 1036.96 293.105 1030.31 291.566L1030.22 291.959C1028.01 301.509 1033.94 311.041 1043.46 313.294L1043.47 313.315C1043.48 313.312 1043.5 313.308 1043.51 313.305C1043.52 313.308 1043.54 313.312 1043.55 313.315L1043.55 313.294C1053.08 311.041 1059.01 301.509 1056.8 291.959Z" fill="#BE7A17"/>
<path d="M1205.98 119.484C1205.97 119.51 1205.97 119.529 1205.97 119.558C1205.88 120.324 1205.79 121.463 1205.69 122.861C1205.48 125.595 1205.17 129.311 1204.54 133.119C1204.3 134.542 1204.01 135.979 1203.67 137.377C1204.03 137.763 1204.38 137.926 1204.62 138.004C1205.12 138.165 1205.48 138.064 1205.83 138.35C1206.03 138.515 1206.13 138.728 1206.18 138.87C1207.27 138.4 1208.77 137.628 1210.32 136.367C1210.83 135.95 1212.42 134.613 1214.15 132.03C1216.24 128.894 1217.79 125.309 1217.98 121.55C1218.09 119.428 1217.64 117.08 1215.96 115.792C1215.25 115.241 1214.37 114.962 1213.48 114.905C1212.4 114.834 1211.26 115.089 1210.26 115.567L1209.95 115.731C1208.62 116.98 1207.3 118.232 1205.98 119.484Z" fill="#F0D0B4"/>
<path d="M1209.66 119.129C1213 118.769 1215.69 120.646 1215.18 124.222C1214.52 128.487 1210.71 132.877 1207.57 135.666C1209.43 132.811 1211.47 130.141 1212.97 127.088C1213.34 126.322 1213.69 125.489 1213.91 124.665C1214.87 121.256 1212.83 119.671 1209.66 119.129Z" fill="#CF9E76"/>
<path d="M1206.26 129.616C1208.03 126.959 1211.01 123.86 1214.52 124.823L1214.12 125.965C1211.21 124.774 1208.05 127.538 1206.26 129.616Z" fill="#CF9E76"/>
<path d="M1151.72 127.441C1153.58 127.441 1155.1 125.425 1155.1 122.938C1155.1 120.452 1153.58 118.436 1151.72 118.436C1149.85 118.436 1148.34 120.452 1148.34 122.938C1148.34 125.425 1149.85 127.441 1151.72 127.441Z" fill="black"/>
<path d="M1180.12 127.441C1181.98 127.441 1183.49 125.425 1183.49 122.938C1183.49 120.452 1181.98 118.436 1180.12 118.436C1178.25 118.436 1176.74 120.452 1176.74 122.938C1176.74 125.425 1178.25 127.441 1180.12 127.441Z" fill="black"/>
<path opacity="0.4" d="M1213.28 298.922L1213.16 305.655C1215.89 306.976 1230.19 314.625 1235.06 316.616C1235.99 316.999 1239.73 319.11 1240.04 316.994C1240.17 316.1 1239.13 315.184 1238.59 314.609C1237.82 313.778 1236.96 313.04 1236.08 312.325C1229.27 306.838 1221.47 302.195 1213.28 298.922Z" fill="#0F1F47"/>
<path d="M1260.57 203.76L1260.46 208.794L1259.38 260.04L1253.23 549.45V549.456L1253.12 554.979V554.981L1252.99 560.768C1252.6 560.914 1252.18 561.073 1251.72 561.243C1250.58 561.667 1249.22 562.161 1247.68 562.704C1247.49 562.772 1247.29 562.841 1247.1 562.91C1247.06 562.923 1247.03 562.935 1246.99 562.949C1246.83 563.004 1246.66 563.063 1246.49 563.12C1246.14 563.243 1245.79 563.366 1245.42 563.492C1245.3 563.532 1245.18 563.574 1245.06 563.613C1244.47 563.816 1243.86 564.02 1243.24 564.232C1242.44 564.497 1241.61 564.768 1240.76 565.046C1240.3 565.194 1239.83 565.343 1239.36 565.494C1239.2 565.544 1239.04 565.594 1238.88 565.645C1238.02 565.917 1237.14 566.19 1236.23 566.467C1236.12 566.498 1236.02 566.531 1235.91 566.564C1235.49 566.692 1235.06 566.82 1234.63 566.949C1234.42 567.011 1234.21 567.073 1233.99 567.136C1233.37 567.321 1232.74 567.504 1232.09 567.69C1231.84 567.762 1231.58 567.837 1231.32 567.91C1231.26 567.927 1231.2 567.944 1231.13 567.962C1230.95 568.014 1230.77 568.064 1230.59 568.116C1230.24 568.214 1229.88 568.313 1229.52 568.412C1224.42 569.818 1218.82 571.189 1212.96 572.344C1212.73 572.388 1212.51 572.431 1212.29 572.474C1208.54 573.2 1204.68 573.837 1200.78 574.336C1195.52 575.009 1190.18 575.435 1184.9 575.501C1179.36 575.57 1173.89 575.243 1168.65 574.39C1159.94 572.975 1151.85 570.105 1145.14 565.184C1145.13 565.175 1145.11 565.165 1145.1 565.155C1145 565.082 1144.9 565.009 1144.8 564.935C1144.69 564.852 1144.58 564.767 1144.47 564.68C1144.38 564.611 1144.29 564.542 1144.2 564.471C1143.85 564.199 1143.5 563.92 1143.16 563.636C1143 563.504 1142.84 563.371 1142.68 563.236C1142.67 563.226 1142.66 563.215 1142.65 563.205C1142.47 563.056 1142.3 562.903 1142.13 562.751C1141.95 562.594 1141.77 562.432 1141.6 562.271C1141.43 562.114 1141.26 561.953 1141.09 561.792C1141.08 561.787 1141.07 561.78 1141.07 561.771C1140.93 561.639 1140.79 561.506 1140.65 561.371C1140.45 561.174 1140.25 560.973 1140.05 560.768C1139.7 560.406 1139.36 560.043 1139.03 559.676C1138.95 559.594 1138.88 559.511 1138.81 559.428C1138.53 559.109 1138.25 558.787 1137.98 558.462C1137.92 558.38 1137.85 558.299 1137.78 558.218C1137.55 557.925 1137.32 557.631 1137.1 557.333C1137.01 557.225 1136.93 557.118 1136.86 557.009C1136.54 556.569 1136.23 556.124 1135.93 555.672C1135.87 555.577 1135.81 555.482 1135.75 555.385C1135.74 555.371 1135.73 555.359 1135.72 555.345C1126.21 540.305 1130.74 517.38 1139.34 452.471C1158.32 309.219 1155.23 277.777 1182.8 213.85C1191.57 193.533 1200.21 177.406 1206.26 166.763L1209.27 168.813L1217.35 174.318L1226.43 180.502L1233.51 185.325L1242.42 191.394L1255.62 200.39L1260.57 203.76Z" fill="#F0373A"/>
<path d="M1217.35 174.318C1216.51 177.373 1215.68 180.426 1215.35 183.723C1214.9 188.173 1215.43 192.8 1214.79 197.184C1213.83 203.616 1210.56 208.39 1209.16 214.577C1208.04 219.53 1208.18 225.052 1207.72 230.264C1207.53 232.456 1207.23 234.585 1206.68 236.597C1205.26 241.908 1202.26 245.951 1201.49 251.634C1200.88 256.182 1201.83 260.989 1201.26 265.552C1200.6 270.863 1198 274.939 1196.92 280.054C1195.66 286.013 1196.58 292.688 1195.64 298.81C1194.65 305.257 1191.67 310.535 1190.88 317.063C1190.06 324.029 1191.83 331.566 1190.35 338.206C1189.11 343.663 1185.82 347.739 1185.53 353.552C1185.34 357.109 1186.36 360.714 1185.88 364.19C1185.4 367.648 1183.59 370.036 1182.3 372.877C1177.98 382.459 1179.84 395.531 1176.87 405.957C1175.33 411.429 1172.04 413.718 1170.28 419.241C1168.36 425.217 1167.49 431.956 1166.96 438.63C1166.16 448.568 1161.76 456.542 1160.75 466.416C1160.08 472.863 1160.94 479.488 1160.67 486.016C1160.45 491.197 1159.5 496.28 1157.92 500.746C1156.24 505.487 1153.85 509.66 1152.82 514.841H1152.82C1152.74 515.219 1152.66 515.588 1152.6 515.977C1151.66 522.052 1152.86 528.418 1152.98 534.702C1153.1 541.798 1151.76 548.96 1149.23 554.676C1147.73 558.048 1145.78 561.116 1145.14 565.184C1143.34 563.864 1141.64 562.396 1140.05 560.768C1138.37 559.042 1136.93 557.256 1135.72 555.345C1136.19 553.421 1136.6 551.471 1136.82 549.431C1137.52 542.918 1136.21 535.952 1137.56 529.732C1138.66 524.669 1141.36 520.824 1142.93 516.249C1142.93 516.249 1142.93 516.249 1142.93 516.249C1143.49 514.642 1143.9 512.956 1144.05 511.089C1144.26 508.54 1143.95 505.974 1143.9 503.409C1143.67 494.006 1147.52 489.475 1149.13 481.583C1151.08 472.051 1152.85 462.388 1154.74 452.807C1156.15 445.532 1158.45 439.068 1158.63 431.419C1158.86 422.326 1159.26 413.232 1161.64 404.87C1162.91 400.404 1164.69 396.327 1165.71 391.683C1167.68 382.718 1166.67 372.422 1168.91 363.653C1170.39 357.824 1173.19 353.18 1174.81 347.446C1177.3 338.662 1176.77 328.333 1178.44 319.011C1180.09 309.87 1183.8 302.058 1185.35 292.867C1186.84 284.016 1186.24 274.435 1187.87 265.65C1189.86 254.916 1195.05 246.244 1196.4 235.234C1196.64 233.284 1196.76 231.303 1196.82 229.289C1197.03 222.745 1196.67 216.039 1198.24 210.111C1199.65 204.833 1202.41 200.904 1204.17 195.901C1205.51 192.069 1206.22 187.733 1206.91 183.447C1207.69 178.569 1208.49 173.691 1209.27 168.813L1217.35 174.318Z" fill="#F0373A"/>
<path d="M1198.28 423.722C1197.62 426.856 1196.15 429.326 1195.11 432.167C1192.7 438.711 1193.12 446.49 1191.57 453.474C1188.11 469.079 1187.99 487.397 1189.22 503.814C1189.36 505.665 1189.52 507.517 1189.65 509.368C1188.51 509.548 1187.38 509.728 1186.24 509.906C1187.37 509.728 1188.51 509.555 1189.64 509.375C1189.85 512.609 1189.93 515.842 1189.5 518.999C1188.83 523.919 1186.95 528.418 1186.94 533.484C1186.94 537.722 1188.28 542.009 1187.56 546.086C1187.09 548.716 1185.85 550.73 1185.07 553.133C1183.33 558.605 1184.44 565.913 1184.45 572.474H1168.73C1169.04 566.498 1168.07 560.344 1168.7 554.399C1169.56 546.297 1173.26 539.557 1173.85 531.405C1174.24 526.144 1173.28 520.769 1173.72 515.524C1173.83 514.215 1174.02 512.957 1174.28 511.731C1175.21 511.593 1176.14 511.449 1177.08 511.309C1176.14 511.447 1175.21 511.588 1174.28 511.723C1175.67 504.935 1178.91 499.186 1180.43 492.318C1182.36 483.499 1181.3 473.708 1182.01 464.386C1182.42 458.946 1183.59 453.619 1184.82 448.325C1186.48 441.066 1188.23 433.823 1188.22 426.288C1188.21 421.627 1187.21 418.461 1188.05 413.736C1189.15 407.516 1191.09 401.881 1191.57 395.353C1192.04 389.117 1191.24 382.751 1191.83 376.564C1192.68 367.877 1196.17 360.519 1197.55 352.009C1198.9 343.777 1198.2 334.927 1199.49 326.677C1201 316.966 1205.15 308.781 1206.44 298.973C1207.47 291.178 1206.62 282.88 1207.93 275.199C1208.94 269.223 1211.19 264.042 1212.41 258.18C1214.17 249.768 1213.7 240.462 1215.15 231.871C1215.16 231.759 1215.19 231.662 1215.2 231.547C1216.77 222.616 1220.29 214.967 1222.35 206.312C1224.34 198.08 1225.01 189.027 1226.43 180.502L1233.51 185.324C1233.36 185.886 1233.23 186.455 1233.11 187.035C1231.85 193.077 1232.46 199.817 1231.34 205.922C1229.99 213.278 1226.27 219.092 1225.46 226.659C1225.2 229.128 1225.27 231.644 1225.36 234.178C1225.45 237.101 1225.57 240.008 1225.22 242.85C1224.41 249.312 1221.34 254.315 1220.01 260.518C1218.29 268.541 1219.63 277.602 1218.26 285.803C1216.7 295.125 1211.79 302.318 1210.81 311.866C1210.17 318.201 1211.37 324.727 1210.84 331.095C1210.17 339.263 1206.79 346.066 1205.26 353.911C1202.83 366.398 1205.25 380.623 1202.3 392.804C1201.07 397.805 1198.97 402.319 1198.53 407.661C1198.09 413.005 1199.34 418.64 1198.28 423.722Z" fill="#F0373A"/>
<path d="M1251.72 561.243C1252.3 559.198 1252.84 557.127 1253.12 554.98L1252.99 560.769C1252.6 560.914 1252.18 561.073 1251.72 561.243Z" fill="#F0373A"/>
<path d="M1259.38 260.04L1253.23 549.456C1252.58 541.468 1248.78 534.011 1249.19 525.786C1249.49 519.73 1252.03 514.565 1252.63 508.573C1253.03 504.655 1252.56 500.819 1251.85 496.996C1251.85 496.996 1251.85 496.994 1251.85 496.994C1250.67 490.613 1248.78 484.263 1248.97 477.637C1249.21 469.485 1252.61 461.95 1252 453.846C1251.51 447.237 1248.41 441.732 1248.07 435.091C1247.71 428.237 1250.35 421.904 1250.63 415.035C1250.87 408.751 1249.13 402.758 1248.57 396.522C1247.94 389.329 1248.92 382.184 1249.83 375.2C1250.64 368.964 1250.57 361.998 1251.71 356.022C1252.68 350.889 1254.2 345.953 1254.27 340.465C1254.34 335.073 1252.94 329.893 1252.8 324.501C1252.54 315.179 1255.99 306.767 1257.12 297.626C1258.52 286.242 1256.29 273.964 1258.63 263.019C1258.84 262.002 1259.1 261.013 1259.38 260.04Z" fill="#F0373A"/>
<path d="M1260.46 208.793L1259.38 260.039C1259.1 261.013 1258.84 262.001 1258.63 263.018C1256.29 273.964 1258.52 286.241 1257.12 297.625C1255.99 306.766 1252.54 315.179 1252.8 324.5C1252.94 329.892 1254.34 335.072 1254.27 340.464C1254.2 345.952 1252.68 350.889 1251.71 356.021C1250.57 361.997 1250.64 368.964 1249.83 375.199C1248.92 382.183 1247.94 389.328 1248.57 396.521C1249.13 402.757 1250.87 408.75 1250.63 415.034C1250.35 421.903 1247.71 428.236 1248.07 435.09C1248.41 441.731 1251.5 447.236 1252 453.845C1252.61 461.95 1249.21 469.484 1248.97 477.637C1248.78 484.262 1250.67 490.612 1251.85 496.993C1251.85 496.993 1251.85 496.995 1251.85 496.995C1252.56 500.818 1253.03 504.654 1252.63 508.572C1252.03 514.564 1249.49 519.729 1249.19 525.785C1248.78 534.01 1252.58 541.467 1253.23 549.455L1253.12 554.979C1252.84 557.126 1252.3 559.197 1251.72 561.242C1247.13 562.941 1239.22 565.741 1229.52 568.411C1229.63 564.875 1230.02 561.324 1230.61 557.696C1232.18 547.952 1234.47 537.9 1233.08 528.076C1232.18 521.742 1229.78 515.977 1229.74 509.466C1229.72 506.855 1230.09 504.365 1230.62 501.919C1237.66 500.43 1244.69 498.804 1251.72 497.028C1244.69 498.801 1237.66 500.43 1230.62 501.914C1231.7 496.913 1233.47 492.106 1234.08 486.844C1235.26 476.695 1232.03 466.545 1231.91 456.233C1231.9 455.681 1231.9 455.129 1231.91 454.576C1232.15 444.216 1235.75 435.235 1236.59 425.102C1237.4 415.441 1236.88 405.924 1236.02 396.294C1235.3 388.077 1234.91 379.925 1237.16 372.472C1239.47 364.742 1240.1 355.161 1239.76 346.634C1239.55 341.292 1238.92 335.754 1239.95 330.705C1240.68 327.181 1242.16 324.24 1243.01 320.798C1244.96 312.986 1243.45 303.828 1244.97 295.741C1245.82 291.129 1247.62 287.183 1248.94 282.895C1250.62 277.423 1251.56 271.3 1251.65 265.146C1251.74 259.641 1251.23 253.632 1253.07 249.052C1253.29 248.501 1253.53 247.998 1253.8 247.509C1254.6 246.017 1255.55 244.701 1256.23 243.028C1258.62 237.215 1257.23 229.37 1257.64 222.355C1257.93 217.553 1259.09 213.046 1260.46 208.793Z" fill="#FF750A"/>
<path d="M1253.27 553.408C1253.24 553.937 1253.18 554.459 1253.12 554.979L1253.23 549.455C1253.34 550.757 1253.36 552.073 1253.27 553.408Z" fill="#FF750A"/>
<path d="M1255.62 200.39C1254.42 204.582 1252.51 208.21 1251.63 212.629C1250.37 218.929 1251.33 226.025 1250.06 232.327C1249.25 236.24 1247.65 239.537 1246.42 243.125C1246.03 244.23 1245.69 245.368 1245.41 246.552C1243.63 254.331 1245.07 263.408 1243.27 271.187C1241.87 277.196 1238.69 281.727 1237.52 287.866C1236.46 293.419 1237.19 299.459 1236.69 305.226C1236.16 311.64 1234.15 317.389 1232.62 323.347C1230 333.595 1232.39 343.08 1230.7 353.31C1229.79 358.767 1228.31 363.913 1227.47 369.387C1226.28 377.214 1226.44 385.463 1225.25 393.275C1224 401.524 1221.26 409.221 1221.07 417.713C1220.89 425.932 1223.13 433.986 1222.55 442.138C1222 449.591 1219.18 456.056 1218.23 463.396C1216.71 475.185 1220.22 487.559 1218.71 499.349C1218.49 501.103 1218.15 502.808 1217.77 504.497C1213.5 505.305 1209.24 506.085 1204.97 506.833C1209.24 506.088 1213.5 505.312 1217.77 504.498C1216.45 510.325 1214.53 515.888 1214.36 522.083C1214.08 532.672 1219.04 542.496 1218.09 552.971C1217.46 559.922 1214.36 565.491 1213 572.133C1212.99 572.204 1212.97 572.273 1212.96 572.344C1212.73 572.388 1212.51 572.431 1212.29 572.474L1200.98 575.591C1200.53 573.48 1200.26 568.253 1200.22 566.012C1200.13 561.058 1202 556.592 1202.44 551.688C1203.01 545.159 1200.97 538.827 1200.6 532.25C1200.16 524.227 1202.23 516.237 1201.66 508.232C1201.64 507.958 1201.61 507.688 1201.58 507.416H1201.59C1201.07 501.847 1199.43 496.555 1199.44 490.905C1199.46 483.809 1200.19 476.939 1201 469.973C1201.6 464.858 1203.09 460.115 1203.25 454.918C1203.29 453.278 1203.4 451.654 1203.55 450.047C1204.17 443.259 1205.61 436.715 1207.17 430.365C1208.98 423.057 1211.32 417.211 1211.23 408.896C1211.16 403.098 1210.17 397.026 1211.5 391.666C1212.67 387.039 1214.88 384.165 1215.96 379.243C1217.2 373.494 1217.8 367.373 1217.68 361.267C1217.59 356.411 1217.06 351.556 1217.37 346.733C1217.83 339.798 1219.97 333.547 1221.19 326.871C1222.91 317.323 1222.67 307.141 1223.56 297.284C1223.89 293.565 1224.38 289.847 1225.37 286.453C1226.83 281.32 1229.33 277.147 1230.86 272.047C1234.03 261.526 1232.68 248.842 1234.17 237.33C1234.32 236.159 1234.51 235.006 1234.72 233.87C1235.94 227.504 1238.26 221.885 1239.76 215.665C1241.6 207.99 1242.11 199.649 1242.42 191.394L1255.62 200.39Z" fill="#FF750A"/>
<path d="M1212.96 572.344C1212.95 572.387 1212.94 572.431 1212.93 572.474H1212.29C1212.51 572.431 1212.73 572.387 1212.96 572.344Z" fill="#FF750A"/>
<path d="M1217.35 174.318C1216.51 177.373 1215.68 180.426 1215.35 183.723C1214.9 188.173 1215.43 192.8 1214.79 197.184C1213.83 203.616 1210.56 208.39 1209.16 214.577C1208.04 219.53 1208.18 225.052 1207.72 230.264C1207.53 232.456 1207.23 234.585 1206.68 236.597C1205.26 241.908 1202.26 245.951 1201.49 251.634C1200.88 256.182 1201.83 260.989 1201.26 265.552C1200.6 270.863 1198 274.939 1196.92 280.054C1195.66 286.013 1196.58 292.688 1195.64 298.81C1194.65 305.257 1191.67 310.535 1190.88 317.063C1190.06 324.029 1191.83 331.566 1190.35 338.206C1189.11 343.663 1185.82 347.739 1185.53 353.552C1185.34 357.109 1186.36 360.714 1185.88 364.19C1185.4 367.648 1183.59 370.036 1182.3 372.877C1177.98 382.459 1179.84 395.531 1176.87 405.957C1175.33 411.429 1172.04 413.718 1170.28 419.241C1168.36 425.217 1167.49 431.956 1166.96 438.63C1166.16 448.568 1161.76 456.542 1160.75 466.416C1160.08 472.863 1160.94 479.488 1160.67 486.016C1160.45 491.197 1159.5 496.28 1157.92 500.746C1156.24 505.487 1153.85 509.66 1152.82 514.841H1152.82C1152.74 515.219 1152.66 515.588 1152.6 515.977C1151.66 522.052 1152.86 528.418 1152.98 534.702C1153.1 541.798 1151.76 548.96 1149.23 554.676C1147.73 558.048 1145.78 561.116 1145.14 565.184C1143.34 563.864 1141.64 562.396 1140.05 560.768C1138.37 559.042 1136.93 557.256 1135.72 555.345C1136.19 553.421 1136.6 551.471 1136.82 549.431C1137.52 542.918 1136.21 535.952 1137.56 529.732C1138.66 524.669 1141.36 520.824 1142.93 516.249C1142.93 516.249 1142.93 516.249 1142.93 516.249C1143.49 514.642 1143.9 512.956 1144.05 511.089C1144.26 508.54 1143.95 505.974 1143.9 503.409C1143.67 494.006 1147.52 489.475 1149.13 481.583C1151.08 472.051 1152.85 462.388 1154.74 452.807C1156.15 445.532 1158.45 439.068 1158.63 431.419C1158.86 422.326 1159.26 413.232 1161.64 404.87C1162.91 400.404 1164.69 396.327 1165.71 391.683C1167.68 382.718 1166.67 372.422 1168.91 363.653C1170.39 357.824 1173.19 353.18 1174.81 347.446C1177.3 338.662 1176.77 328.333 1178.44 319.011C1180.09 309.87 1183.8 302.058 1185.35 292.867C1186.84 284.016 1186.24 274.435 1187.87 265.65C1189.86 254.916 1195.05 246.244 1196.4 235.234C1196.64 233.284 1196.76 231.303 1196.82 229.289C1197.03 222.745 1196.67 216.039 1198.24 210.111C1199.65 204.833 1202.41 200.904 1204.17 195.901C1205.51 192.069 1206.22 187.733 1206.91 183.447C1207.69 178.569 1208.49 173.691 1209.27 168.813L1217.35 174.318Z" fill="#FF750A"/>
<path d="M1226.43 180.502C1225.01 189.027 1224.34 198.08 1222.35 206.312C1220.29 214.967 1216.77 222.615 1215.2 231.547C1215.19 231.662 1215.16 231.759 1215.15 231.871C1213.7 240.462 1214.17 249.768 1212.41 258.18C1211.19 264.042 1208.94 269.223 1207.93 275.199C1206.62 282.88 1207.47 291.178 1206.44 298.972C1205.15 308.781 1201 316.966 1199.49 326.677C1198.2 334.927 1198.9 343.777 1197.55 352.009C1196.16 360.519 1192.68 367.876 1191.83 376.564C1191.24 382.751 1192.04 389.117 1191.57 395.353C1191.09 401.881 1189.15 407.516 1188.05 413.736C1187.21 418.461 1188.21 421.627 1188.22 426.288C1188.23 433.823 1186.48 441.066 1184.82 448.325C1183.59 453.619 1182.42 458.946 1182.01 464.386C1181.3 473.708 1182.36 483.499 1180.43 492.318C1178.91 499.186 1175.67 504.935 1174.28 511.723C1175.21 511.588 1176.14 511.447 1177.08 511.309C1176.14 511.449 1175.21 511.593 1174.28 511.731C1174.02 512.957 1173.83 514.215 1173.72 515.524C1173.28 520.769 1174.24 526.144 1173.85 531.405C1173.26 539.557 1169.56 546.297 1168.7 554.399C1168.12 559.906 1168.8 568.415 1168.65 574.389C1173.89 575.243 1179.36 575.57 1184.9 575.501C1184.51 568.136 1183.67 557.552 1185.07 553.133C1185.85 550.73 1187.09 548.716 1187.56 546.085C1188.28 542.009 1186.94 537.722 1186.94 533.484C1186.95 528.417 1188.83 523.919 1189.5 518.999C1189.93 515.842 1189.85 512.609 1189.64 509.375C1188.51 509.555 1187.37 509.728 1186.24 509.906C1187.38 509.728 1188.51 509.548 1189.65 509.368C1189.52 507.516 1189.36 505.665 1189.22 503.814C1187.99 487.396 1188.11 469.079 1191.57 453.474C1193.12 446.49 1192.7 438.711 1195.11 432.167C1196.15 429.326 1197.62 426.856 1198.28 423.722C1199.34 418.64 1198.09 413.005 1198.53 407.661C1198.97 402.319 1201.07 397.805 1202.3 392.804C1205.25 380.623 1202.83 366.398 1205.26 353.911C1206.79 346.066 1210.17 339.263 1210.84 331.095C1211.37 324.727 1210.17 318.201 1210.81 311.866C1211.79 302.318 1216.7 295.125 1218.26 285.803C1219.63 277.602 1218.29 268.54 1220.01 260.518C1221.34 254.315 1224.41 249.312 1225.22 242.85C1225.57 240.008 1225.45 237.101 1225.36 234.178C1225.27 231.644 1225.2 229.128 1225.46 226.659C1226.27 219.092 1229.99 213.278 1231.34 205.922C1232.46 199.817 1231.85 193.077 1233.11 187.035C1233.23 186.455 1233.36 185.885 1233.51 185.324L1226.43 180.502Z" fill="#FF750A"/>
<path d="M1190.16 319.543C1190.16 319.543 1189.89 322.278 1189.54 326.428C1189.54 326.475 1189.53 326.529 1189.53 326.582C1189.46 327.452 1189.38 328.39 1189.31 329.369C1189.15 331.483 1188.99 333.829 1188.85 336.276C1188.79 337.211 1188.74 338.16 1188.69 339.114C1188.58 341.227 1188.5 343.362 1188.45 345.478L1188.45 345.487C1188.43 346.295 1188.41 347.104 1188.4 347.906C1188.38 348.496 1188.38 349.082 1188.38 349.655C1188.38 351.328 1188.4 352.943 1188.45 354.455C1188.48 355.25 1188.51 356.008 1188.56 356.744C1188.69 358.732 1188.89 360.495 1189.17 361.915C1189.17 361.915 1224.95 355.612 1248.64 344.536C1258.31 340.015 1265.96 334.707 1268.34 328.695C1270.43 323.386 1271.74 313.382 1272.33 301.203C1274.01 265.843 1269.56 212.219 1260.45 202.423C1260.45 202.423 1258.03 203.047 1254.39 205.178C1254.15 205.308 1253.91 205.455 1253.67 205.601C1251.9 206.673 1249.89 208.089 1247.73 209.925C1247.68 209.975 1247.61 210.022 1247.56 210.072C1244.89 212.378 1242.03 215.338 1239.2 219.127C1238.44 220.133 1237.68 221.205 1236.93 222.341C1235.96 223.821 1234.98 225.411 1234.04 227.118C1233.62 227.859 1233.23 228.597 1232.85 229.338C1232.83 229.369 1232.82 229.404 1232.8 229.435C1222.44 249.609 1222.31 270.456 1222.31 270.456L1221.77 298.923L1221.64 305.655C1221.64 305.654 1195.52 315.415 1190.16 319.543Z" fill="#F0373A"/>
<path d="M1189.54 326.426C1189.54 326.472 1189.53 326.526 1189.53 326.58C1189.46 327.449 1189.38 328.388 1189.31 329.366C1189.15 331.48 1188.99 333.827 1188.85 336.274C1188.79 337.209 1188.74 338.158 1188.69 339.112C1191.41 338.421 1193.17 335.018 1196.06 335.202C1196.68 335.245 1197.27 335.456 1197.88 335.498C1199.7 335.621 1201.24 334.27 1202.25 332.862C1203.25 331.444 1204.04 329.823 1205.52 328.843C1209.32 326.313 1215.38 329.281 1219 326.542C1221.11 324.949 1221.69 321.839 1224.2 320.862C1225.98 320.171 1228.14 320.876 1229.93 320.185C1233.01 318.993 1232.9 314.888 1234.8 312.344C1235.7 311.128 1237.05 310.294 1238.2 309.282C1241.23 306.652 1242.89 302.719 1242.59 298.872C1242.38 296.202 1241.28 293.573 1241.59 290.91C1241.89 288.165 1243.65 285.722 1244.15 282.999C1244.89 279.017 1242.88 275.015 1243.05 270.98C1243.23 266.893 1245.63 263.011 1245.24 258.931C1244.98 256.202 1243.49 253.671 1243.19 250.94C1242.8 247.307 1244.56 243.629 1243.75 240.06C1243.11 237.286 1240.99 234.917 1240.59 232.105C1240.16 229.093 1241.71 226.02 1241.19 222.949C1240.96 221.609 1240.24 220.148 1239.2 219.124C1238.44 220.13 1237.68 221.202 1236.93 222.338C1235.96 223.819 1234.98 225.408 1234.04 227.116C1233.62 227.857 1233.23 228.595 1232.85 229.336C1232.83 229.367 1232.82 229.402 1232.8 229.433C1232.96 230.253 1233.08 231.078 1233.09 231.912C1233.12 234.609 1232.05 237.253 1232.22 239.949C1232.43 242.976 1234.19 245.724 1234.86 248.692C1236.08 253.994 1233.75 259.589 1234.99 264.89C1235.38 266.556 1236.13 268.189 1236.06 269.898C1235.98 271.688 1235.04 273.34 1234.63 275.089C1233.85 278.45 1235.09 281.94 1234.79 285.363C1234.43 289.41 1231.96 293.102 1231.6 297.149C1231.41 299.175 1231.78 301.209 1231.63 303.237C1231.49 305.267 1230.72 307.423 1228.87 308.527C1227.32 309.463 1225.28 309.473 1223.72 310.405C1220.62 312.259 1220.3 317.111 1216.78 318.105C1214.54 318.741 1211.81 317.454 1209.92 318.73C1208.4 319.766 1207.99 322.173 1206.14 322.434C1205.34 322.552 1204.55 322.181 1203.78 321.958C1201.45 321.291 1198.74 321.993 1197.11 323.685C1196.28 324.556 1195.65 325.695 1194.48 326.121C1193.53 326.464 1192.48 326.242 1191.45 326.209C1190.77 326.185 1190.13 326.261 1189.54 326.426Z" fill="#F6A700"/>
<path d="M1188.45 345.477L1188.45 345.485C1188.42 346.294 1188.41 347.103 1188.4 347.904C1188.38 348.495 1188.38 349.08 1188.37 349.653C1188.38 351.326 1188.4 352.942 1188.45 354.453C1188.48 355.248 1188.51 356.007 1188.56 356.743C1193.05 356.112 1196.11 351.162 1200.71 351.12C1203.04 351.103 1205.19 352.408 1207.51 352.436C1212.36 352.507 1215.46 347.343 1220.17 346.214C1223.32 345.454 1226.92 346.602 1229.8 345.186C1232.38 343.909 1233.53 340.948 1236 339.476C1239.76 337.248 1245.27 339.156 1248.83 336.676C1251.78 334.636 1251.95 330.687 1253.45 327.571C1255.36 323.62 1259.58 320.847 1261.04 316.733C1262.57 312.444 1260.74 307.758 1261.11 303.256C1261.52 298.343 1264.52 293.806 1264.52 288.886C1264.53 283.676 1261.15 278.782 1261.52 273.579C1261.78 270.235 1263.56 267.147 1264.06 263.831C1265.08 257.124 1260.81 250.561 1261.24 243.808C1261.52 239.448 1263.75 235.162 1262.88 230.874C1262.17 227.385 1259.47 224.417 1258.95 220.888C1258.49 217.686 1259.9 214.445 1259.45 211.246C1259.04 208.268 1257.6 207.21 1255.16 205.708C1254.9 205.547 1254.64 205.36 1254.38 205.173C1254.14 205.303 1253.9 205.45 1253.66 205.596C1251.89 206.668 1249.88 208.084 1247.72 209.92C1247.87 210.295 1247.96 210.678 1248.02 211.057C1248.18 212.453 1247.53 213.828 1247.43 215.229C1247.18 218.564 1249.89 221.39 1251.12 224.53C1253.55 230.803 1249.94 238.082 1252.42 244.338C1253.07 245.981 1254.13 247.493 1254.51 249.204C1255.16 252.089 1253.8 255.014 1253.51 257.945C1252.93 263.68 1256.41 269.206 1256.26 274.962C1256.12 279.698 1253.54 284.433 1254.88 288.999C1255.32 290.533 1256.21 292.019 1256.1 293.6C1255.99 295.098 1255.01 296.395 1254.43 297.794C1252.24 303.051 1255.61 309.68 1252.16 314.312C1250.4 316.672 1247.22 317.883 1245.52 320.298C1244.16 322.252 1243.85 324.886 1241.9 326.347C1238.95 328.569 1234.15 326.719 1230.95 328.64C1229.22 329.682 1228.33 331.632 1226.67 332.778C1223.35 335.059 1218.15 333.461 1214.94 335.861C1212.98 337.31 1212.22 339.989 1209.96 341.002C1206.23 342.671 1200.93 338.798 1198.02 341.535C1197.38 342.154 1197.04 342.986 1196.45 343.634C1194.61 345.684 1191.44 345.286 1188.45 345.477Z" fill="#F6A700"/>
<path d="M1105.93 338.091L1105.94 338.093C1105.97 338.108 1105.99 338.113 1105.99 338.113C1105.99 338.113 1106.01 338.87 1106.55 339.935C1107.27 341.358 1108.91 343.327 1112.63 344.746C1119.12 347.222 1131.14 352.07 1146.62 353.696C1155.89 354.675 1169.25 354.062 1179.36 352.126C1182.85 351.454 1185.96 350.628 1188.37 349.653C1188.38 349.08 1188.38 348.495 1188.39 347.904C1188.45 344.088 1188.62 340.056 1188.84 336.274C1188.99 333.826 1189.14 331.481 1189.31 329.367C1189.38 328.388 1189.46 327.45 1189.53 326.581L1187.93 327.194L1177.9 331.043C1177.9 331.043 1169.22 326.607 1157.15 321.902C1146.97 317.933 1138.61 318.033 1135.52 319.526C1134.95 319.803 1134.55 320.13 1134.36 320.49C1133.16 322.771 1135.46 325.523 1141.16 327.329C1146.45 329.005 1150.49 330.098 1150.99 331.808C1151.03 331.938 1151.04 332.079 1151.04 332.224C1150.93 334.189 1145.99 335.795 1136.64 335.161C1127.27 334.532 1104.7 331.337 1102.75 333.431C1100.91 335.396 1105.43 337.819 1105.93 338.091Z" fill="#F0D0B4"/>
<path d="M1141.16 327.328C1146.45 329.004 1150.5 330.097 1150.99 331.808C1151.04 331.747 1151.06 331.69 1151.09 331.626C1151.32 331.129 1151.35 330.579 1151.33 330.035C1151.28 329.043 1151.05 328.023 1150.41 327.231C1149.41 326 1147.7 325.531 1146.13 325.053C1143.53 324.249 1141.04 323.191 1138.69 321.903C1137.5 321.262 1136.34 320.535 1135.52 319.525C1134.95 319.802 1134.55 320.13 1134.36 320.49C1133.17 322.771 1135.46 325.522 1141.16 327.328Z" fill="#CF9E76"/>
<path d="M1179.36 352.126C1182.85 351.454 1185.96 350.628 1188.37 349.653C1188.38 349.08 1188.38 348.494 1188.4 347.904C1188.45 344.087 1188.63 340.056 1188.84 336.274C1188.99 333.825 1189.14 331.481 1189.31 329.366C1189.38 328.388 1189.46 327.45 1189.53 326.58L1187.93 327.193C1187.8 327.908 1187.67 328.632 1187.52 329.344C1185.9 337.228 1183.16 344.915 1179.36 352.126Z" fill="#CF9E76"/>
<path d="M1105.95 338.094C1105.97 338.11 1105.99 338.115 1105.99 338.115C1105.99 338.115 1106.01 338.872 1106.56 339.937C1106.98 340.039 1107.39 340.138 1107.8 340.238C1111.77 341.201 1115.77 342.009 1119.82 342.617C1123.86 343.223 1127.92 343.689 1132 343.968C1132.98 344.035 1135.25 344.597 1135.95 343.665C1136.64 342.723 1134.82 342.79 1134.18 342.751C1132.81 342.674 1131.45 342.579 1130.08 342.467C1126.31 342.131 1122.55 341.644 1118.82 340.983C1115.02 340.3 1111.25 339.49 1107.52 338.525C1106.99 338.387 1106.47 338.25 1105.95 338.094Z" fill="#CF9E76"/>
<path d="M938.104 535.639L927.048 539.054L928.755 364.457L936.91 394.634L937.602 428.575L936.91 437.926L936.612 451.756L935.614 492.223C935.614 492.223 934.139 495.245 934.139 495.418C934.139 495.591 935.185 499.209 935.185 499.209L936.736 507.02L938.104 535.639Z" fill="#C32B2D"/>
<path d="M964.458 130.767C964.555 134.885 965.466 138.896 966.232 143.007C967.29 148.688 966.284 153.89 966.543 159.544C966.787 164.858 968.677 169.972 968.393 175.323C968.138 180.126 966.843 184.665 967.754 189.496C968.284 192.3 969.406 194.965 969.33 197.86C969.26 200.516 968.256 203.1 967.809 205.704C966.924 210.868 969.125 215.582 968.704 220.669C968.263 226.016 967.821 230.875 968.805 236.235C969.775 241.525 971.292 246.853 970.786 252.284C970.694 253.274 970.511 255.247 971.664 255.764C972.852 256.298 974.022 254.975 974.201 253.955C975.118 248.67 975.271 243.413 974.242 238.126C973.724 235.468 972.689 232.867 972.547 230.15C972.403 227.4 973.428 224.879 973.802 222.191C974.578 216.627 972.04 211.355 973.146 205.798C974.092 201.044 975.028 197.2 973.899 192.364C973.219 189.442 972.493 186.789 972.696 183.745C972.881 180.962 973.508 178.228 973.667 175.444C973.967 170.221 972.201 165.151 971.879 159.978C971.525 154.307 972.118 148.811 972.481 143.154C972.556 141.983 972.573 140.858 972.552 139.751C969.546 137.23 966.808 134.078 964.458 130.767Z" fill="black"/>
<g opacity="0.2">
<path d="M1064.52 349.958H1020.07C1015.75 348.304 1011.32 346.235 1007.63 344.086C1006.63 343.504 1005.69 342.915 1004.81 342.328C1002.06 340.482 1000.02 338.647 999.176 337.017C999.187 336.983 999.2 336.945 999.211 336.91C998.845 336.804 998.482 336.699 998.122 336.595C997.99 336.557 997.86 336.52 997.73 336.482C997.432 336.397 997.136 336.312 996.844 336.229C996.698 336.188 996.553 336.146 996.409 336.105C996.12 336.023 995.836 335.944 995.552 335.864C995.424 335.828 995.296 335.791 995.169 335.757C994.362 335.53 993.573 335.312 992.8 335.099C992.683 335.067 992.568 335.036 992.451 335.003C992.18 334.929 991.91 334.856 991.644 334.783C991.512 334.747 991.38 334.712 991.25 334.676C990.984 334.605 990.721 334.534 990.459 334.463C990.35 334.434 990.243 334.404 990.134 334.375C989.782 334.281 989.434 334.188 989.089 334.096C989.074 334.092 989.058 334.087 989.043 334.084C988.684 333.989 988.331 333.893 987.979 333.802C987.862 333.77 987.746 333.739 987.628 333.708C987.392 333.646 987.157 333.583 986.925 333.523C986.797 333.488 986.67 333.455 986.544 333.422C986.315 333.362 986.088 333.303 985.865 333.244C985.746 333.213 985.624 333.182 985.507 333.15C985.243 333.081 984.982 333.014 984.724 332.944C984.506 332.887 984.289 332.832 984.073 332.775C983.92 332.735 983.768 332.695 983.617 332.657C983.268 332.565 982.921 332.475 982.577 332.385C982.506 332.366 982.436 332.347 982.365 332.33C982.1 332.26 981.837 332.191 981.576 332.124C981.505 332.105 981.434 332.086 981.363 332.068C969.11 328.859 960.841 326.485 946.745 318.418C939.737 314.407 934.574 307.851 934.161 299.785C932.826 273.559 931.491 247.333 930.156 221.108C929.966 217.367 931.173 213.662 933.639 210.842C936.719 207.324 940.676 206.449 944.603 206.865C953.729 207.829 960.685 215.495 961.018 224.665L963.135 283.175L963.288 287.357C963.296 287.593 963.309 287.825 963.324 288.058C963.338 288.247 963.354 288.434 963.371 288.623C963.376 288.661 963.378 288.699 963.381 288.737C963.426 289.189 963.485 289.638 963.558 290.083C963.733 291.172 963.987 292.239 964.316 293.276C964.647 294.315 965.052 295.324 965.529 296.296C965.8 296.855 966.098 297.401 966.417 297.934C966.432 297.96 966.448 297.984 966.462 298.01C966.945 298.808 967.477 299.577 968.057 300.312C968.062 300.32 968.069 300.329 968.076 300.336C968.666 301.08 969.304 301.787 969.988 302.454C971.453 303.879 973.124 305.113 974.973 306.106L1006.13 322.814L1010.76 325.296C1010.98 325.417 1011.03 325.725 1010.84 325.904C1012.49 327.377 1014.69 328.059 1016.88 327.772C1019.89 327.375 1024.68 326.832 1030.28 326.501C1039.9 325.926 1046.25 329.007 1046.47 331.003C1046.48 331.083 1046.48 331.163 1046.48 331.234C1046.52 333.121 1044.21 334.503 1039.95 334.46C1035.51 334.422 1034.39 334.811 1033.42 335.112C1036.47 337.353 1037.44 338.771 1043.72 340.976C1050.24 343.265 1064.22 346.353 1065.01 348.394C1065.27 349.049 1065.01 349.561 1064.52 349.958Z" fill="#0F1F47"/>
</g>
<path d="M995.54 340.307C996.381 341.937 998.426 343.774 1001.18 345.618C1007.7 349.998 1018.15 354.417 1025.6 356.121C1036.77 358.682 1046.39 358 1051.55 357.73C1054.5 357.577 1056.16 356.509 1057.03 355.619C1057.69 354.954 1057.91 354.394 1057.91 354.394C1057.91 354.394 1057.92 354.394 1057.94 354.387H1057.95C1058.37 354.308 1062.14 353.598 1061.38 351.683C1060.58 349.641 1046.6 346.555 1040.08 344.264C1033.8 342.06 1032.83 340.642 1029.78 338.401C1030.76 338.1 1031.88 337.712 1036.32 337.748C1040.58 337.791 1042.88 336.409 1042.84 334.522C1042.85 334.451 1042.84 334.373 1042.83 334.292C1042.61 332.295 1036.26 329.214 1026.65 329.789C1017.03 330.357 1009.84 331.55 1009.84 331.55L1005.71 327.859L1005.65 327.801C1000.02 328.962 996.875 336.257 995.54 340.307Z" fill="#F0D0B4"/>
<path d="M1029.78 338.402C1030.76 338.101 1031.87 337.713 1036.31 337.749C1040.58 337.793 1042.88 336.411 1042.84 334.523C1040.01 336.745 1031.01 335.129 1029.47 336.057C1027.82 337.055 1029.78 338.402 1029.78 338.402Z" fill="#CF9E76"/>
<path d="M995.54 340.308C996.381 341.937 998.426 343.774 1001.18 345.619C1001.08 344.678 1001.03 343.742 1001.03 342.789C1001.01 337.438 1002.74 332.25 1005.71 327.861L1005.65 327.803C1000.02 328.962 996.875 336.257 995.54 340.308Z" fill="#CF9E76"/>
<path d="M1057.94 354.39C1057.92 354.396 1057.91 354.396 1057.91 354.396C1057.91 354.396 1057.69 354.955 1057.04 355.62C1056.72 355.594 1056.4 355.566 1056.09 355.54C1053.08 355.291 1050.09 354.917 1047.12 354.383C1044.16 353.85 1041.22 353.208 1038.31 352.42C1037.62 352.229 1035.89 352.094 1035.65 351.228C1035.42 350.356 1036.67 350.851 1037.12 350.977C1038.09 351.254 1039.06 351.516 1040.04 351.765C1042.75 352.435 1045.48 352.989 1048.24 353.405C1051.07 353.824 1053.9 354.139 1056.74 354.33C1057.14 354.356 1057.54 354.38 1057.94 354.39Z" fill="#CF9E76"/>
<path d="M971.337 309.397C964.386 305.669 959.935 298.531 959.651 290.649L957.381 227.954C957.049 218.785 950.093 211.121 940.969 210.155C937.041 209.739 933.084 210.614 930.004 214.134C927.536 216.951 926.331 220.659 926.521 224.399C927.857 250.625 929.192 276.851 930.527 303.077C930.937 311.143 936.101 317.697 943.111 321.709C963.066 333.129 971.342 333.141 995.786 340.262L1007.58 328.833L971.337 309.397Z" fill="#03928D"/>
<path d="M977.337 315.048C977.399 317.729 979.835 319.734 982.263 320.874C984.691 322.013 987.418 322.749 989.304 324.655C985.458 326.65 980.904 323.594 976.575 323.79C976.166 323.809 975.699 323.894 975.494 324.249C975.221 324.725 975.617 325.305 976.022 325.675C979.962 329.288 986.378 328.701 990.636 331.934C989.309 332.581 987.746 332.188 986.288 331.956C983.425 331.499 980.455 331.726 977.697 332.611C977.333 332.727 976.956 332.865 976.699 333.149C976.225 333.676 976.341 334.54 976.769 335.108C982.095 336.509 988.151 338.039 995.782 340.261L1007.58 328.832L984.071 316.228C981.827 315.834 979.583 315.441 977.337 315.048Z" fill="#D9EAF4"/>
<g opacity="0.2">
<path d="M959.921 293.373C959.778 292.478 959.684 291.569 959.651 290.647L959.501 286.465C954.505 285.717 949.384 285.908 944.356 286.102C942.208 286.185 939.95 286.301 938.132 287.444C936.314 288.587 935.19 291.136 936.33 292.957C937.587 294.966 940.487 294.873 942.837 294.578C947.32 294.017 951.821 293.598 956.33 293.326C957.525 293.253 958.739 293.196 959.921 293.373Z" fill="#0F1F47"/>
</g>
<g opacity="0.2">
<path d="M946.825 310.229C950.231 310.837 953.445 308.74 956.673 307.495C958.728 306.702 963.186 306.665 966.351 305.746C964.516 303.96 963.009 301.876 961.89 299.588C960.945 299.766 960.138 299.981 959.632 300.163C955.991 301.463 952.351 302.766 948.709 304.066C947.499 304.499 946.236 304.965 945.376 305.921C944.515 306.877 944.229 308.48 945.106 309.42C945.545 309.891 946.191 310.116 946.825 310.229Z" fill="#0F1F47"/>
</g>
<path d="M958.812 124.54C957.599 129.316 958.228 134.452 959.066 139.258C960.121 145.299 958.588 151.303 958.448 157.36C958.323 162.68 959.856 167.911 959.203 173.229C958.618 178.003 957.011 182.441 957.587 187.325C957.921 190.158 958.857 192.894 958.581 195.777C958.375 197.933 957.502 199.943 957.102 202.051C956.654 204.409 956.266 206.252 956.806 208.676C957.31 210.943 958.171 213.137 958.431 215.443C958.631 217.223 958.463 219.043 957.944 220.756C957.296 222.889 956.102 224.912 956.06 227.14C956.015 229.541 957.312 231.728 958.112 233.989C959.414 237.665 959.407 241.792 958.091 245.463C957.601 246.833 956.921 248.183 956.739 249.643C956.656 250.313 956.332 252.705 957.09 253.143C957.22 253.217 957.383 253.181 957.523 253.131C959.504 252.423 960.289 249.986 960.962 248.218C961.806 246.007 962.422 243.704 962.687 241.349C963.023 238.374 962.786 235.303 961.8 232.465C960.86 229.755 959.53 226.915 960.363 223.991C960.663 222.941 961.168 221.963 961.508 220.927C963.127 216.008 960.992 210.861 961.527 205.853C961.793 203.363 962.729 200.958 963.236 198.506C963.776 195.896 963.942 193.247 963.516 190.608C963.038 187.647 962.5 184.949 962.912 181.927C963.288 179.165 964.103 176.479 964.455 173.714C965.115 168.524 963.702 163.345 963.738 158.162C963.778 152.48 964.748 147.038 965.501 141.42C965.851 138.813 965.842 136.464 965.501 133.993C962.779 129.671 960.761 125.314 959.698 121.912C959.336 122.771 959.037 123.649 958.812 124.54Z" fill="black"/>
<path d="M955.946 123.668C957.236 121.349 958.789 118.992 960.734 117.671C961.056 117.451 961.409 117.254 961.797 117.215C962.49 117.148 963.148 117.619 963.489 118.225C963.83 118.831 963.91 119.546 963.934 120.242C964.148 126.175 960.76 131.115 958.682 136.452C956.5 142.059 954.813 147.99 955.038 154.061C955.222 159.033 956.365 164.179 955.736 169.127C955.385 171.894 954.569 174.578 954.193 177.34C953.781 180.363 954.32 183.06 954.798 186.021C955.224 188.661 955.056 191.309 954.517 193.919C954.01 196.371 953.075 198.776 952.808 201.266C952.273 206.274 954.408 211.421 952.789 216.34C952.448 217.376 951.942 218.354 951.644 219.403C950.81 222.328 952.141 225.168 953.082 227.878C954.067 230.716 954.304 233.786 953.968 236.761C953.703 239.115 953.085 241.42 952.243 243.631C951.568 245.401 950.785 247.835 948.804 248.544C948.664 248.594 948.501 248.63 948.371 248.556C947.613 248.118 947.937 245.726 948.02 245.056C948.202 243.596 948.881 242.246 949.372 240.876C950.687 237.203 950.694 233.078 949.393 229.402C948.591 227.139 947.296 224.953 947.341 222.553C947.383 220.323 948.579 218.302 949.225 216.169C949.745 214.454 949.911 212.634 949.712 210.856C949.452 208.548 948.591 206.355 948.087 204.089C947.547 201.664 947.935 199.822 948.384 197.463C948.784 195.358 949.656 193.346 949.862 191.19C950.138 188.306 949.203 185.571 948.868 182.738C948.294 177.856 949.899 173.416 950.484 168.642C951.035 164.152 950.46 159.083 949.949 154.617C949.346 149.362 949.353 144.013 950.268 138.794C950.997 134.632 952.313 130.561 954.278 126.817C954.784 125.853 955.336 124.764 955.946 123.668Z" fill="black"/>
<path d="M1028.7 108.528C1024.54 107.148 1020.36 106.263 1016.14 105.76C1016.08 108.768 1015.86 111.804 1015.59 114.76C1019.97 115.148 1024.97 116.157 1027.44 118.689C1027.44 118.689 1028.99 116.194 1028.7 108.528Z" fill="#03928D"/>
<path d="M1011.69 84.4995C1005.19 82.9722 996.037 81.8467 986.665 83.1939C985.418 83.3722 984.166 83.5939 982.916 83.8692C982.166 84.0233 981.404 84.2138 980.656 84.4095C964.651 88.6953 959.047 91.0002 956.94 97.9094C955.766 101.747 955.488 107.48 955.655 112.549C955.785 116.573 956.2 120.182 956.659 122.062C956.659 122.062 970.065 115.143 1008.79 114.526C1010.27 114.5 1012.81 114.504 1015.59 114.758C1015.86 111.804 1016.08 108.769 1016.14 105.759C1016.32 97.8973 1015.45 90.214 1011.69 84.4995Z" fill="#D9EAF4"/>
<path d="M1006.29 92.7955C1005.84 92.5184 1005.28 92.5825 1004.77 92.6864C999.116 93.76 993.893 97.1835 990.39 102.136C989.588 95.6873 989.505 88.9252 986.665 83.1952C985.418 83.3736 984.166 83.5952 982.916 83.8706C981.83 85.8931 981.307 88.2551 980.828 90.5616C979.818 95.3497 978.907 100.255 979.314 105.175C974.079 102.867 968.505 101.535 962.893 101.256C962.661 101.253 962.417 101.242 962.221 101.376C961.923 101.563 961.842 101.982 961.833 102.356C961.773 104.534 963.34 106.365 964.9 107.74C968.341 110.744 972.356 112.935 976.592 114.133C980.473 115.226 985.134 114.358 988.878 113.004C990.497 112.413 991.973 111.421 993.405 110.42C997.28 107.707 1001.08 104.749 1004.13 100.979C1005.46 99.3394 1006.66 97.4709 1007 95.3029C1007.15 94.3851 1007.04 93.2474 1006.29 92.7955Z" fill="#FF750A"/>
<path d="M1028.36 103.929C1027.17 93.047 1025.15 89.4486 1019.14 86.8339C1017.5 86.1204 1014.92 85.2581 1011.69 84.4996C1015.45 90.214 1016.32 97.8974 1016.14 105.761C1016.92 105.854 1017.69 105.958 1018.47 106.085C1020.59 106.405 1022.71 106.834 1024.82 107.394C1026.11 107.723 1027.41 108.104 1028.7 108.53C1028.66 107.158 1028.55 105.636 1028.36 103.929Z" fill="#DDDDDD"/>
<path d="M1024.97 104.226C1024.87 101.823 1024.21 99.3827 1022.85 97.4675C1022.68 97.2216 1022.47 96.9671 1022.2 96.9134C1021.8 96.8233 1021.44 97.1645 1021.19 97.5091C1020.22 98.8043 1019.68 100.425 1019.27 102.051C1018.94 103.376 1018.67 104.725 1018.47 106.084C1020.59 106.405 1022.71 106.834 1024.82 107.393C1024.96 106.349 1025.01 105.289 1024.97 104.226Z" fill="#FF750A"/>
<path d="M994.038 105.927C986.438 106.713 978.81 107.497 971.283 108.846C966.334 109.728 960.728 110.682 955.655 112.549C955.785 116.573 956.2 120.182 956.659 122.062C956.659 122.062 970.065 115.143 1008.79 114.526C1010.27 114.5 1012.81 114.504 1015.59 114.758C1015.86 111.804 1016.08 108.769 1016.14 105.759C1008.95 104.902 1001.62 105.146 994.038 105.927Z" fill="#03928D"/>
<path d="M966.741 144.073C966.749 144.099 966.755 144.118 966.755 144.147C966.841 144.913 966.93 146.052 967.032 147.45C967.245 150.184 967.546 153.9 968.18 157.708C968.417 159.131 968.708 160.569 969.054 161.966C968.143 161.443 967.168 161.273 966.259 161.561C965.735 161.727 965.281 162.028 964.907 162.453C964.012 162.072 963.17 161.554 962.403 160.956C960.884 159.755 959.644 158.227 958.573 156.619C956.477 153.483 954.934 149.898 954.739 146.139C954.631 144.017 955.08 141.669 956.758 140.381C957.475 139.83 958.346 139.552 959.239 139.494C960.323 139.423 961.464 139.678 962.458 140.156L962.775 140.32C964.219 141.134 965.355 142.36 966.377 143.633C966.49 143.78 966.614 143.926 966.741 144.073Z" fill="#F0D0B4"/>
<path d="M962.363 143.371C958.734 144.007 957.03 145.849 958.306 149.522C958.566 150.329 958.967 151.166 959.35 151.924C960.836 154.733 962.709 157.24 964.458 159.909C961.315 157.121 957.506 152.731 956.85 148.464C956.33 144.888 959.031 143.011 962.363 143.371Z" fill="#CF9E76"/>
<path d="M965.764 153.859C963.98 151.785 960.815 149.017 957.909 150.209L957.506 149.066C961.018 148.103 963.998 151.201 965.764 153.859Z" fill="#CF9E76"/>
<path d="M975.756 162.787C977.009 166.451 975.099 170.304 971.489 171.373C967.878 172.441 963.927 170.325 962.675 166.659C961.702 163.814 962.626 160.882 964.772 159.199C965.395 158.697 966.123 158.316 966.942 158.073C968.358 157.654 969.82 157.725 971.141 158.186C973.231 158.893 974.99 160.548 975.756 162.787Z" fill="#FFDD30"/>
</g>
<defs>
<linearGradient id="paint0_linear_0_17" x1="-65" y1="-5.09163e-05" x2="1462.74" y2="390.058" gradientUnits="userSpaceOnUse">
<stop stop-color="#F26957"/>
<stop offset="1" stop-color="#FFA00E"/>
</linearGradient>
<linearGradient id="paint1_linear_0_17" x1="-65" y1="-5.09163e-05" x2="1462.74" y2="390.058" gradientUnits="userSpaceOnUse">
<stop stop-color="#F26957"/>
<stop offset="1" stop-color="#FFA00E"/>
</linearGradient>
</defs>
</svg>
