<svg width="230" height="227" viewBox="0 0 230 227" fill="none" xmlns="http://www.w3.org/2000/svg">
<path d="M58.2372 37.1519C58.2372 37.1519 92.6934 63.2987 145.076 14.4085C191.596 -29.0107 229.581 39.4949 229.847 72.3008C230.192 114.798 183.326 148.801 206.069 176.714C228.813 204.627 160.966 250.719 124.4 210.829C78.913 161.207 66.5898 201.525 40.6627 201.525C22.0545 201.525 -16.1502 155.288 9.649 120.889C31.3587 91.9428 19.519 82.3361 13.7841 72.3008C5.51381 57.8278 25.1559 18.5437 58.2372 37.1519Z" fill="#FBD1CB"/>
<path d="M113.986 96.6043V193.633L38.6514 161.094L39.0108 64.4158L113.986 96.6043Z" fill="#F26957"/>
<path d="M113.987 96.6622V193.691L188.956 162.276V64.7256L113.987 96.6622Z" fill="#FFB8A2"/>
<path d="M113.986 96.6043L189.321 65.0504L114.578 31.9188L38.6514 64.2615L113.986 96.6043Z" fill="#FDE9E6"/>
<path d="M67.0498 52.1645L142.097 84.8299L142.779 108.634L163.776 99.9701L163.142 76.0156L85.8738 44.146L67.0498 52.1645Z" fill="#F26957"/>
<path d="M137.824 131.475C139.013 131.475 139.977 129.715 139.977 127.544C139.977 125.373 139.013 123.613 137.824 123.613C136.634 123.613 135.67 125.373 135.67 127.544C135.67 129.715 136.634 131.475 137.824 131.475Z" fill="white"/>
<path d="M172.52 117.339C173.709 117.339 174.674 115.579 174.674 113.408C174.674 111.237 173.709 109.477 172.52 109.477C171.33 109.477 170.366 111.237 170.366 113.408C170.366 115.579 171.33 117.339 172.52 117.339Z" fill="white"/>
<path d="M150.304 152.227L148.905 151.684C152.004 143.707 155.889 139.312 160.454 138.622C164.821 137.962 168.499 140.97 169.834 142.653L168.659 143.585C167.736 142.421 164.504 139.527 160.679 140.105C156.74 140.7 153.153 144.892 150.304 152.227Z" fill="white"/>
</svg>
