<svg width="24" height="24" viewBox="0 0 24 24" fill="none" xmlns="http://www.w3.org/2000/svg">
<path d="M23.1812 8.06322L17.7485 2.63046C17.3002 2.18219 16.8455 1.9549 16.3971 1.9549C15.7814 1.9549 15.0625 2.42318 15.0625 3.74299V5.59254C11.1154 5.76457 7.42941 7.3833 4.61803 10.1945C1.64034 13.172 0.00028125 17.1309 0 21.3418C0 21.6444 0.1935 21.9131 0.480469 22.0088C0.553734 22.0332 0.628734 22.045 0.703031 22.045C0.919922 22.045 1.12988 21.9444 1.26525 21.7642C4.58489 17.3455 9.5827 14.7341 15.0625 14.5279V16.349C15.0625 17.6688 15.7814 18.1371 16.3971 18.1371H16.3972C16.8456 18.1371 17.3003 17.9098 17.7485 17.4616L23.1812 12.0288C23.7092 11.5009 24 10.7967 24 10.046C24 9.29538 23.7092 8.59118 23.1812 8.06322Z" fill="#232323"/>
</svg>
