<svg width="437" height="437" viewBox="0 0 437 437" fill="none" xmlns="http://www.w3.org/2000/svg">
<g clip-path="url(#clip0_376_28303)">
<path d="M437 0H0V437H437V0Z" fill="#5BC4BD"/>
<path d="M262.303 382.324C304.59 382.324 338.87 377.952 338.87 372.56C338.87 367.168 304.59 362.796 262.303 362.796C220.016 362.796 185.735 367.168 185.735 372.56C185.735 377.952 220.016 382.324 262.303 382.324Z" fill="#FBF3F3"/>
<path d="M132.498 309.703C179.995 309.703 218.5 305.331 218.5 299.939C218.5 294.547 179.995 290.175 132.498 290.175C85 290.175 46.4955 294.547 46.4955 299.939C46.4955 305.331 85 309.703 132.498 309.703Z" fill="#FBF3F3"/>
<path d="M236.969 199.353C236.969 199.764 236.969 200.175 236.948 200.566C236.907 204.502 236.619 208.356 236.105 212.148C233.598 230.535 225.787 247.246 214.225 260.813C211.717 263.731 209.065 266.486 206.259 269.086C194.296 280.165 179.487 288.315 163.032 292.375C155.345 294.266 147.308 295.273 139.024 295.273C130.73 295.273 122.683 294.266 115.005 292.375C96.9992 287.925 80.9868 278.593 68.4894 265.91C65.7967 263.156 63.2479 260.258 60.9046 257.205C50.9457 244.327 44.2447 228.921 41.9426 212.148C41.4287 208.346 41.1409 204.492 41.0998 200.566C41.0793 200.175 41.0793 199.764 41.0793 199.353C41.0793 177.904 48.2632 158.12 60.3804 142.148C62.6929 139.096 65.1903 136.198 67.8522 133.443C80.4216 120.411 96.6909 110.853 114.975 106.341C122.672 104.43 130.72 103.423 139.014 103.423C147.308 103.423 155.355 104.43 163.032 106.321C181.337 110.853 197.606 120.422 210.175 133.443C212.827 136.198 215.335 139.096 217.647 142.148C229.785 158.12 236.969 177.904 236.969 199.353Z" fill="#009FE3"/>
<path d="M139.024 299.939C130.514 299.939 122.046 298.911 113.844 296.897C95.2931 292.303 78.4277 282.714 65.067 269.148C62.1893 266.208 59.5171 263.135 57.1122 260.011C46.4544 246.229 39.5787 229.887 37.2354 212.775C36.6907 208.777 36.3927 204.718 36.3516 200.699C36.331 200.268 36.331 199.815 36.331 199.353C36.331 177.565 43.33 156.825 56.5675 139.373C58.9313 136.259 61.5623 133.186 64.3989 130.247C77.8522 116.311 94.9334 106.485 113.813 101.83C130.175 97.77 147.77 97.77 164.194 101.809C183.094 106.485 200.185 116.321 213.628 130.247C216.465 133.186 219.096 136.249 221.46 139.373C234.697 156.814 241.696 177.554 241.696 199.353C241.696 199.805 241.696 200.257 241.676 200.699C241.635 204.718 241.337 208.777 240.792 212.775C238.233 231.542 230.299 249.189 217.853 263.814C215.263 266.835 212.457 269.744 209.507 272.488C196.773 284.286 181.1 292.724 164.173 296.907C155.982 298.911 147.513 299.939 139.024 299.939ZM139.024 108.068C131.285 108.068 123.587 109.003 116.146 110.843C99.0136 115.067 83.5151 123.988 71.3054 136.64C68.7258 139.312 66.3414 142.097 64.1934 144.923C52.179 160.761 45.8275 179.579 45.8275 199.353C45.8275 199.692 45.8274 200.021 45.8377 200.35C45.8377 200.412 45.8377 200.473 45.848 200.525C45.8788 204.194 46.1461 207.894 46.6497 211.542C48.7668 227.061 55.0053 241.892 64.6867 254.41C66.8758 257.246 69.3013 260.031 71.9118 262.704C84.029 275.006 99.3322 283.721 116.167 287.883C131.028 291.542 146.968 291.553 161.871 287.883C177.215 284.101 191.439 276.434 202.991 265.725C205.684 263.228 208.243 260.576 210.586 257.842C221.881 244.584 229.076 228.572 231.398 211.552C231.892 207.914 232.159 204.204 232.2 200.535C232.2 200.473 232.2 200.412 232.21 200.36C232.22 200.042 232.221 199.702 232.221 199.363C232.221 179.589 225.869 160.761 213.855 144.934C211.717 142.107 209.322 139.322 206.743 136.65C194.543 124.009 179.034 115.077 161.881 110.843C154.44 109.003 146.753 108.068 139.024 108.068Z" fill="#83D0F5"/>
<path d="M236.105 212.159C236.619 208.356 236.907 204.502 236.948 200.576H197.462C197.462 200.165 197.482 199.774 197.482 199.363C197.482 184.111 195.633 169.764 192.323 156.907C201.861 152.94 210.422 147.945 217.667 142.159C215.355 139.106 212.847 136.208 210.196 133.454C204.163 138.243 197.01 142.436 189.004 145.848C182.929 128.438 173.906 114.625 163.053 106.331C155.375 104.44 147.328 103.433 139.034 103.433C130.74 103.433 122.693 104.44 114.995 106.352C104.163 114.625 95.139 128.438 89.065 145.848C81.0588 142.436 73.9056 138.243 67.8727 133.454C65.2108 136.208 62.7134 139.106 60.401 142.159C67.6466 147.945 76.2078 152.94 85.7453 156.907C82.436 169.764 80.586 184.101 80.586 199.363C80.586 199.774 80.6066 200.165 80.6066 200.576H41.0998C41.1409 204.512 41.4287 208.366 41.9425 212.159H81.0279C81.809 223.505 83.6076 234.204 86.3003 244.019C76.8758 247.503 68.3146 251.974 60.9046 257.215C63.2581 260.268 65.7967 263.166 68.4894 265.92C74.7175 261.614 81.9015 257.925 89.8152 254.975C95.8687 271.388 104.605 284.441 115.005 292.395C122.693 294.286 130.73 295.294 139.024 295.294C147.297 295.294 155.345 294.286 163.032 292.395C172.878 284.893 181.203 272.837 187.205 257.668C194.348 260.864 200.771 264.728 206.259 269.106C209.065 266.506 211.727 263.752 214.225 260.833C207.534 255.386 199.682 250.648 190.946 246.794C194.06 236.26 196.167 224.595 197.02 212.169H236.105V212.159ZM129.301 287.411C117.914 282.529 107.934 269.312 101.223 251.378C110 249.096 119.435 247.657 129.301 247.236V287.411ZM129.301 235.653C118.222 236.085 107.595 237.729 97.6981 240.391C95.324 231.665 93.6693 222.159 92.8779 212.159H129.301V235.653ZM129.301 200.566H92.3949C92.3949 200.155 92.3743 199.764 92.3743 199.353C92.3743 185.704 94.0393 172.662 96.9992 160.946C107.03 164.029 117.883 166.054 129.301 166.784V200.566ZM129.301 155.201C119.034 154.492 109.271 152.673 100.288 149.918C106.979 130.679 117.349 116.413 129.301 111.285V155.201ZM141.11 109.301C156.208 110.668 169.682 126.65 177.76 149.918C166.578 153.33 154.173 155.314 141.11 155.499V109.301ZM141.11 289.394V247.236C153.587 247.76 165.417 249.908 176.064 253.372C167.863 274.132 155.17 288.12 141.11 289.394ZM179.764 242.477C167.935 238.582 154.882 236.188 141.1 235.643V212.148H185.17C184.338 222.96 182.467 233.197 179.764 242.477ZM185.653 200.566H141.11V167.061C155.314 166.876 168.798 164.707 181.049 160.936C184.009 172.652 185.674 185.704 185.674 199.343C185.674 199.764 185.653 200.155 185.653 200.566Z" fill="#83D0F5"/>
<path d="M77.2253 232.909V305.592C77.2253 305.592 45.9816 289.528 36.331 268.716C26.4235 247.37 31.6034 230.083 49.8973 224.749C65.7658 220.124 77.2253 232.909 77.2253 232.909Z" fill="#AF1F17"/>
<path d="M77.2253 232.909V305.592C77.2253 305.592 108.469 289.528 118.12 268.716C128.027 247.37 122.847 230.083 104.553 224.749C88.6847 220.124 77.2253 232.909 77.2253 232.909Z" fill="#8D1B0E"/>
<path d="M316.188 368.901C316.188 369.98 314.893 370.854 313.31 370.854H221.635C220.042 370.854 218.757 369.98 218.757 368.901C218.757 368.901 218.757 364.307 218.757 360.237C218.757 356.167 255.016 361.912 255.016 339.867C255.335 336.671 279.929 324.852 279.929 339.867C279.929 364.143 316.188 355.993 316.188 360.237C316.188 364.472 316.188 368.901 316.188 368.901Z" fill="#231D22"/>
<path d="M387.267 329.97C387.267 337.729 380.977 344.03 373.207 344.03H161.727C153.957 344.03 147.667 337.74 147.667 329.97V188.767C147.667 181.008 153.957 174.708 161.727 174.708H373.218C380.977 174.708 387.277 180.997 387.277 188.767V329.97H387.267Z" fill="#352E35"/>
<path d="M384.369 319.847C384.369 326.496 378.233 331.892 370.648 331.892H164.276C156.701 331.892 150.555 326.496 150.555 319.847V198.891C150.555 192.241 156.701 186.845 164.276 186.845H370.648C378.223 186.845 384.369 192.241 384.369 198.891V319.847Z" fill="#423A43"/>
<path d="M278.562 174.708H256.383V180.545H278.562V174.708Z" fill="#231D22"/>
<path d="M379.6 194.286H155.334V326.136H379.6V194.286Z" fill="#D471AA"/>
<path d="M163.649 319.107V194.286H155.334V326.136H379.61V319.107H163.649Z" fill="#CCAABB"/>
<path d="M317.688 247.236H222.991V264.667H317.688V247.236Z" fill="#CCAABB"/>
<path d="M317.688 259.363H222.991V264.656H317.688V259.363Z" fill="#CCAABB"/>
<path d="M308.86 170.268C298.654 176.187 278.88 172.231 278.88 172.231L279.302 155.375L309.918 148.325C309.918 148.325 319.065 164.358 308.86 170.268Z" fill="#C38769"/>
<path d="M323.218 153.834C314.924 160.987 295.509 162.385 295.509 162.385L293.598 145.632L319.929 134.759C319.919 134.749 331.512 146.67 323.218 153.834Z" fill="#C38769"/>
<path d="M330.998 140.504C322.704 147.657 303.29 149.055 303.29 149.055L301.378 132.302L327.709 121.429C327.699 121.429 339.292 133.351 330.998 140.504Z" fill="#C38769"/>
<path d="M342.118 72.9293L364.472 96.1564L315.489 125.673L289.127 143.114C289.127 143.114 287.935 157.914 294.029 161.881C304.101 168.448 294.173 184.677 281.306 179.743C268.438 174.81 247.77 158.592 250.237 147.554C252.704 136.516 273.67 105.91 279.322 100.771C289.651 91.3877 342.118 72.9293 342.118 72.9293Z" fill="#F8B894"/>
<path d="M350.648 99.2294C339.559 99.6816 328.531 100.288 317.493 101.521C315.571 101.737 314.225 100.781 313.546 99.4658C307.298 102.004 302.282 106.146 298.038 111.902C292.786 119.024 287.976 125.941 281.563 132.107C276.547 136.938 269.826 142.58 269.405 150.103C269.363 150.792 269.137 155.026 270.36 155.191C272.251 155.447 274.235 154.553 275.91 153.772C280.268 151.758 284.163 148.952 288.449 146.794C288.644 146.691 288.85 146.619 289.035 146.547C289.014 144.502 289.127 143.104 289.127 143.104L315.489 125.663L359.662 99.0444C359.066 98.9725 358.47 98.8903 357.873 98.8183C355.407 98.9622 352.981 99.1369 350.648 99.2294Z" fill="#DCA585"/>
<path d="M286.784 115.375L300.309 135.273L304.132 133.186L286.784 115.375Z" fill="#C38769"/>
<path d="M256.249 151.049L280.247 152.652L280.956 148.356L256.249 151.049Z" fill="#C38769"/>
<path d="M236.783 141.492L235.094 256.362L296.897 257.271L298.585 142.4L236.783 141.492Z" fill="#EDE7CA"/>
<path d="M239.353 252.375L292.745 253.156L294.307 146.372L240.915 145.591L239.353 252.375ZM290.011 149.723L288.541 249.703L243.659 249.045L245.129 149.065L290.011 149.723Z" fill="#7C9050"/>
<path d="M240.36 241.665L240.216 251.491L250.556 251.645C251.193 250.576 251.583 249.333 251.604 247.986C251.666 243.937 248.428 240.597 244.379 240.535C242.899 240.514 241.522 240.936 240.36 241.665Z" fill="#7C9050"/>
<path d="M283.618 147.606L293.444 147.75L293.289 158.089C292.2 158.695 290.946 159.045 289.61 159.024C285.561 158.962 282.323 155.632 282.375 151.573C282.395 150.103 282.858 148.746 283.618 147.606Z" fill="#7C9050"/>
<path d="M292.056 242.416L291.912 252.241L281.573 252.087C280.967 250.997 280.617 249.744 280.638 248.408C280.7 244.348 284.029 241.121 288.089 241.172C289.559 241.203 290.915 241.655 292.056 242.416Z" fill="#7C9050"/>
<path d="M251.583 147.133L241.758 146.989L241.604 157.328C242.673 157.965 243.916 158.356 245.252 158.377C249.302 158.438 252.642 155.201 252.704 151.141C252.724 149.671 252.303 148.294 251.583 147.133Z" fill="#7C9050"/>
<path d="M267.051 177.256C280.679 177.452 291.583 187.524 291.398 199.744C291.213 211.963 280.021 221.707 266.393 221.501C252.765 221.306 241.861 211.234 242.046 199.014C242.231 186.794 253.423 177.051 267.051 177.256Z" fill="#7C9050"/>
<path d="M267.411 153.032C270.813 153.084 273.536 155.889 273.485 159.291C273.433 162.693 270.638 165.417 267.226 165.365C263.814 165.314 261.1 162.518 261.141 159.106C261.203 155.704 264.009 152.981 267.411 153.032Z" fill="#7C9050"/>
<path d="M266.239 232.981C269.651 233.032 272.364 235.838 272.323 239.24C272.272 242.652 269.466 245.365 266.064 245.324C262.652 245.273 259.939 242.467 259.99 239.065C260.031 235.653 262.827 232.94 266.239 232.981Z" fill="#7C9050"/>
<path d="M288.49 201.676L283.166 201.593C283.063 204.646 282.077 207.791 280.73 209.62L277.215 208.305C278.51 206.424 279.548 203.7 279.59 200.751C279.641 197.01 277.524 194.451 274.523 194.41C271.624 194.368 269.805 196.393 268.171 200.268C265.982 205.612 263.516 208.891 258.932 208.829C254.564 208.767 251.285 205.612 250.566 200.751L245.242 200.669L245.293 197.4L250.401 197.472C250.556 194.317 251.429 192.169 252.344 190.648L255.797 192.015C255.15 193.115 253.957 195.252 253.906 198.623C253.844 202.683 256.249 204.245 258.356 204.276C261.1 204.317 262.498 202.385 264.461 197.832C266.753 192.436 269.528 189.744 274.225 189.805C278.387 189.867 282.241 192.816 283.053 198.264L288.531 198.346L288.49 201.676Z" fill="#EDE7CA"/>
<path d="M313.228 96.8964L364.472 96.1564C364.472 96.1564 345.489 108.078 342.817 113.114C338.696 120.884 340.998 126.187 328.531 135.745C317.01 144.574 300.011 155.632 285.715 162.395C274.543 167.688 264.019 158.952 272.529 150.113C279.24 143.156 288.336 136.259 293.978 131.285C299.62 126.311 298.654 106.989 313.228 96.8964Z" fill="#F8B894"/>
<path d="M398.058 31.0587L404.091 83.8954L356.239 107.451L330.617 72.1071L398.058 31.0587Z" fill="#EA5B0C"/>
<path d="M206.512 302.08L204.72 300.16C204.645 300.171 204.565 300.176 204.48 300.176C204.395 300.187 204.315 300.192 204.24 300.192C203.099 300.192 202.112 299.984 201.28 299.568C200.459 299.141 199.824 298.507 199.376 297.664C198.939 296.821 198.72 295.771 198.72 294.512C198.72 293.221 198.944 292.16 199.392 291.328C199.84 290.485 200.485 289.861 201.328 289.456C202.171 289.04 203.173 288.832 204.336 288.832C205.52 288.832 206.528 289.04 207.36 289.456C208.203 289.861 208.848 290.485 209.296 291.328C209.744 292.16 209.968 293.221 209.968 294.512C209.968 295.845 209.723 296.939 209.232 297.792C208.741 298.645 208.048 299.275 207.152 299.68L209.616 302.08H206.512ZM204.336 298.24C204.859 298.24 205.317 298.165 205.712 298.016C206.107 297.867 206.437 297.643 206.704 297.344C206.971 297.045 207.173 296.683 207.312 296.256C207.451 295.819 207.52 295.323 207.52 294.768V294.272C207.52 293.707 207.451 293.205 207.312 292.768C207.173 292.331 206.971 291.968 206.704 291.68C206.437 291.381 206.107 291.157 205.712 291.008C205.317 290.859 204.859 290.784 204.336 290.784C203.824 290.784 203.371 290.859 202.976 291.008C202.581 291.157 202.251 291.381 201.984 291.68C201.717 291.968 201.515 292.331 201.376 292.768C201.248 293.205 201.184 293.707 201.184 294.272V294.768C201.184 295.323 201.248 295.819 201.376 296.256C201.515 296.683 201.717 297.045 201.984 297.344C202.251 297.643 202.581 297.867 202.976 298.016C203.371 298.165 203.824 298.24 204.336 298.24ZM215.584 300.192C214.666 300.192 213.888 300.037 213.248 299.728C212.608 299.408 212.122 298.923 211.792 298.272C211.461 297.611 211.296 296.784 211.296 295.792C211.296 294.779 211.461 293.952 211.792 293.312C212.122 292.661 212.608 292.181 213.248 291.872C213.888 291.552 214.666 291.392 215.584 291.392C216.522 291.392 217.306 291.552 217.936 291.872C218.576 292.181 219.061 292.661 219.392 293.312C219.722 293.952 219.888 294.779 219.888 295.792C219.888 296.784 219.722 297.611 219.392 298.272C219.061 298.923 218.576 299.408 217.936 299.728C217.306 300.037 216.522 300.192 215.584 300.192ZM215.584 298.464C216.074 298.464 216.464 298.373 216.752 298.192C217.05 298.011 217.269 297.733 217.408 297.36C217.546 296.987 217.616 296.528 217.616 295.984V295.6C217.616 295.056 217.546 294.597 217.408 294.224C217.269 293.851 217.05 293.573 216.752 293.392C216.464 293.2 216.074 293.104 215.584 293.104C215.104 293.104 214.714 293.2 214.416 293.392C214.128 293.573 213.914 293.851 213.776 294.224C213.637 294.597 213.568 295.056 213.568 295.6V295.984C213.568 296.528 213.637 296.987 213.776 297.36C213.914 297.733 214.128 298.011 214.416 298.192C214.714 298.373 215.104 298.464 215.584 298.464ZM221.572 293.92V293.024C221.828 292.981 222.041 292.88 222.212 292.72C222.393 292.549 222.527 292.336 222.612 292.08C222.708 291.813 222.756 291.531 222.756 291.232H221.668V289.024H223.892V291.024C223.892 291.653 223.78 292.171 223.556 292.576C223.343 292.981 223.06 293.291 222.708 293.504C222.356 293.717 221.977 293.856 221.572 293.92ZM226.008 300V288.432H228.232V300H226.008ZM230.274 300V288.432H232.498V300H230.274ZM236.764 300.192C236.486 300.192 236.188 300.16 235.868 300.096C235.558 300.032 235.265 299.92 234.988 299.76C234.71 299.589 234.481 299.349 234.3 299.04C234.129 298.72 234.044 298.315 234.044 297.824C234.044 297.237 234.172 296.752 234.428 296.368C234.684 295.984 235.046 295.685 235.516 295.472C235.996 295.248 236.566 295.093 237.228 295.008C237.889 294.923 238.62 294.88 239.42 294.88V294.256C239.42 294.011 239.377 293.797 239.292 293.616C239.217 293.435 239.078 293.291 238.876 293.184C238.684 293.077 238.412 293.024 238.06 293.024C237.708 293.024 237.42 293.067 237.196 293.152C236.982 293.237 236.828 293.349 236.732 293.488C236.646 293.616 236.604 293.76 236.604 293.92V294.112H234.444C234.433 294.059 234.428 294.011 234.428 293.968C234.428 293.915 234.428 293.851 234.428 293.776C234.428 293.285 234.577 292.864 234.876 292.512C235.174 292.149 235.596 291.872 236.14 291.68C236.684 291.488 237.318 291.392 238.044 291.392C238.822 291.392 239.473 291.493 239.996 291.696C240.529 291.899 240.934 292.197 241.212 292.592C241.5 292.987 241.644 293.483 241.644 294.08V297.904C241.644 298.096 241.697 298.24 241.804 298.336C241.921 298.421 242.049 298.464 242.188 298.464H242.716V299.92C242.609 299.973 242.444 300.027 242.22 300.08C241.996 300.144 241.724 300.176 241.404 300.176C241.094 300.176 240.817 300.128 240.572 300.032C240.337 299.947 240.14 299.824 239.98 299.664C239.82 299.493 239.708 299.291 239.644 299.056H239.532C239.35 299.28 239.126 299.477 238.86 299.648C238.604 299.819 238.3 299.952 237.948 300.048C237.606 300.144 237.212 300.192 236.764 300.192ZM237.516 298.512C237.814 298.512 238.081 298.469 238.316 298.384C238.55 298.288 238.748 298.165 238.908 298.016C239.068 297.856 239.19 297.664 239.276 297.44C239.372 297.216 239.42 296.976 239.42 296.72V296.256C238.822 296.256 238.289 296.299 237.82 296.384C237.35 296.459 236.977 296.592 236.7 296.784C236.433 296.976 236.3 297.243 236.3 297.584C236.3 297.776 236.348 297.941 236.444 298.08C236.54 298.219 236.678 298.325 236.86 298.4C237.041 298.475 237.26 298.512 237.516 298.512ZM248.525 300.192C247.981 300.192 247.48 300.085 247.021 299.872C246.573 299.648 246.21 299.312 245.933 298.864H245.821L245.645 300H243.821V288.432H246.045V292.512H246.141C246.312 292.267 246.52 292.059 246.765 291.888C247.01 291.717 247.288 291.595 247.597 291.52C247.906 291.435 248.242 291.392 248.605 291.392C249.266 291.392 249.842 291.547 250.333 291.856C250.834 292.165 251.224 292.645 251.501 293.296C251.778 293.936 251.917 294.763 251.917 295.776C251.917 296.789 251.778 297.621 251.501 298.272C251.234 298.923 250.845 299.408 250.333 299.728C249.832 300.037 249.229 300.192 248.525 300.192ZM247.837 298.368C248.285 298.368 248.637 298.283 248.893 298.112C249.16 297.931 249.352 297.664 249.469 297.312C249.586 296.96 249.645 296.517 249.645 295.984V295.616C249.645 295.083 249.586 294.64 249.469 294.288C249.352 293.925 249.16 293.659 248.893 293.488C248.637 293.307 248.285 293.216 247.837 293.216C247.517 293.216 247.245 293.275 247.021 293.392C246.797 293.499 246.61 293.659 246.461 293.872C246.322 294.075 246.216 294.331 246.141 294.64C246.066 294.949 246.029 295.291 246.029 295.664V295.952C246.029 296.453 246.093 296.885 246.221 297.248C246.349 297.611 246.546 297.888 246.813 298.08C247.08 298.272 247.421 298.368 247.837 298.368ZM262.152 302.848V299.072H262.056C261.885 299.317 261.677 299.525 261.432 299.696C261.187 299.856 260.909 299.979 260.6 300.064C260.291 300.149 259.955 300.192 259.592 300.192C258.941 300.192 258.365 300.037 257.864 299.728C257.373 299.408 256.984 298.923 256.696 298.272C256.419 297.621 256.28 296.8 256.28 295.808C256.28 294.784 256.419 293.947 256.696 293.296C256.973 292.645 257.363 292.165 257.864 291.856C258.376 291.547 258.979 291.392 259.672 291.392C260.216 291.392 260.712 291.504 261.16 291.728C261.619 291.941 261.981 292.272 262.248 292.72H262.36L262.552 291.584H264.376V302.848H262.152ZM260.376 298.368C260.696 298.368 260.968 298.315 261.192 298.208C261.416 298.091 261.597 297.925 261.736 297.712C261.885 297.499 261.992 297.243 262.056 296.944C262.131 296.635 262.168 296.293 262.168 295.92V295.648C262.168 295.136 262.104 294.699 261.976 294.336C261.848 293.973 261.651 293.696 261.384 293.504C261.128 293.312 260.792 293.216 260.376 293.216C259.928 293.216 259.571 293.307 259.304 293.488C259.037 293.659 258.845 293.925 258.728 294.288C258.611 294.64 258.552 295.083 258.552 295.616V295.984C258.552 296.507 258.611 296.949 258.728 297.312C258.845 297.664 259.037 297.931 259.304 298.112C259.571 298.283 259.928 298.368 260.376 298.368ZM269.15 300.192C268.297 300.192 267.62 299.957 267.118 299.488C266.617 299.019 266.366 298.261 266.366 297.216V291.584H268.59V296.848C268.59 297.125 268.622 297.36 268.686 297.552C268.75 297.733 268.841 297.883 268.958 298C269.086 298.117 269.241 298.203 269.422 298.256C269.604 298.309 269.806 298.336 270.03 298.336C270.361 298.336 270.66 298.256 270.926 298.096C271.193 297.936 271.401 297.717 271.55 297.44C271.7 297.152 271.774 296.832 271.774 296.48V291.584H273.998V300H272.174L272.014 298.848H271.902C271.7 299.115 271.46 299.349 271.182 299.552C270.916 299.755 270.612 299.909 270.27 300.016C269.929 300.133 269.556 300.192 269.15 300.192ZM278.216 300L275.08 291.584H277.432L278.664 295.136C278.728 295.317 278.802 295.557 278.888 295.856C278.984 296.155 279.08 296.469 279.176 296.8C279.272 297.131 279.352 297.429 279.416 297.696H279.496C279.57 297.451 279.65 297.168 279.736 296.848C279.821 296.517 279.906 296.203 279.992 295.904C280.088 295.595 280.168 295.339 280.232 295.136L281.464 291.584H283.704L280.552 300H278.216ZM286.966 300L283.83 291.584H286.182L287.414 295.136C287.478 295.317 287.552 295.557 287.638 295.856C287.734 296.155 287.83 296.469 287.926 296.8C288.022 297.131 288.102 297.429 288.166 297.696H288.246C288.32 297.451 288.4 297.168 288.486 296.848C288.571 296.517 288.656 296.203 288.742 295.904C288.838 295.595 288.918 295.339 288.982 295.136L290.214 291.584H292.454L289.302 300H286.966ZM295.686 300.192C295.408 300.192 295.11 300.16 294.789 300.096C294.48 300.032 294.187 299.92 293.91 299.76C293.632 299.589 293.403 299.349 293.222 299.04C293.051 298.72 292.965 298.315 292.965 297.824C292.965 297.237 293.094 296.752 293.35 296.368C293.606 295.984 293.968 295.685 294.438 295.472C294.918 295.248 295.488 295.093 296.15 295.008C296.811 294.923 297.542 294.88 298.342 294.88V294.256C298.342 294.011 298.299 293.797 298.214 293.616C298.139 293.435 298 293.291 297.798 293.184C297.606 293.077 297.334 293.024 296.982 293.024C296.63 293.024 296.342 293.067 296.118 293.152C295.904 293.237 295.75 293.349 295.654 293.488C295.568 293.616 295.526 293.76 295.526 293.92V294.112H293.366C293.355 294.059 293.35 294.011 293.35 293.968C293.35 293.915 293.35 293.851 293.35 293.776C293.35 293.285 293.499 292.864 293.798 292.512C294.096 292.149 294.518 291.872 295.062 291.68C295.606 291.488 296.24 291.392 296.966 291.392C297.744 291.392 298.395 291.493 298.918 291.696C299.451 291.899 299.856 292.197 300.134 292.592C300.422 292.987 300.566 293.483 300.566 294.08V297.904C300.566 298.096 300.619 298.24 300.726 298.336C300.843 298.421 300.971 298.464 301.11 298.464H301.638V299.92C301.531 299.973 301.366 300.027 301.142 300.08C300.918 300.144 300.646 300.176 300.326 300.176C300.016 300.176 299.739 300.128 299.494 300.032C299.259 299.947 299.062 299.824 298.902 299.664C298.742 299.493 298.63 299.291 298.566 299.056H298.454C298.272 299.28 298.048 299.477 297.782 299.648C297.526 299.819 297.222 299.952 296.87 300.048C296.528 300.144 296.134 300.192 295.686 300.192ZM296.438 298.512C296.736 298.512 297.003 298.469 297.238 298.384C297.472 298.288 297.67 298.165 297.83 298.016C297.99 297.856 298.112 297.664 298.198 297.44C298.294 297.216 298.342 296.976 298.342 296.72V296.256C297.744 296.256 297.211 296.299 296.742 296.384C296.272 296.459 295.899 296.592 295.622 296.784C295.355 296.976 295.222 297.243 295.222 297.584C295.222 297.776 295.27 297.941 295.366 298.08C295.462 298.219 295.6 298.325 295.782 298.4C295.963 298.475 296.182 298.512 296.438 298.512ZM305.255 300.192C304.721 300.192 304.289 300.096 303.959 299.904C303.628 299.712 303.388 299.456 303.239 299.136C303.089 298.805 303.015 298.443 303.015 298.048V293.296H301.975V291.584H303.095L303.511 289.184H305.239V291.584H306.775V293.296H305.239V297.68C305.239 297.936 305.297 298.133 305.415 298.272C305.532 298.4 305.724 298.464 305.991 298.464H306.775V299.936C306.647 299.979 306.497 300.016 306.327 300.048C306.156 300.091 305.975 300.123 305.783 300.144C305.591 300.176 305.415 300.192 305.255 300.192ZM308.212 300V288.432H310.436V300H308.212ZM314.701 300.192C314.424 300.192 314.125 300.16 313.805 300.096C313.496 300.032 313.202 299.92 312.925 299.76C312.648 299.589 312.418 299.349 312.237 299.04C312.066 298.72 311.981 298.315 311.981 297.824C311.981 297.237 312.109 296.752 312.365 296.368C312.621 295.984 312.984 295.685 313.453 295.472C313.933 295.248 314.504 295.093 315.165 295.008C315.826 294.923 316.557 294.88 317.357 294.88V294.256C317.357 294.011 317.314 293.797 317.229 293.616C317.154 293.435 317.016 293.291 316.813 293.184C316.621 293.077 316.349 293.024 315.997 293.024C315.645 293.024 315.357 293.067 315.133 293.152C314.92 293.237 314.765 293.349 314.669 293.488C314.584 293.616 314.541 293.76 314.541 293.92V294.112H312.381C312.37 294.059 312.365 294.011 312.365 293.968C312.365 293.915 312.365 293.851 312.365 293.776C312.365 293.285 312.514 292.864 312.813 292.512C313.112 292.149 313.533 291.872 314.077 291.68C314.621 291.488 315.256 291.392 315.981 291.392C316.76 291.392 317.41 291.493 317.933 291.696C318.466 291.899 318.872 292.197 319.149 292.592C319.437 292.987 319.581 293.483 319.581 294.08V297.904C319.581 298.096 319.634 298.24 319.741 298.336C319.858 298.421 319.986 298.464 320.125 298.464H320.653V299.92C320.546 299.973 320.381 300.027 320.157 300.08C319.933 300.144 319.661 300.176 319.341 300.176C319.032 300.176 318.754 300.128 318.509 300.032C318.274 299.947 318.077 299.824 317.917 299.664C317.757 299.493 317.645 299.291 317.581 299.056H317.469C317.288 299.28 317.064 299.477 316.797 299.648C316.541 299.819 316.237 299.952 315.885 300.048C315.544 300.144 315.149 300.192 314.701 300.192ZM315.453 298.512C315.752 298.512 316.018 298.469 316.253 298.384C316.488 298.288 316.685 298.165 316.845 298.016C317.005 297.856 317.128 297.664 317.213 297.44C317.309 297.216 317.357 296.976 317.357 296.72V296.256C316.76 296.256 316.226 296.299 315.757 296.384C315.288 296.459 314.914 296.592 314.637 296.784C314.37 296.976 314.237 297.243 314.237 297.584C314.237 297.776 314.285 297.941 314.381 298.08C314.477 298.219 314.616 298.325 314.797 298.4C314.978 298.475 315.197 298.512 315.453 298.512ZM325.166 300.192C324.58 300.192 324.052 300.128 323.582 300C323.113 299.872 322.713 299.696 322.382 299.472C322.052 299.237 321.796 298.96 321.614 298.64C321.444 298.32 321.358 297.957 321.358 297.552C321.358 297.509 321.358 297.467 321.358 297.424C321.358 297.381 321.364 297.349 321.374 297.328H323.518C323.518 297.349 323.518 297.371 323.518 297.392C323.518 297.413 323.518 297.435 323.518 297.456C323.529 297.723 323.614 297.941 323.774 298.112C323.934 298.272 324.142 298.389 324.398 298.464C324.665 298.539 324.942 298.576 325.23 298.576C325.486 298.576 325.732 298.555 325.966 298.512C326.212 298.459 326.414 298.368 326.574 298.24C326.745 298.112 326.83 297.947 326.83 297.744C326.83 297.488 326.724 297.291 326.51 297.152C326.308 297.013 326.036 296.901 325.694 296.816C325.364 296.731 325.001 296.635 324.606 296.528C324.244 296.443 323.881 296.347 323.518 296.24C323.156 296.123 322.825 295.973 322.526 295.792C322.238 295.611 322.004 295.376 321.822 295.088C321.641 294.789 321.55 294.416 321.55 293.968C321.55 293.531 321.646 293.152 321.838 292.832C322.03 292.501 322.292 292.229 322.622 292.016C322.964 291.803 323.358 291.648 323.806 291.552C324.265 291.445 324.756 291.392 325.278 291.392C325.769 291.392 326.228 291.445 326.654 291.552C327.081 291.648 327.454 291.797 327.774 292C328.094 292.192 328.345 292.437 328.526 292.736C328.708 293.024 328.798 293.349 328.798 293.712C328.798 293.787 328.798 293.856 328.798 293.92C328.798 293.984 328.793 294.027 328.782 294.048H326.654V293.92C326.654 293.728 326.596 293.568 326.478 293.44C326.361 293.301 326.19 293.195 325.966 293.12C325.753 293.045 325.492 293.008 325.182 293.008C324.969 293.008 324.772 293.024 324.59 293.056C324.42 293.088 324.27 293.136 324.142 293.2C324.014 293.264 323.913 293.344 323.838 293.44C323.774 293.525 323.742 293.632 323.742 293.76C323.742 293.941 323.817 294.091 323.966 294.208C324.126 294.315 324.334 294.405 324.59 294.48C324.846 294.555 325.129 294.635 325.438 294.72C325.822 294.827 326.222 294.933 326.638 295.04C327.065 295.136 327.46 295.269 327.822 295.44C328.185 295.611 328.478 295.856 328.702 296.176C328.926 296.485 329.038 296.907 329.038 297.44C329.038 297.952 328.937 298.384 328.734 298.736C328.542 299.088 328.27 299.371 327.918 299.584C327.566 299.797 327.156 299.952 326.686 300.048C326.217 300.144 325.71 300.192 325.166 300.192ZM330.649 300V288.432H332.873V292.512H332.985C333.166 292.288 333.38 292.096 333.625 291.936C333.881 291.765 334.164 291.632 334.473 291.536C334.793 291.44 335.14 291.392 335.513 291.392C336.068 291.392 336.553 291.493 336.969 291.696C337.385 291.899 337.705 292.219 337.929 292.656C338.164 293.093 338.281 293.664 338.281 294.368V300H336.057V294.72C336.057 294.453 336.025 294.229 335.961 294.048C335.897 293.856 335.801 293.701 335.673 293.584C335.556 293.456 335.406 293.365 335.225 293.312C335.044 293.259 334.841 293.232 334.617 293.232C334.286 293.232 333.988 293.312 333.721 293.472C333.454 293.632 333.246 293.851 333.097 294.128C332.948 294.405 332.873 294.725 332.873 295.088V300H330.649Z" fill="white"/>
</g>
<defs>
<clipPath id="clip0_376_28303">
<rect width="437" height="437" fill="white"/>
</clipPath>
</defs>
</svg>
